<svg xmlns="http://www.w3.org/2000/svg" viewBox="0 0 500 500"><defs><style>.cls-1{fill:#ebebeb;}.cls-2{fill:#fafafa;}.cls-3,.cls-5{fill:#f0f0f0;}.cls-4{fill:#e0e0e0;}.cls-5{stroke:#e0e0e0;stroke-linecap:round;stroke-linejoin:round;stroke-width:2px;}.cls-6{fill:#f5f5f5;}.cls-7{fill:#e6e6e6;}.cls-8{fill:#4cc9f0;}.cls-9{fill:#263238;}.cls-10,.cls-12,.cls-17,.cls-18,.cls-19,.cls-25{fill:#fff;}.cls-11{fill:#407bff;}.cls-12,.cls-15{opacity:0.3;}.cls-12,.cls-15,.cls-17,.cls-18,.cls-19,.cls-21,.cls-25,.cls-26,.cls-27{isolation:isolate;}.cls-13{fill:#240046;}.cls-14{fill:#7b2cbf;}.cls-16,.cls-18,.cls-21{opacity:0.2;}.cls-17,.cls-26{opacity:0.1;}.cls-19{opacity:0.6;}.cls-20{fill:#b65b52;}.cls-22{fill:#b55b52;}.cls-23{fill:#3a0ca3;}.cls-24{fill:#a02724;}.cls-25{opacity:0.5;}.cls-27{opacity:0.4;}</style></defs><g id="Background_Complete" data-name="Background Complete"><rect class="cls-1" y="382.4" width="500" height="0.25"/><rect class="cls-1" x="416.78" y="398.49" width="33.12" height="0.25"/><rect class="cls-1" x="322.53" y="401.21" width="8.69" height="0.25"/><rect class="cls-1" x="396.59" y="389.21" width="19.19" height="0.25"/><rect class="cls-1" x="52.46" y="390.89" width="43.19" height="0.25"/><rect class="cls-1" x="104.56" y="390.89" width="6.33" height="0.25"/><rect class="cls-1" x="131.47" y="395.11" width="93.68" height="0.25"/><path class="cls-1" d="M237,337.8H43.91a5.71,5.71,0,0,1-5.7-5.71V60.66A5.71,5.71,0,0,1,43.91,55H237a5.71,5.71,0,0,1,5.71,5.71V332.09A5.71,5.71,0,0,1,237,337.8ZM43.91,55.2a5.46,5.46,0,0,0-5.45,5.46V332.09a5.46,5.46,0,0,0,5.45,5.46H237a5.47,5.47,0,0,0,5.46-5.46V60.66A5.47,5.47,0,0,0,237,55.2Z"/><path class="cls-1" d="M453.31,337.8H260.21a5.72,5.72,0,0,1-5.71-5.71V60.66A5.72,5.72,0,0,1,260.21,55h193.1A5.71,5.71,0,0,1,459,60.66V332.09A5.71,5.71,0,0,1,453.31,337.8ZM260.21,55.2a5.47,5.47,0,0,0-5.46,5.46V332.09a5.47,5.47,0,0,0,5.46,5.46h193.1a5.47,5.47,0,0,0,5.46-5.46V60.66a5.47,5.47,0,0,0-5.46-5.46Z"/><rect class="cls-1" x="79.34" y="102.67" width="169.52" height="189.92"/><rect class="cls-2" x="82.67" y="105.74" width="166.19" height="183.49"/><polygon class="cls-3" points="88.81 203.13 88.81 190.24 92.49 190.24 92.49 181.64 97.4 181.64 97.4 168.75 98.63 168.75 98.63 181.64 103.54 181.64 103.54 190.24 107.22 190.24 107.22 203.13 113.98 203.13 113.98 206.81 117.05 206.81 117.05 220.93 117.66 220.93 117.66 200.67 119.5 200.67 119.5 213.56 121.34 213.56 121.34 182.87 122.57 182.87 122.57 195.76 127.48 195.76 127.48 191.47 129.32 191.47 129.32 173.66 133.01 173.66 133.01 155.86 134.24 155.86 134.24 158.31 159.41 158.31 159.41 150.95 163.7 150.95 163.7 122.71 165.55 122.71 165.55 150.95 171.69 150.95 171.69 158.31 174.14 158.31 174.14 195.15 187.03 195.15 187.03 184.1 182.74 184.1 182.74 182.26 187.03 182.26 187.03 179.19 199.31 179.19 199.31 150.95 202.38 150.95 202.38 146.65 217.11 146.65 217.11 150.95 218.96 150.95 218.96 190.24 225.71 190.24 225.71 208.04 229.39 208.04 229.39 193.92 232.46 193.92 232.46 190.24 239.22 190.24 239.22 177.34 242.9 177.34 242.9 168.75 247.19 168.75 247.19 155.86 248.86 155.86 248.86 289.23 82.67 289.23 82.67 203.13 88.81 203.13"/><rect class="cls-2" x="148.27" y="160.24" width="1.74" height="1.74"/><rect class="cls-2" x="148.27" y="163.15" width="1.74" height="1.74"/><rect class="cls-2" x="148.27" y="174.82" width="1.74" height="1.74"/><rect class="cls-2" x="148.27" y="177.73" width="1.74" height="1.74"/><rect class="cls-2" x="148.27" y="180.65" width="1.74" height="1.74"/><rect class="cls-2" x="148.27" y="189.4" width="1.74" height="1.74"/><rect class="cls-2" x="148.27" y="192.31" width="1.74" height="1.74"/><rect class="cls-2" x="151.03" y="171.9" width="1.74" height="1.74"/><rect class="cls-2" x="151.03" y="174.82" width="1.74" height="1.74"/><rect class="cls-2" x="151.03" y="177.73" width="1.74" height="1.74"/><rect class="cls-2" x="151.03" y="180.65" width="1.74" height="1.74"/><rect class="cls-2" x="151.03" y="183.57" width="1.74" height="1.74"/><rect class="cls-2" x="151.03" y="189.4" width="1.74" height="1.74"/><rect class="cls-2" x="151.03" y="192.31" width="1.74" height="1.74"/><rect class="cls-2" x="153.79" y="160.24" width="1.74" height="1.74"/><rect class="cls-2" x="153.79" y="163.15" width="1.74" height="1.74"/><rect class="cls-2" x="153.79" y="166.07" width="1.74" height="1.74"/><rect class="cls-2" x="153.79" y="168.99" width="1.74" height="1.74"/><rect class="cls-2" x="153.79" y="171.9" width="1.74" height="1.74"/><rect class="cls-2" x="153.79" y="174.82" width="1.74" height="1.74"/><rect class="cls-2" x="153.79" y="177.73" width="1.74" height="1.74"/><rect class="cls-2" x="153.79" y="180.65" width="1.74" height="1.74"/><rect class="cls-2" x="153.79" y="183.57" width="1.74" height="1.74"/><rect class="cls-2" x="153.79" y="186.48" width="1.74" height="1.74"/><rect class="cls-2" x="153.79" y="192.31" width="1.74" height="1.74"/><rect class="cls-2" x="156.56" y="160.24" width="1.74" height="1.74"/><rect class="cls-2" x="156.56" y="163.15" width="1.74" height="1.74"/><rect class="cls-2" x="156.56" y="166.07" width="1.74" height="1.74"/><rect class="cls-2" x="156.56" y="168.99" width="1.74" height="1.74"/><rect class="cls-2" x="156.56" y="171.9" width="1.74" height="1.74"/><rect class="cls-2" x="156.56" y="174.82" width="1.74" height="1.74"/><rect class="cls-2" x="156.56" y="177.73" width="1.74" height="1.74"/><rect class="cls-2" x="156.56" y="203.98" width="1.74" height="1.74"/><rect class="cls-2" x="159.32" y="160.24" width="1.74" height="1.74"/><rect class="cls-2" x="159.32" y="163.15" width="1.74" height="1.74"/><rect class="cls-2" x="159.32" y="166.07" width="1.74" height="1.74"/><rect class="cls-2" x="159.32" y="168.99" width="1.74" height="1.74"/><rect class="cls-2" x="159.32" y="171.9" width="1.74" height="1.74"/><rect class="cls-2" x="159.32" y="174.82" width="1.74" height="1.74"/><rect class="cls-2" x="159.32" y="177.73" width="1.74" height="1.74"/><rect class="cls-2" x="159.32" y="180.65" width="1.74" height="1.74"/><rect class="cls-2" x="159.32" y="198.15" width="1.74" height="1.74"/><rect class="cls-2" x="159.32" y="201.06" width="1.74" height="1.74"/><rect class="cls-2" x="159.32" y="203.98" width="1.74" height="1.74"/><rect class="cls-2" x="159.32" y="206.9" width="1.74" height="1.74"/><rect class="cls-2" x="159.32" y="218.56" width="1.74" height="1.74"/><rect class="cls-2" x="162.08" y="160.24" width="1.74" height="1.74"/><rect class="cls-2" x="162.08" y="163.15" width="1.74" height="1.74"/><rect class="cls-2" x="162.08" y="166.07" width="1.74" height="1.74"/><rect class="cls-2" x="162.08" y="168.99" width="1.74" height="1.74"/><rect class="cls-2" x="162.08" y="171.9" width="1.74" height="1.74"/><rect class="cls-2" x="162.08" y="174.82" width="1.74" height="1.74"/><rect class="cls-2" x="162.08" y="177.73" width="1.74" height="1.74"/><rect class="cls-2" x="162.08" y="180.65" width="1.74" height="1.74"/><rect class="cls-2" x="162.08" y="183.57" width="1.74" height="1.74"/><rect class="cls-2" x="162.08" y="186.48" width="1.74" height="1.74"/><rect class="cls-2" x="162.08" y="195.23" width="1.74" height="1.74"/><rect class="cls-2" x="162.08" y="198.15" width="1.74" height="1.74"/><rect class="cls-2" x="162.08" y="201.06" width="1.74" height="1.74"/><rect class="cls-2" x="162.08" y="203.98" width="1.74" height="1.74"/><rect class="cls-2" x="162.08" y="206.9" width="1.74" height="1.74"/><rect class="cls-2" x="162.08" y="218.56" width="1.74" height="1.74"/><rect class="cls-2" x="164.84" y="160.24" width="1.74" height="1.74"/><rect class="cls-2" x="164.84" y="163.15" width="1.74" height="1.74"/><rect class="cls-2" x="164.84" y="166.07" width="1.74" height="1.74"/><rect class="cls-2" x="164.84" y="168.99" width="1.74" height="1.74"/><rect class="cls-2" x="164.84" y="171.9" width="1.74" height="1.74"/><rect class="cls-2" x="164.84" y="174.82" width="1.74" height="1.74"/><rect class="cls-2" x="164.84" y="177.73" width="1.74" height="1.74"/><rect class="cls-2" x="164.84" y="180.65" width="1.74" height="1.74"/><rect class="cls-2" x="164.84" y="183.57" width="1.74" height="1.74"/><rect class="cls-2" x="164.84" y="186.48" width="1.74" height="1.74"/><rect class="cls-2" x="164.84" y="189.4" width="1.74" height="1.74"/><rect class="cls-2" x="164.84" y="192.31" width="1.74" height="1.74"/><rect class="cls-2" x="164.84" y="195.23" width="1.74" height="1.74"/><rect class="cls-2" x="164.84" y="198.15" width="1.74" height="1.74"/><rect class="cls-2" x="164.84" y="201.06" width="1.74" height="1.74"/><rect class="cls-2" x="164.84" y="203.98" width="1.74" height="1.74"/><rect class="cls-2" x="164.84" y="206.9" width="1.74" height="1.74"/><rect class="cls-2" x="164.84" y="209.81" width="1.74" height="1.74"/><rect class="cls-2" x="167.61" y="160.24" width="1.74" height="1.74"/><rect class="cls-2" x="167.61" y="163.15" width="1.74" height="1.74"/><rect class="cls-2" x="167.61" y="166.07" width="1.74" height="1.74"/><rect class="cls-2" x="167.61" y="168.99" width="1.74" height="1.74"/><rect class="cls-2" x="167.61" y="171.9" width="1.74" height="1.74"/><rect class="cls-2" x="167.61" y="174.82" width="1.74" height="1.74"/><rect class="cls-2" x="167.61" y="177.73" width="1.74" height="1.74"/><rect class="cls-2" x="167.61" y="180.65" width="1.74" height="1.74"/><rect class="cls-2" x="167.61" y="183.57" width="1.74" height="1.74"/><rect class="cls-2" x="167.61" y="186.48" width="1.74" height="1.74"/><rect class="cls-2" x="167.61" y="195.23" width="1.74" height="1.74"/><rect class="cls-2" x="167.61" y="198.15" width="1.74" height="1.74"/><rect class="cls-2" x="167.61" y="201.06" width="1.74" height="1.74"/><rect class="cls-2" x="167.61" y="203.98" width="1.74" height="1.74"/><rect class="cls-2" x="170.37" y="160.24" width="1.74" height="1.74"/><rect class="cls-2" x="170.37" y="163.15" width="1.74" height="1.74"/><rect class="cls-2" x="170.37" y="166.07" width="1.74" height="1.74"/><rect class="cls-2" x="170.37" y="168.99" width="1.74" height="1.74"/><rect class="cls-2" x="170.37" y="171.9" width="1.74" height="1.74"/><rect class="cls-2" x="170.37" y="174.82" width="1.74" height="1.74"/><rect class="cls-2" x="170.37" y="177.73" width="1.74" height="1.74"/><rect class="cls-2" x="170.37" y="180.65" width="1.74" height="1.74"/><rect class="cls-2" x="170.37" y="183.57" width="1.74" height="1.74"/><rect class="cls-2" x="170.37" y="186.48" width="1.74" height="1.74"/><rect class="cls-2" x="170.37" y="195.23" width="1.74" height="1.74"/><rect class="cls-2" x="170.37" y="198.15" width="1.74" height="1.74"/><rect class="cls-2" x="170.37" y="201.06" width="1.74" height="1.74"/><rect class="cls-2" x="201.47" y="152.67" width="1.74" height="1.74"/><rect class="cls-2" x="201.47" y="155.58" width="1.74" height="1.74"/><rect class="cls-2" x="201.47" y="158.5" width="1.74" height="1.74"/><rect class="cls-2" x="201.47" y="161.41" width="1.74" height="1.74"/><rect class="cls-2" x="201.47" y="164.33" width="1.74" height="1.74"/><rect class="cls-2" x="201.47" y="167.25" width="1.74" height="1.74"/><rect class="cls-2" x="201.47" y="170.16" width="1.74" height="1.74"/><rect class="cls-2" x="201.47" y="173.08" width="1.74" height="1.74"/><rect class="cls-2" x="201.47" y="181.83" width="1.74" height="1.74"/><rect class="cls-2" x="201.47" y="184.74" width="1.74" height="1.74"/><rect class="cls-2" x="204.24" y="152.67" width="1.74" height="1.74"/><rect class="cls-2" x="204.24" y="155.58" width="1.74" height="1.74"/><rect class="cls-2" x="204.24" y="158.5" width="1.74" height="1.74"/><rect class="cls-2" x="204.24" y="161.41" width="1.74" height="1.74"/><rect class="cls-2" x="204.24" y="164.33" width="1.74" height="1.74"/><rect class="cls-2" x="204.24" y="167.25" width="1.74" height="1.74"/><rect class="cls-2" x="204.24" y="170.16" width="1.74" height="1.74"/><rect class="cls-2" x="204.24" y="173.08" width="1.74" height="1.74"/><rect class="cls-2" x="204.24" y="184.74" width="1.74" height="1.74"/><rect class="cls-2" x="207" y="152.67" width="1.74" height="1.74"/><rect class="cls-2" x="207" y="155.58" width="1.74" height="1.74"/><rect class="cls-2" x="207" y="158.5" width="1.74" height="1.74"/><rect class="cls-2" x="207" y="161.41" width="1.74" height="1.74"/><rect class="cls-2" x="207" y="164.33" width="1.74" height="1.74"/><rect class="cls-2" x="207" y="167.25" width="1.74" height="1.74"/><rect class="cls-2" x="207" y="170.16" width="1.74" height="1.74"/><rect class="cls-2" x="207" y="173.08" width="1.74" height="1.74"/><rect class="cls-2" x="209.76" y="152.67" width="1.74" height="1.74"/><rect class="cls-2" x="209.76" y="155.58" width="1.74" height="1.74"/><rect class="cls-2" x="209.76" y="158.5" width="1.74" height="1.74"/><rect class="cls-2" x="209.76" y="161.41" width="1.74" height="1.74"/><rect class="cls-2" x="209.76" y="164.33" width="1.74" height="1.74"/><rect class="cls-2" x="209.76" y="167.25" width="1.74" height="1.74"/><rect class="cls-2" x="209.76" y="173.08" width="1.74" height="1.74"/><rect class="cls-2" x="209.76" y="176" width="1.74" height="1.74"/><rect class="cls-2" x="209.76" y="184.74" width="1.74" height="1.74"/><rect class="cls-2" x="209.76" y="187.66" width="1.74" height="1.74"/><rect class="cls-2" x="209.76" y="190.58" width="1.74" height="1.74"/><rect class="cls-2" x="209.76" y="193.49" width="1.74" height="1.74"/><rect class="cls-2" x="209.76" y="196.41" width="1.74" height="1.74"/><rect class="cls-2" x="209.76" y="199.32" width="1.74" height="1.74"/><rect class="cls-2" x="209.76" y="202.24" width="1.74" height="1.74"/><rect class="cls-2" x="212.52" y="152.67" width="1.74" height="1.74"/><rect class="cls-2" x="212.52" y="155.58" width="1.74" height="1.74"/><rect class="cls-2" x="212.52" y="158.5" width="1.74" height="1.74"/><rect class="cls-2" x="212.52" y="161.41" width="1.74" height="1.74"/><rect class="cls-2" x="212.52" y="164.33" width="1.74" height="1.74"/><rect class="cls-2" x="212.52" y="167.25" width="1.74" height="1.74"/><rect class="cls-2" x="212.52" y="176" width="1.74" height="1.74"/><rect class="cls-2" x="212.52" y="178.91" width="1.74" height="1.74"/><rect class="cls-2" x="212.52" y="181.83" width="1.74" height="1.74"/><rect class="cls-2" x="212.52" y="184.74" width="1.74" height="1.74"/><rect class="cls-2" x="212.52" y="187.66" width="1.74" height="1.74"/><rect class="cls-2" x="212.52" y="190.58" width="1.74" height="1.74"/><rect class="cls-2" x="212.52" y="193.49" width="1.74" height="1.74"/><rect class="cls-2" x="212.52" y="196.41" width="1.74" height="1.74"/><rect class="cls-2" x="212.52" y="199.32" width="1.74" height="1.74"/><rect class="cls-2" x="212.52" y="202.24" width="1.74" height="1.74"/><rect class="cls-2" x="212.52" y="205.16" width="1.74" height="1.74"/><rect class="cls-2" x="212.52" y="210.99" width="1.74" height="1.74"/><rect class="cls-2" x="215.29" y="152.67" width="1.74" height="1.74"/><rect class="cls-2" x="215.29" y="155.58" width="1.74" height="1.74"/><rect class="cls-2" x="215.29" y="158.5" width="1.74" height="1.74"/><rect class="cls-2" x="215.29" y="161.41" width="1.74" height="1.74"/><rect class="cls-2" x="215.29" y="164.33" width="1.74" height="1.74"/><rect class="cls-2" x="215.29" y="167.25" width="1.74" height="1.74"/><rect class="cls-2" x="215.29" y="176" width="1.74" height="1.74"/><rect class="cls-2" x="215.29" y="178.91" width="1.74" height="1.74"/><rect class="cls-2" x="215.29" y="181.83" width="1.74" height="1.74"/><rect class="cls-2" x="215.29" y="184.74" width="1.74" height="1.74"/><rect class="cls-2" x="215.29" y="193.49" width="1.74" height="1.74"/><rect class="cls-2" x="215.29" y="196.41" width="1.74" height="1.74"/><rect class="cls-2" x="215.29" y="199.32" width="1.74" height="1.74"/><rect class="cls-2" x="215.29" y="202.24" width="1.74" height="1.74"/><rect class="cls-2" x="215.29" y="205.16" width="1.74" height="1.74"/><rect class="cls-2" x="215.29" y="210.99" width="1.74" height="1.74"/><rect class="cls-2" x="215.29" y="213.9" width="1.74" height="1.74"/><rect class="cls-2" x="240.35" y="179.78" width="1.74" height="1.74"/><rect class="cls-2" x="240.35" y="182.7" width="1.74" height="1.74"/><rect class="cls-2" x="240.35" y="185.61" width="1.74" height="1.74"/><rect class="cls-2" x="240.35" y="188.53" width="1.74" height="1.74"/><rect class="cls-2" x="240.35" y="191.45" width="1.74" height="1.74"/><rect class="cls-2" x="240.35" y="194.36" width="1.74" height="1.74"/><rect class="cls-2" x="240.35" y="197.28" width="1.74" height="1.74"/><rect class="cls-2" x="240.35" y="206.03" width="1.74" height="1.74"/><rect class="cls-2" x="240.35" y="208.94" width="1.74" height="1.74"/><rect class="cls-2" x="240.35" y="211.86" width="1.74" height="1.74"/><rect class="cls-2" x="243.12" y="179.78" width="1.74" height="1.74"/><rect class="cls-2" x="243.12" y="182.7" width="1.74" height="1.74"/><rect class="cls-2" x="243.12" y="185.61" width="1.74" height="1.74"/><rect class="cls-2" x="243.12" y="188.53" width="1.74" height="1.74"/><rect class="cls-2" x="243.12" y="191.45" width="1.74" height="1.74"/><rect class="cls-2" x="243.12" y="194.36" width="1.74" height="1.74"/><rect class="cls-2" x="243.12" y="197.28" width="1.74" height="1.74"/><rect class="cls-2" x="245.88" y="179.78" width="2.5" height="1.74"/><rect class="cls-2" x="245.88" y="182.7" width="2.5" height="1.74"/><rect class="cls-2" x="245.88" y="185.61" width="2.5" height="1.74"/><rect class="cls-2" x="245.88" y="188.53" width="2.5" height="1.74"/><rect class="cls-2" x="245.88" y="191.45" width="2.5" height="1.74"/><rect class="cls-2" x="245.88" y="194.36" width="2.5" height="1.74"/><rect class="cls-2" x="245.88" y="197.28" width="2.5" height="1.74"/><rect class="cls-2" x="93.94" y="183.57" width="1.74" height="1.74"/><rect class="cls-2" x="93.94" y="186.48" width="1.74" height="1.74"/><rect class="cls-2" x="93.94" y="189.4" width="1.74" height="1.74"/><rect class="cls-2" x="93.94" y="192.31" width="1.74" height="1.74"/><rect class="cls-2" x="93.94" y="195.23" width="1.74" height="1.74"/><rect class="cls-2" x="93.94" y="198.15" width="1.74" height="1.74"/><rect class="cls-2" x="93.94" y="201.06" width="1.74" height="1.74"/><rect class="cls-2" x="93.94" y="203.98" width="1.74" height="1.74"/><rect class="cls-2" x="93.94" y="206.9" width="1.74" height="1.74"/><rect class="cls-2" x="93.94" y="209.81" width="1.74" height="1.74"/><rect class="cls-2" x="93.94" y="212.73" width="1.74" height="1.74"/><rect class="cls-2" x="93.94" y="215.64" width="1.74" height="1.74"/><rect class="cls-2" x="93.94" y="218.56" width="1.74" height="1.74"/><rect class="cls-2" x="93.94" y="221.48" width="1.74" height="1.74"/><rect class="cls-2" x="93.94" y="224.39" width="1.74" height="1.74"/><rect class="cls-2" x="93.94" y="227.31" width="1.74" height="1.74"/><rect class="cls-2" x="93.94" y="230.22" width="1.74" height="1.74"/><rect class="cls-2" x="93.94" y="233.14" width="1.74" height="1.74"/><rect class="cls-2" x="93.94" y="236.06" width="1.74" height="1.74"/><rect class="cls-2" x="93.94" y="238.97" width="1.74" height="1.74"/><rect class="cls-2" x="96.7" y="183.57" width="1.74" height="1.74"/><rect class="cls-2" x="96.7" y="186.48" width="1.74" height="1.74"/><rect class="cls-2" x="96.7" y="189.4" width="1.74" height="1.74"/><rect class="cls-2" x="96.7" y="192.31" width="1.74" height="1.74"/><rect class="cls-2" x="96.7" y="195.23" width="1.74" height="1.74"/><rect class="cls-2" x="96.7" y="198.15" width="1.74" height="1.74"/><rect class="cls-2" x="96.7" y="201.06" width="1.74" height="1.74"/><rect class="cls-2" x="96.7" y="203.98" width="1.74" height="1.74"/><rect class="cls-2" x="96.7" y="206.9" width="1.74" height="1.74"/><rect class="cls-2" x="96.7" y="209.81" width="1.74" height="1.74"/><rect class="cls-2" x="96.7" y="212.73" width="1.74" height="1.74"/><rect class="cls-2" x="96.7" y="215.64" width="1.74" height="1.74"/><rect class="cls-2" x="96.7" y="218.56" width="1.74" height="1.74"/><rect class="cls-2" x="96.7" y="221.48" width="1.74" height="1.74"/><rect class="cls-2" x="96.7" y="224.39" width="1.74" height="1.74"/><rect class="cls-2" x="96.7" y="227.31" width="1.74" height="1.74"/><rect class="cls-2" x="96.7" y="230.22" width="1.74" height="1.74"/><rect class="cls-2" x="96.7" y="233.14" width="1.74" height="1.74"/><rect class="cls-2" x="99.46" y="183.57" width="1.74" height="1.74"/><rect class="cls-2" x="99.46" y="186.48" width="1.74" height="1.74"/><rect class="cls-2" x="99.46" y="189.4" width="1.74" height="1.74"/><rect class="cls-2" x="99.46" y="192.31" width="1.74" height="1.74"/><rect class="cls-2" x="99.46" y="195.23" width="1.74" height="1.74"/><rect class="cls-2" x="99.46" y="198.15" width="1.74" height="1.74"/><rect class="cls-2" x="99.46" y="201.06" width="1.74" height="1.74"/><rect class="cls-2" x="99.46" y="203.98" width="1.74" height="1.74"/><rect class="cls-2" x="99.46" y="206.9" width="1.74" height="1.74"/><rect class="cls-2" x="99.46" y="209.81" width="1.74" height="1.74"/><rect class="cls-2" x="99.46" y="212.73" width="1.74" height="1.74"/><rect class="cls-2" x="99.46" y="215.64" width="1.74" height="1.74"/><rect class="cls-2" x="99.46" y="218.56" width="1.74" height="1.74"/><rect class="cls-2" x="99.46" y="221.48" width="1.74" height="1.74"/><rect class="cls-2" x="99.46" y="224.39" width="1.74" height="1.74"/><rect class="cls-2" x="99.46" y="227.31" width="1.74" height="1.74"/><rect class="cls-2" x="99.46" y="230.22" width="1.74" height="1.74"/><rect class="cls-2" x="99.46" y="233.14" width="1.74" height="1.74"/><rect class="cls-2" x="83.6" y="204.85" width="1.74" height="1.74"/><rect class="cls-2" x="83.6" y="207.77" width="1.74" height="1.74"/><rect class="cls-2" x="83.6" y="210.68" width="1.74" height="1.74"/><rect class="cls-2" x="83.6" y="213.6" width="1.74" height="1.74"/><rect class="cls-2" x="83.6" y="216.51" width="1.74" height="1.74"/><rect class="cls-2" x="83.6" y="219.43" width="1.74" height="1.74"/><rect class="cls-2" x="83.6" y="222.35" width="1.74" height="1.74"/><rect class="cls-2" x="83.6" y="225.26" width="1.74" height="1.74"/><rect class="cls-2" x="83.6" y="228.18" width="1.74" height="1.74"/><rect class="cls-2" x="83.6" y="231.09" width="1.74" height="1.74"/><rect class="cls-2" x="83.6" y="234.01" width="1.74" height="1.74"/><rect class="cls-2" x="83.6" y="236.93" width="1.74" height="1.74"/><rect class="cls-2" x="83.6" y="239.84" width="1.74" height="1.74"/><rect class="cls-2" x="86.36" y="204.85" width="1.74" height="1.74"/><rect class="cls-2" x="86.36" y="207.77" width="1.74" height="1.74"/><rect class="cls-2" x="86.36" y="210.68" width="1.74" height="1.74"/><rect class="cls-2" x="86.36" y="213.6" width="1.74" height="1.74"/><rect class="cls-2" x="86.36" y="216.51" width="1.74" height="1.74"/><rect class="cls-2" x="86.36" y="219.43" width="1.74" height="1.74"/><rect class="cls-2" x="86.36" y="222.35" width="1.74" height="1.74"/><rect class="cls-2" x="86.36" y="225.26" width="1.74" height="1.74"/><rect class="cls-2" x="86.36" y="228.18" width="1.74" height="1.74"/><rect class="cls-2" x="86.36" y="231.09" width="1.74" height="1.74"/><rect class="cls-2" x="86.36" y="234.01" width="1.74" height="1.74"/><rect class="cls-2" x="86.36" y="236.93" width="1.74" height="1.74"/><rect class="cls-2" x="86.36" y="239.84" width="1.74" height="1.74"/><rect class="cls-2" x="89.13" y="204.85" width="1.74" height="1.74"/><rect class="cls-2" x="89.13" y="207.77" width="1.74" height="1.74"/><rect class="cls-2" x="89.13" y="210.68" width="1.74" height="1.74"/><rect class="cls-2" x="89.13" y="213.6" width="1.74" height="1.74"/><rect class="cls-2" x="89.13" y="216.51" width="1.74" height="1.74"/><rect class="cls-2" x="89.13" y="219.43" width="1.74" height="1.74"/><rect class="cls-2" x="89.13" y="222.35" width="1.74" height="1.74"/><rect class="cls-2" x="89.13" y="225.26" width="1.74" height="1.74"/><rect class="cls-2" x="89.13" y="228.18" width="1.74" height="1.74"/><rect class="cls-2" x="89.13" y="231.09" width="1.74" height="1.74"/><rect class="cls-2" x="89.13" y="234.01" width="1.74" height="1.74"/><rect class="cls-2" x="89.13" y="236.93" width="1.74" height="1.74"/><rect class="cls-2" x="89.13" y="239.84" width="1.74" height="1.74"/><rect class="cls-2" x="89.13" y="242.76" width="1.74" height="1.74"/><rect class="cls-2" x="104.48" y="205.72" width="1.74" height="1.74"/><rect class="cls-2" x="104.48" y="208.63" width="1.74" height="1.74"/><rect class="cls-2" x="104.48" y="211.55" width="1.74" height="1.74"/><rect class="cls-2" x="104.48" y="214.47" width="1.74" height="1.74"/><rect class="cls-2" x="104.48" y="217.38" width="1.74" height="1.74"/><rect class="cls-2" x="104.48" y="220.3" width="1.74" height="1.74"/><rect class="cls-2" x="104.48" y="223.22" width="1.74" height="1.74"/><rect class="cls-2" x="104.48" y="226.13" width="1.74" height="1.74"/><rect class="cls-2" x="104.48" y="229.05" width="1.74" height="1.74"/><rect class="cls-2" x="104.48" y="231.96" width="1.74" height="1.74"/><rect class="cls-2" x="104.48" y="240.71" width="1.74" height="1.74"/><rect class="cls-2" x="107.24" y="205.72" width="1.74" height="1.74"/><rect class="cls-2" x="107.24" y="208.63" width="1.74" height="1.74"/><rect class="cls-2" x="107.24" y="211.55" width="1.74" height="1.74"/><rect class="cls-2" x="107.24" y="214.47" width="1.74" height="1.74"/><rect class="cls-2" x="107.24" y="217.38" width="1.74" height="1.74"/><rect class="cls-2" x="107.24" y="220.3" width="1.74" height="1.74"/><rect class="cls-2" x="107.24" y="223.22" width="1.74" height="1.74"/><rect class="cls-2" x="107.24" y="226.13" width="1.74" height="1.74"/><rect class="cls-2" x="107.24" y="229.05" width="1.74" height="1.74"/><rect class="cls-2" x="107.24" y="237.8" width="1.74" height="1.74"/><rect class="cls-2" x="107.24" y="240.71" width="1.74" height="1.74"/><rect class="cls-2" x="110" y="205.72" width="1.74" height="1.74"/><rect class="cls-2" x="110" y="208.63" width="1.74" height="1.74"/><rect class="cls-2" x="110" y="211.55" width="1.74" height="1.74"/><rect class="cls-2" x="110" y="214.47" width="1.74" height="1.74"/><rect class="cls-2" x="110" y="217.38" width="1.74" height="1.74"/><rect class="cls-2" x="110" y="220.3" width="1.74" height="1.74"/><rect class="cls-2" x="110" y="223.22" width="1.74" height="1.74"/><rect class="cls-2" x="110" y="226.13" width="1.74" height="1.74"/><rect class="cls-2" x="110" y="234.88" width="1.74" height="1.74"/><rect class="cls-2" x="110" y="237.8" width="1.74" height="1.74"/><rect class="cls-2" x="110" y="240.71" width="1.74" height="1.74"/><rect class="cls-2" x="135.68" y="161.41" width="1.74" height="1.74"/><rect class="cls-2" x="135.68" y="164.33" width="1.74" height="1.74"/><rect class="cls-2" x="135.68" y="167.25" width="1.74" height="1.74"/><rect class="cls-2" x="135.68" y="170.16" width="1.74" height="1.74"/><rect class="cls-2" x="135.68" y="173.08" width="1.74" height="1.74"/><rect class="cls-2" x="135.68" y="176" width="1.74" height="1.74"/><rect class="cls-2" x="135.68" y="178.91" width="1.74" height="1.74"/><rect class="cls-2" x="135.68" y="181.83" width="1.74" height="1.74"/><rect class="cls-2" x="135.68" y="184.74" width="1.74" height="1.74"/><rect class="cls-2" x="135.68" y="187.66" width="1.74" height="1.74"/><rect class="cls-2" x="135.68" y="190.58" width="1.74" height="1.74"/><rect class="cls-2" x="135.68" y="193.49" width="1.74" height="1.74"/><rect class="cls-2" x="135.68" y="196.41" width="1.74" height="1.74"/><rect class="cls-2" x="135.68" y="199.32" width="1.74" height="1.74"/><rect class="cls-2" x="135.68" y="202.24" width="1.74" height="1.74"/><rect class="cls-2" x="135.68" y="205.16" width="1.74" height="1.74"/><rect class="cls-2" x="135.68" y="208.07" width="1.74" height="1.74"/><rect class="cls-2" x="135.68" y="213.9" width="1.74" height="1.74"/><rect class="cls-2" x="135.68" y="216.82" width="1.74" height="1.74"/><rect class="cls-2" x="135.68" y="219.74" width="1.74" height="1.74"/><rect class="cls-2" x="135.68" y="222.65" width="1.74" height="1.74"/><rect class="cls-2" x="135.68" y="225.57" width="1.74" height="1.74"/><rect class="cls-2" x="138.44" y="161.41" width="1.74" height="1.74"/><rect class="cls-2" x="138.44" y="164.33" width="1.74" height="1.74"/><rect class="cls-2" x="138.44" y="167.25" width="1.74" height="1.74"/><rect class="cls-2" x="138.44" y="170.16" width="1.74" height="1.74"/><rect class="cls-2" x="138.44" y="173.08" width="1.74" height="1.74"/><rect class="cls-2" x="138.44" y="176" width="1.74" height="1.74"/><rect class="cls-2" x="138.44" y="178.91" width="1.74" height="1.74"/><rect class="cls-2" x="138.44" y="181.83" width="1.74" height="1.74"/><rect class="cls-2" x="138.44" y="184.74" width="1.74" height="1.74"/><rect class="cls-2" x="138.44" y="187.66" width="1.74" height="1.74"/><rect class="cls-2" x="138.44" y="190.58" width="1.74" height="1.74"/><rect class="cls-2" x="138.44" y="193.49" width="1.74" height="1.74"/><rect class="cls-2" x="138.44" y="196.41" width="1.74" height="1.74"/><rect class="cls-2" x="138.44" y="199.32" width="1.74" height="1.74"/><rect class="cls-2" x="138.44" y="202.24" width="1.74" height="1.74"/><rect class="cls-2" x="138.44" y="205.16" width="1.74" height="1.74"/><rect class="cls-2" x="138.44" y="222.65" width="1.74" height="1.74"/><rect class="cls-2" x="138.44" y="225.57" width="1.74" height="1.74"/><rect class="cls-2" x="141.21" y="161.41" width="1.74" height="1.74"/><rect class="cls-2" x="141.21" y="164.33" width="1.74" height="1.74"/><rect class="cls-2" x="141.21" y="167.25" width="1.74" height="1.74"/><rect class="cls-2" x="141.21" y="170.16" width="1.74" height="1.74"/><rect class="cls-2" x="141.21" y="173.08" width="1.74" height="1.74"/><rect class="cls-2" x="141.21" y="176" width="1.74" height="1.74"/><rect class="cls-2" x="141.21" y="178.91" width="1.74" height="1.74"/><rect class="cls-2" x="141.21" y="181.83" width="1.74" height="1.74"/><rect class="cls-2" x="141.21" y="184.74" width="1.74" height="1.74"/><rect class="cls-2" x="141.21" y="187.66" width="1.74" height="1.74"/><rect class="cls-2" x="141.21" y="190.58" width="1.74" height="1.74"/><rect class="cls-2" x="141.21" y="193.49" width="1.74" height="1.74"/><rect class="cls-2" x="141.21" y="196.41" width="1.74" height="1.74"/><rect class="cls-2" x="141.21" y="199.32" width="1.74" height="1.74"/><rect class="cls-2" x="141.21" y="202.24" width="1.74" height="1.74"/><rect class="cls-2" x="141.21" y="205.16" width="1.74" height="1.74"/><rect class="cls-2" x="141.21" y="210.99" width="1.74" height="1.74"/><rect class="cls-2" x="141.21" y="213.9" width="1.74" height="1.74"/><rect class="cls-2" x="141.21" y="216.82" width="1.74" height="1.74"/><rect class="cls-2" x="141.21" y="219.74" width="1.74" height="1.74"/><rect class="cls-2" x="141.21" y="225.57" width="1.74" height="1.74"/><rect class="cls-2" x="125.65" y="198.15" width="1.74" height="1.74"/><rect class="cls-2" x="125.65" y="201.06" width="1.74" height="1.74"/><rect class="cls-2" x="125.65" y="203.98" width="1.74" height="1.74"/><rect class="cls-2" x="125.65" y="206.9" width="1.74" height="1.74"/><rect class="cls-2" x="125.65" y="209.81" width="1.74" height="1.74"/><rect class="cls-2" x="125.65" y="212.73" width="1.74" height="1.74"/><rect class="cls-2" x="125.65" y="215.64" width="1.74" height="1.74"/><rect class="cls-2" x="125.65" y="221.48" width="1.74" height="1.74"/><rect class="cls-2" x="125.65" y="224.39" width="1.74" height="1.74"/><rect class="cls-2" x="125.65" y="227.31" width="1.74" height="1.74"/><rect class="cls-2" x="125.65" y="230.22" width="1.74" height="1.74"/><rect class="cls-2" x="125.65" y="233.14" width="1.74" height="1.74"/><rect class="cls-2" x="125.65" y="236.06" width="1.74" height="1.74"/><rect class="cls-2" x="125.65" y="238.97" width="1.74" height="1.74"/><rect class="cls-2" x="125.65" y="241.89" width="1.74" height="1.74"/><rect class="cls-2" x="128.42" y="198.15" width="1.74" height="1.74"/><rect class="cls-2" x="128.42" y="201.06" width="1.74" height="1.74"/><rect class="cls-2" x="128.42" y="203.98" width="1.74" height="1.74"/><rect class="cls-2" x="128.42" y="206.9" width="1.74" height="1.74"/><rect class="cls-2" x="128.42" y="209.81" width="1.74" height="1.74"/><rect class="cls-2" x="128.42" y="212.73" width="1.74" height="1.74"/><rect class="cls-2" x="128.42" y="221.48" width="1.74" height="1.74"/><rect class="cls-2" x="128.42" y="224.39" width="1.74" height="1.74"/><rect class="cls-2" x="128.42" y="227.31" width="1.74" height="1.74"/><rect class="cls-2" x="128.42" y="230.22" width="1.74" height="1.74"/><rect class="cls-2" x="128.42" y="233.14" width="1.74" height="1.74"/><rect class="cls-2" x="128.42" y="236.06" width="1.74" height="1.74"/><rect class="cls-2" x="128.42" y="238.97" width="1.74" height="1.74"/><rect class="cls-2" x="128.42" y="241.89" width="1.74" height="1.74"/><rect class="cls-2" x="131.18" y="198.15" width="1.74" height="1.74"/><rect class="cls-2" x="131.18" y="201.06" width="1.74" height="1.74"/><rect class="cls-2" x="131.18" y="203.98" width="1.74" height="1.74"/><rect class="cls-2" x="131.18" y="206.9" width="1.74" height="1.74"/><rect class="cls-2" x="131.18" y="209.81" width="1.74" height="1.74"/><rect class="cls-2" x="131.18" y="212.73" width="1.74" height="1.74"/><rect class="cls-2" x="131.18" y="218.56" width="1.74" height="1.74"/><rect class="cls-2" x="131.18" y="221.48" width="1.74" height="1.74"/><rect class="cls-2" x="131.18" y="224.39" width="1.74" height="1.74"/><rect class="cls-2" x="131.18" y="227.31" width="1.74" height="1.74"/><rect class="cls-2" x="131.18" y="230.22" width="1.74" height="1.74"/><rect class="cls-2" x="131.18" y="233.14" width="1.74" height="1.74"/><rect class="cls-2" x="131.18" y="236.06" width="1.74" height="1.74"/><rect class="cls-2" x="131.18" y="238.97" width="1.74" height="1.74"/><rect class="cls-2" x="131.18" y="241.89" width="1.74" height="1.74"/><rect class="cls-2" x="189.4" y="181.83" width="1.74" height="1.74"/><rect class="cls-2" x="189.4" y="184.74" width="1.74" height="1.74"/><rect class="cls-2" x="189.4" y="187.66" width="1.74" height="1.74"/><rect class="cls-2" x="189.4" y="190.58" width="1.74" height="1.74"/><rect class="cls-2" x="189.4" y="193.49" width="1.74" height="1.74"/><rect class="cls-2" x="189.4" y="196.41" width="1.74" height="1.74"/><rect class="cls-2" x="189.4" y="199.32" width="1.74" height="1.74"/><rect class="cls-2" x="189.4" y="202.24" width="1.74" height="1.74"/><rect class="cls-2" x="189.4" y="205.16" width="1.74" height="1.74"/><rect class="cls-2" x="189.4" y="208.07" width="1.74" height="1.74"/><rect class="cls-2" x="189.4" y="210.99" width="1.74" height="1.74"/><rect class="cls-2" x="189.4" y="213.9" width="1.74" height="1.74"/><rect class="cls-2" x="189.4" y="216.82" width="1.74" height="1.74"/><rect class="cls-2" x="189.4" y="222.65" width="1.74" height="1.74"/><rect class="cls-2" x="189.4" y="225.57" width="1.74" height="1.74"/><rect class="cls-2" x="189.4" y="228.48" width="1.74" height="1.74"/><rect class="cls-2" x="189.4" y="231.4" width="1.74" height="1.74"/><rect class="cls-2" x="189.4" y="237.23" width="1.74" height="1.74"/><rect class="cls-2" x="189.4" y="240.15" width="1.74" height="1.74"/><rect class="cls-2" x="189.4" y="243.06" width="1.74" height="1.74"/><rect class="cls-2" x="192.16" y="181.83" width="1.74" height="1.74"/><rect class="cls-2" x="192.16" y="184.74" width="1.74" height="1.74"/><rect class="cls-2" x="192.16" y="187.66" width="1.74" height="1.74"/><rect class="cls-2" x="192.16" y="190.58" width="1.74" height="1.74"/><rect class="cls-2" x="192.16" y="193.49" width="1.74" height="1.74"/><rect class="cls-2" x="192.16" y="196.41" width="1.74" height="1.74"/><rect class="cls-2" x="192.16" y="199.32" width="1.74" height="1.74"/><rect class="cls-2" x="192.16" y="202.24" width="1.74" height="1.74"/><rect class="cls-2" x="192.16" y="205.16" width="1.74" height="1.74"/><rect class="cls-2" x="192.16" y="208.07" width="1.74" height="1.74"/><rect class="cls-2" x="192.16" y="210.99" width="1.74" height="1.74"/><rect class="cls-2" x="192.16" y="213.9" width="1.74" height="1.74"/><rect class="cls-2" x="192.16" y="216.82" width="1.74" height="1.74"/><rect class="cls-2" x="192.16" y="225.57" width="1.74" height="1.74"/><rect class="cls-2" x="192.16" y="228.48" width="1.74" height="1.74"/><rect class="cls-2" x="192.16" y="234.32" width="1.74" height="1.74"/><rect class="cls-2" x="192.16" y="237.23" width="1.74" height="1.74"/><rect class="cls-2" x="192.16" y="240.15" width="1.74" height="1.74"/><rect class="cls-2" x="192.16" y="243.06" width="1.74" height="1.74"/><rect class="cls-2" x="194.92" y="181.83" width="1.74" height="1.74"/><rect class="cls-2" x="194.92" y="184.74" width="1.74" height="1.74"/><rect class="cls-2" x="194.92" y="187.66" width="1.74" height="1.74"/><rect class="cls-2" x="194.92" y="190.58" width="1.74" height="1.74"/><rect class="cls-2" x="194.92" y="193.49" width="1.74" height="1.74"/><rect class="cls-2" x="194.92" y="196.41" width="1.74" height="1.74"/><rect class="cls-2" x="194.92" y="199.32" width="1.74" height="1.74"/><rect class="cls-2" x="194.92" y="202.24" width="1.74" height="1.74"/><rect class="cls-2" x="194.92" y="205.16" width="1.74" height="1.74"/><rect class="cls-2" x="194.92" y="208.07" width="1.74" height="1.74"/><rect class="cls-2" x="194.92" y="210.99" width="1.74" height="1.74"/><rect class="cls-2" x="194.92" y="213.9" width="1.74" height="1.74"/><rect class="cls-2" x="194.92" y="216.82" width="1.74" height="1.74"/><rect class="cls-2" x="194.92" y="219.74" width="1.74" height="1.74"/><rect class="cls-2" x="194.92" y="225.57" width="1.74" height="1.74"/><rect class="cls-2" x="194.92" y="231.4" width="1.74" height="1.74"/><rect class="cls-2" x="194.92" y="234.32" width="1.74" height="1.74"/><rect class="cls-2" x="194.92" y="237.23" width="1.74" height="1.74"/><rect class="cls-2" x="194.92" y="240.15" width="1.74" height="1.74"/><rect class="cls-2" x="194.92" y="243.06" width="1.74" height="1.74"/><rect class="cls-2" x="178.14" y="198.45" width="1.74" height="1.74"/><rect class="cls-2" x="178.14" y="201.37" width="1.74" height="1.74"/><rect class="cls-2" x="178.14" y="204.29" width="1.74" height="1.74"/><rect class="cls-2" x="178.14" y="207.2" width="1.74" height="1.74"/><rect class="cls-2" x="178.14" y="210.12" width="1.74" height="1.74"/><rect class="cls-2" x="178.14" y="213.03" width="1.74" height="1.74"/><rect class="cls-2" x="178.14" y="221.78" width="1.74" height="1.74"/><rect class="cls-2" x="178.14" y="224.7" width="1.74" height="1.74"/><rect class="cls-2" x="178.14" y="227.61" width="1.74" height="1.74"/><rect class="cls-2" x="178.14" y="230.53" width="1.74" height="1.74"/><rect class="cls-2" x="178.14" y="233.45" width="1.74" height="1.74"/><rect class="cls-2" x="178.14" y="236.36" width="1.74" height="1.74"/><rect class="cls-2" x="178.14" y="239.28" width="1.74" height="1.74"/><rect class="cls-2" x="180.91" y="198.45" width="1.74" height="1.74"/><rect class="cls-2" x="180.91" y="201.37" width="1.74" height="1.74"/><rect class="cls-2" x="180.91" y="204.29" width="1.74" height="1.74"/><rect class="cls-2" x="180.91" y="207.2" width="1.74" height="1.74"/><rect class="cls-2" x="180.91" y="210.12" width="1.74" height="1.74"/><rect class="cls-2" x="180.91" y="213.03" width="1.74" height="1.74"/><rect class="cls-2" x="180.91" y="221.78" width="1.74" height="1.74"/><rect class="cls-2" x="180.91" y="224.7" width="1.74" height="1.74"/><rect class="cls-2" x="180.91" y="227.61" width="1.74" height="1.74"/><rect class="cls-2" x="180.91" y="230.53" width="1.74" height="1.74"/><rect class="cls-2" x="180.91" y="233.45" width="1.74" height="1.74"/><rect class="cls-2" x="180.91" y="236.36" width="1.74" height="1.74"/><rect class="cls-2" x="180.91" y="242.2" width="1.74" height="1.74"/><rect class="cls-1" x="245.4" y="103.1" width="3.45" height="189.49"/><rect class="cls-1" x="190.48" y="103.1" width="2.92" height="189.49"/><rect class="cls-1" x="135.56" y="103.1" width="2.92" height="189.49"/><circle class="cls-4" cx="344.9" cy="96.43" r="14.17"/><path class="cls-3" d="M356.94,96.43a12,12,0,1,1-12-12A12,12,0,0,1,356.94,96.43Z"/><polyline class="cls-5" points="344.33 88.17 344.33 96.59 338.75 93.43"/><rect class="cls-6" x="352.98" y="119.3" width="62.64" height="82.68"/><polygon class="cls-1" points="374.29 128.1 374.29 164.45 388.77 163.63 390.43 128.1 374.29 128.1"/><polygon class="cls-4" points="386.01 135.13 408.29 135.13 408.1 166.95 396.56 167.13 386.01 135.13"/><polygon class="cls-7" points="364.32 130.44 370.18 130.44 368.13 158.83 360.8 160.65 364.32 130.44"/><rect class="cls-7" x="281.36" y="136.09" width="62.44" height="75.98" transform="translate(625.16 348.16) rotate(180)"/><polygon class="cls-4" points="295.65 193.25 328.46 161 292.96 155.14 295.65 193.25"/><polygon class="cls-3" points="327.67 185.6 329.29 160.87 304.59 166.94 302.79 185.86 327.67 185.6"/><circle class="cls-2" cx="295.35" cy="150.8" r="9.97" transform="translate(-20.13 253.01) rotate(-45)"/><path class="cls-4" d="M324.44,194.42a4.84,4.84,0,1,1,4.84,4.84A4.84,4.84,0,0,1,324.44,194.42Z"/><polygon class="cls-6" points="328.13 202.92 314.16 194.42 325.9 184.75 328.13 202.92"/><rect class="cls-4" x="308.89" y="145.75" width="2.75" height="60.67"/><rect class="cls-1" x="334.39" y="145.75" width="3.55" height="57.99"/><rect class="cls-1" x="287.63" y="185.86" width="18.15" height="18.15"/><rect class="cls-7" x="345.77" y="313.38" width="65.62" height="59.63"/><rect class="cls-7" x="413.17" y="308.13" width="8.25" height="74.05"/><rect class="cls-2" x="356.22" y="318.94" width="5.38" height="21.39"/><rect class="cls-6" x="378.51" y="318.94" width="5.38" height="21.39"/><rect class="cls-6" x="361.59" y="320.8" width="5.38" height="19.54"/><rect class="cls-2" x="373.13" y="320.8" width="5.38" height="19.54"/><rect class="cls-1" x="369.66" y="318.94" width="3.47" height="21.39"/><rect class="cls-2" x="366.97" y="320.8" width="2.69" height="19.54"/><rect class="cls-1" x="383.89" y="318.94" width="5.38" height="21.39"/><rect class="cls-7" x="389.27" y="320.8" width="5.38" height="19.54"/><rect class="cls-7" x="400.81" y="320.8" width="5.38" height="19.54"/><rect class="cls-2" x="397.33" y="318.94" width="3.47" height="21.39"/><rect class="cls-1" x="394.64" y="320.8" width="2.69" height="19.54"/><rect class="cls-2" x="406.18" y="319.57" width="2.69" height="20.77"/><rect class="cls-2" x="403.49" y="349.32" width="5.38" height="20.39" transform="translate(812.37 719.02) rotate(180)"/><rect class="cls-2" x="381.2" y="349.32" width="5.38" height="20.39" transform="translate(767.78 719.02) rotate(180)"/><rect class="cls-3" x="398.12" y="351.17" width="5.38" height="18.54" transform="translate(801.61 720.88) rotate(180)"/><rect class="cls-1" x="386.58" y="351.17" width="5.38" height="18.54" transform="translate(778.53 720.88) rotate(180)"/><rect class="cls-2" x="391.95" y="349.32" width="3.47" height="20.39" transform="translate(787.38 719.02) rotate(180)"/><rect class="cls-6" x="395.43" y="351.17" width="2.69" height="18.54" transform="translate(793.55 720.88) rotate(180)"/><rect class="cls-1" x="375.82" y="349.32" width="5.38" height="20.39" transform="translate(757.02 719.02) rotate(180)"/><rect class="cls-6" x="370.45" y="351.17" width="5.38" height="18.54" transform="translate(746.27 720.88) rotate(180)"/><rect class="cls-7" x="358.91" y="351.17" width="5.38" height="18.54" transform="translate(723.19 720.88) rotate(180)"/><rect class="cls-2" x="364.28" y="349.32" width="3.47" height="20.39" transform="translate(732.04 719.02) rotate(180)"/><rect class="cls-2" x="352.74" y="349.32" width="3.47" height="20.39" transform="translate(708.96 719.02) rotate(180)"/><rect class="cls-1" x="367.76" y="351.17" width="2.69" height="18.54" transform="translate(738.2 720.88) rotate(180)"/><rect class="cls-3" x="356.22" y="349.94" width="2.69" height="19.77" transform="translate(715.12 719.65) rotate(180)"/><path class="cls-3" d="M411.06,308.13H343.69v69.28h65.17v4.76h4.4v-74Zm-2.2,61.58h-61V344.76h61Zm0-29.35h-61V315.82h61Z"/><rect class="cls-7" x="280.04" y="313.38" width="65.62" height="59.63" transform="translate(625.71 686.39) rotate(180)"/><rect class="cls-7" x="282.56" y="376.54" width="8.25" height="5.63" transform="translate(573.38 758.71) rotate(180)"/><rect class="cls-2" x="338.08" y="318.94" width="5.38" height="21.39" transform="translate(681.53 659.27) rotate(180)"/><rect class="cls-6" x="315.78" y="318.94" width="5.38" height="21.39" transform="translate(636.94 659.27) rotate(180)"/><rect class="cls-6" x="332.7" y="320.8" width="5.38" height="19.54" transform="translate(670.78 661.13) rotate(180)"/><rect class="cls-2" x="321.16" y="320.8" width="5.38" height="19.54" transform="translate(647.7 661.13) rotate(180)"/><rect class="cls-1" x="326.54" y="318.94" width="3.47" height="21.39" transform="translate(656.55 659.27) rotate(180)"/><rect class="cls-2" x="330.01" y="320.8" width="2.69" height="19.54" transform="translate(662.71 661.13) rotate(180)"/><rect class="cls-1" x="313.95" y="318.94" width="5.38" height="21.39" transform="translate(633.28 659.27) rotate(180)"/><rect class="cls-7" x="308.57" y="320.8" width="5.38" height="19.54" transform="translate(622.52 661.13) rotate(180)"/><rect class="cls-7" x="297.03" y="320.8" width="5.38" height="19.54" transform="translate(599.44 661.13) rotate(180)"/><rect class="cls-2" x="302.41" y="318.94" width="3.47" height="21.39" transform="translate(608.3 659.27) rotate(180)"/><rect class="cls-1" x="305.89" y="320.8" width="2.69" height="19.54" transform="translate(614.46 661.13) rotate(180)"/><rect class="cls-6" x="294.34" y="319.57" width="2.69" height="20.77" transform="translate(591.38 659.9) rotate(180)"/><rect class="cls-2" x="291.82" y="349.32" width="5.38" height="20.39"/><rect class="cls-2" x="314.11" y="349.32" width="5.38" height="20.39"/><rect class="cls-6" x="297.2" y="351.17" width="5.38" height="18.54"/><rect class="cls-1" x="308.74" y="351.17" width="5.38" height="18.54"/><rect class="cls-2" x="305.26" y="349.32" width="3.47" height="20.39"/><rect class="cls-6" x="302.57" y="351.17" width="2.69" height="18.54"/><rect class="cls-1" x="315.95" y="349.32" width="5.38" height="20.39"/><rect class="cls-6" x="321.32" y="351.17" width="5.38" height="18.54"/><rect class="cls-7" x="332.86" y="351.17" width="5.38" height="18.54"/><rect class="cls-2" x="329.39" y="349.32" width="3.47" height="20.39"/><rect class="cls-2" x="340.22" y="349.32" width="3.47" height="20.39"/><rect class="cls-1" x="326.7" y="351.17" width="2.69" height="18.54"/><rect class="cls-1" x="338.24" y="349.94" width="2.69" height="19.77"/><path class="cls-3" d="M278.17,308.13v74h4.4v-4.76h65.17V308.13H278.17Zm4.4,36.63h61v24.95h-61Zm0-28.94h61v24.54h-61Z"/></g><g id="Shadow"><ellipse id="_Path_" data-name="&lt;Path&gt;" class="cls-6" cx="250" cy="416.24" rx="193.89" ry="11.32"/></g><g id="Plant"><path class="cls-8" d="M382.05,372.62s-7.76-9.22-12.72-4.92-2.45,13.43,3.27,13.73a14.38,14.38,0,0,0,9.45-2.89Z"/><path class="cls-8" d="M413.68,349.22s6.51-6.82,10.54-5.66,3.62,17.45-8.89,10.85Z"/><path class="cls-8" d="M390.42,400.11s-21.4-29.27-4-35.2,20.47,23.55,15.51,31.76S390.42,400.11,390.42,400.11Z"/><path class="cls-8" d="M400.34,340.18s13.28-30.82-6.38-31.75-21.81,30.56.82,35.13Z"/><path class="cls-8" d="M395.63,365.41s-6.45-27.21,6-29.38,24.65,22.42-1,34.78C400.57,370.81,396.17,368.08,395.63,365.41Z"/><polygon class="cls-9" points="375.02 395.96 410.94 395.96 407.94 418.95 378.02 418.95 375.02 395.96"/><path class="cls-10" d="M393.7,338a25.52,25.52,0,0,1-5-4.88,24.73,24.73,0,0,1-3.52-6.08,18.32,18.32,0,0,1-1.28-6.93,16.48,16.48,0,0,1,1.61-6.79c-.13.57-.25,1.14-.39,1.69l-.21.84c0,.28-.05.57-.08.85-.06.57-.15,1.13-.2,1.7l0,1.7a21.2,21.2,0,0,0,1.44,6.57,31.4,31.4,0,0,0,3.21,6,30.29,30.29,0,0,0,2.06,2.75C392.12,336.3,392.9,337.14,393.7,338Z"/><path class="cls-10" d="M389,311.53a12.52,12.52,0,0,1,3.22,1.1,14.71,14.71,0,0,1,2.84,1.94,15,15,0,0,1,4,5.59,20,20,0,0,1,1.38,6.72c0,1.14-.07,2.27-.12,3.4s-.35,2.24-.58,3.35c0-1.14.07-2.26.1-3.37s-.06-2.23-.17-3.33a27.06,27.06,0,0,0-.56-3.26c-.14-.53-.23-1.07-.4-1.59l-.57-1.54A16.21,16.21,0,0,0,389,311.53Z"/><path class="cls-10" d="M404,338a11.72,11.72,0,0,1,6.52,6.25,14.66,14.66,0,0,1,1.22,4.5,6.67,6.67,0,0,1,.06,1.18,9.41,9.41,0,0,1,0,1.19,12.89,12.89,0,0,1-.47,2.32,19.57,19.57,0,0,1-1.88,4.26,30.2,30.2,0,0,1-2.7,3.75,37.61,37.61,0,0,1-6.65,6.27c1.1-1.06,2.17-2.13,3.16-3.27a43.33,43.33,0,0,0,2.89-3.48,24.83,24.83,0,0,0,4.22-7.81,12,12,0,0,0,.46-2.14,9.66,9.66,0,0,0,0-1.08,6.67,6.67,0,0,0,0-1.09,15.19,15.19,0,0,0-1-4.3,12.41,12.41,0,0,0-2.3-3.77A11.61,11.61,0,0,0,404,338Z"/><path class="cls-10" d="M400.34,340.18a24.45,24.45,0,0,1,1.38,6.23,15.36,15.36,0,0,1,0,3.25,7.85,7.85,0,0,1-1,3.19,12,12,0,0,0-1.81,5.76,27.22,27.22,0,0,0-.15,3.13c0,1.06,0,2.11.07,3.17a24.11,24.11,0,0,1-.69-6.35,15.42,15.42,0,0,1,.4-3.22,10.16,10.16,0,0,1,.54-1.58,11.48,11.48,0,0,1,.79-1.44,6.88,6.88,0,0,0,.93-2.79,18.54,18.54,0,0,0,.2-3.08,29.89,29.89,0,0,0-.2-3.13C400.67,342.27,400.51,341.23,400.34,340.18Z"/><path class="cls-10" d="M391.62,367.7a3,3,0,0,1,1.33,1,11.18,11.18,0,0,1,1,1.4,25.52,25.52,0,0,1,1.34,3.09,49.24,49.24,0,0,1,1.78,6.47c.45,2.19.81,4.39,1.05,6.61a43.79,43.79,0,0,1,.35,6.68c-.15-1.11-.32-2.2-.53-3.29s-.37-2.19-.58-3.28c-.41-2.18-.81-4.35-1.27-6.51s-.95-4.32-1.53-6.44a26,26,0,0,0-1-3.12,11,11,0,0,0-.73-1.46A3.22,3.22,0,0,0,391.62,367.7Z"/><path class="cls-10" d="M385.54,368.65a28,28,0,0,0-1,6.06,23.08,23.08,0,0,0,.44,6.05,20.09,20.09,0,0,0,2,5.7,29.39,29.39,0,0,0,3.43,5.1l-1.15-1.06a10.58,10.58,0,0,1-1.1-1.12,16.56,16.56,0,0,1-1.86-2.54,17.11,17.11,0,0,1-1.44-2.83c-.2-.49-.32-1-.49-1.51A10.22,10.22,0,0,1,384,381a19.46,19.46,0,0,1-.24-6.32A18.54,18.54,0,0,1,385.54,368.65Z"/><path class="cls-10" d="M418.73,352.54a24.26,24.26,0,0,0,3.18-1,7.46,7.46,0,0,0,1.39-.75,11,11,0,0,0,1.31-1.07,3.13,3.13,0,0,1-.78,1.65,4.3,4.3,0,0,1-1.52,1.09,5.16,5.16,0,0,1-1.8.4A4.06,4.06,0,0,1,418.73,352.54Z"/><path class="cls-10" d="M417.4,348.05a4.21,4.21,0,0,1,1.18-1.4,4.82,4.82,0,0,1,1.66-.88,3.75,3.75,0,0,1,1.94,0,2.74,2.74,0,0,1,1.5,1.13,6.26,6.26,0,0,0-1.63-.36,5.28,5.28,0,0,0-1.53.21,11.08,11.08,0,0,0-1.53.58Z"/><path class="cls-10" d="M378.51,374a35.08,35.08,0,0,0-3.95-2.84,5.37,5.37,0,0,0-2.11-.79,4.07,4.07,0,0,0-2.26.44,3,3,0,0,1,2.29-1.22,4.64,4.64,0,0,1,2.57.7,8.62,8.62,0,0,1,2,1.62A8.19,8.19,0,0,1,378.51,374Z"/><path class="cls-10" d="M378.51,378.54a10.82,10.82,0,0,1-2.92.64,11.71,11.71,0,0,1-3-.09,6.35,6.35,0,0,1-2.87-1.16,3.35,3.35,0,0,1-1.4-2.67,4.12,4.12,0,0,0,1.83,2,8.14,8.14,0,0,0,2.61.83A50.61,50.61,0,0,0,378.51,378.54Z"/></g><g id="Trash_bin" data-name="Trash bin"><path class="cls-11" d="M315.65,400a2.27,2.27,0,0,0-1.92-3.27,4.73,4.73,0,0,0-1.63-5.34,1.26,1.26,0,0,0-.71-.3,1.47,1.47,0,0,0-.76.32l-4.49,3.07a2.69,2.69,0,0,0-.9.84c-.92,1.69,2.4,3.86,1,5.25-.39.41-1,.49-1.51.78-1.07.63-1.2,2-1.7,3.13s-2.24,2-2.91.94c.5-1.06-1-2-2.2-2.1s-2.47-.2-3.13-1.28c-1.72,1.43-5.55-2.54-5.47-4.14a3.22,3.22,0,0,0-2.67,2.61,18.23,18.23,0,0,0-.15,4c0,2.59-.92,5.13-.87,7.72,0,2,.86,4.26,2.8,5.07a7.59,7.59,0,0,0,3,.38l22.13-.13a3.42,3.42,0,0,0,1.56-.25c1-.49,1.21-1.74,1.3-2.8q.58-6.85,1.19-13.7Z"/><path class="cls-12" d="M315.65,400a2.27,2.27,0,0,0-1.92-3.27,4.73,4.73,0,0,0-1.63-5.34,1.26,1.26,0,0,0-.71-.3,1.47,1.47,0,0,0-.76.32l-4.49,3.07a2.69,2.69,0,0,0-.9.84c-.92,1.69,2.4,3.86,1,5.25-.39.41-1,.49-1.51.78-1.07.63-1.2,2-1.7,3.13s-2.24,2-2.91.94c.5-1.06-1-2-2.2-2.1s-2.47-.2-3.13-1.28c-1.72,1.43-5.55-2.54-5.47-4.14a3.22,3.22,0,0,0-2.67,2.61,18.23,18.23,0,0,0-.15,4c0,2.59-.92,5.13-.87,7.72,0,2,.86,4.26,2.8,5.07a7.59,7.59,0,0,0,3,.38l22.13-.13a3.42,3.42,0,0,0,1.56-.25c1-.49,1.21-1.74,1.3-2.8q.58-6.85,1.19-13.7Z"/><path class="cls-13" d="M317,377.73H282.61l.28,3.3.21,2.35.52,6.13.3,3.51.39,4.68.17,2,.06.6.2,2.36.28,3.23.17,2,.17,2,.2,2.36.16,1.79.17,2,.07.88h31.51l.07-.88.17-2,.16-1.8.2-2.36.17-2,.17-2,.28-3.24.2-2.35.05-.6.17-2,.4-4.68.3-3.51.52-6.13.2-2.35.28-3.3ZM319,379.9h0l-.66-.63h.72Zm-.17,2-.06.79-3.08,2.92-3.52-3.35,3.15-3h.74ZM318,392.33l-2.25,2.14-3.52-3.35,3.52-3.34,2.44,2.31Zm-32.67-2.24h0l2.44-2.31,3.52,3.34-3.52,3.35-2.24-2.14Zm29.29-3.4L311,390l-3.52-3.35,3.52-3.35ZM309,379.27h4l-2,1.91Zm.88,11.85-3.52,3.35-3.53-3.35,3.53-3.34Zm-11.71,4.43,3.53-3.34,3.51,3.34-3.51,3.35Zm2.38,4.43L297,403.33,293.53,400l3.52-3.35Zm5.81-3.34L309.9,400l-3.52,3.34L302.85,400Zm-4.66-6.6-3.53-3.35,3.53-3.35,3.51,3.35Zm-1.15,1.08-3.52,3.35-3.52-3.35,3.52-3.34ZM292.38,390l-3.52-3.35,3.52-3.35,3.53,3.35Zm0,2.17,3.53,3.34-3.53,3.35-3.52-3.35Zm3.53,12.21-3.53,3.34-3.52-3.34,3.52-3.35ZM297,405.5l3.53,3.35-3.52,3.35-3.52-3.35Zm1.15-1.08,3.53-3.35,3.51,3.35-3.51,3.34Zm8.19,1.08,3.52,3.35-3.52,3.35-3.53-3.35Zm4.66,4.43,3.53,3.35-2.29,2.16H309.8l-2.28-2.16Zm-3.52-5.51,3.52-3.35,3.53,3.35L311,407.76Zm0-8.87,3.52-3.34,3.53,3.34L311,398.9Zm2.38-13.29-3.52,3.35-3.53-3.35,3.16-3h.74Zm-8.18-1.08-2-1.91h4Zm-1.15,1.08-3.52,3.35-3.52-3.35,3.15-3h.74Zm-6.17-3-2,1.91-2-1.91Zm-6.31,0,3.15,3-3.52,3.35-3.07-2.92-.06-.79,2.76-2.63Zm-3,0-.65.62h0l-.06-.62Zm-.22,5.78,1.73,1.64-1.47,1.4Zm1,11.23-.13-1.59h0l.9.86-.77.73Zm.17,2,1.74-1.65,3.52,3.35-3.52,3.34L286.3,402Zm.53,6.2v-.15l.08.08-.07.07Zm.61,7.13-.44-5.13,1-1,3.52,3.35-3.52,3.34-.6-.57Zm.32,3.82-.06-.76.34-.32,1.14,1.08Zm1.42-2.16,3.52-3.35,3.53,3.35-2.29,2.16h-2.48Zm7.05,2.16,1.14-1.08,1.15,1.08Zm4.56,0-2.28-2.16,3.53-3.35,3.51,3.35L303,415.44Zm4.76,0,1.15-1.08,1.14,1.08Zm10.75,0h-1.42l1.14-1.08.34.32Zm.33-3.82-.61.57-3.52-3.34,3.52-3.35,1,1Zm.62-7.29,0,.16-.07-.07.09-.09Zm.2-2.35-1.43,1.35L312.18,400l3.52-3.35,1.75,1.65Zm.49-5.69-.78-.74.91-.86Zm1-11.24-.26,3-1.48-1.4,1.74-1.64Z"/><rect class="cls-8" x="280.41" y="376.37" width="42.6" height="4.27" rx="1.64" transform="translate(603.42 757) rotate(180)"/><rect class="cls-8" x="283.49" y="414.68" width="36.45" height="4.27" rx="1.64"/></g><g id="Speech_bubble" data-name="Speech bubble"><path class="cls-8" d="M181.28,148.26H152.55a8.85,8.85,0,0,0-8.85,8.85v25a8.85,8.85,0,0,0,8.85,8.85h8.38l-7,13.89,13-13.89h14.39a8.84,8.84,0,0,0,8.84-8.85v-25A8.84,8.84,0,0,0,181.28,148.26Z"/><circle class="cls-14" cx="166.91" cy="169.5" r="14.26" transform="translate(-70.97 167.67) rotate(-45)"/><path class="cls-10" d="M165.42,175.87a1.31,1.31,0,0,1-1-.46l-5.6-6.59a1.31,1.31,0,1,1,2-1.7l4.6,5.42,7.58-8.95a1.31,1.31,0,1,1,2,1.7l-8.59,10.12A1.29,1.29,0,0,1,165.42,175.87Z"/></g><g id="Character"><path class="cls-9" d="M205,417.12h58.2a1.15,1.15,0,0,0,1.15-1.15v-3.71a1.15,1.15,0,0,0-1.15-1.14H208V292.3h54.26a2.09,2.09,0,0,0,2.09-2.08V286.3H205a3,3,0,0,0-3,3V414.12A3,3,0,0,0,205,417.12Z"/><g class="cls-15"><path class="cls-10" d="M202,289.3V414.11a3,3,0,0,0,3,3h58.2a1.14,1.14,0,0,0,1.14-1.14v-3.71a1.15,1.15,0,0,0-1.14-1.15H208V292.3h54.26a2.09,2.09,0,0,0,2.08-2.09V286.3H205A3,3,0,0,0,202,289.3Z"/></g><path class="cls-16" d="M202,289.3v31.83q3,.76,6,1.47V292.3h54.26a2.09,2.09,0,0,0,2.08-2.09V286.3H205A3,3,0,0,0,202,289.3Z"/><path class="cls-9" d="M96.75,400.37l23.86-2.08V367H129v31.33L153,400.37a4.12,4.12,0,0,1,3.72,4.1v3.18H93v-3.18A4.12,4.12,0,0,1,96.75,400.37Z"/><path class="cls-17" d="M96.75,400.37l23.86-2.08V367H129v31.33L153,400.37a4.12,4.12,0,0,1,3.72,4.1v3.18H93v-3.18A4.12,4.12,0,0,1,96.75,400.37Z"/><path class="cls-9" d="M148.94,411.6a5.49,5.49,0,1,0,5.49-5.49A5.48,5.48,0,0,0,148.94,411.6Z"/><path class="cls-9" d="M100.75,411.6a5.49,5.49,0,1,1-5.48-5.49A5.48,5.48,0,0,1,100.75,411.6Z"/><path class="cls-9" d="M122.88,342.66h3.85a3.71,3.71,0,0,1,3.71,3.71v27a0,0,0,0,1,0,0H119.17a0,0,0,0,1,0,0v-27A3.71,3.71,0,0,1,122.88,342.66Z" transform="translate(249.61 716.01) rotate(180)"/><path class="cls-18" d="M122.88,342.66h3.85a3.71,3.71,0,0,1,3.71,3.71v27a0,0,0,0,1,0,0H119.17a0,0,0,0,1,0,0v-27A3.71,3.71,0,0,1,122.88,342.66Z" transform="translate(249.61 716.01) rotate(180)"/><path class="cls-9" d="M100.06,280.66s2.58,51.83,13.74,60.75H101.86s-10.64-17.66-11.43-60.75Z"/><path class="cls-17" d="M100.06,280.66s2.58,51.83,13.74,60.75H101.86s-10.64-17.66-11.43-60.75Z"/><path class="cls-11" d="M99.09,337.11H152a4.49,4.49,0,0,1,4.49,4.49v4.1a0,0,0,0,1,0,0H94.59a0,0,0,0,1,0,0v-4.1A4.49,4.49,0,0,1,99.09,337.11Z"/><rect class="cls-9" x="92.24" y="341.41" width="66.62" height="4.29" rx="1.81"/><rect class="cls-19" x="92.24" y="341.41" width="66.62" height="4.29" rx="1.81"/><path class="cls-11" d="M88.33,292h19.13c5.6,0,9.64-5,9-11.25l-.81-8.28c-.62-6.21-5.65-11.25-11.25-11.25H85.3c-5.6,0-9.64,5-9,11.25l.81,8.28C77.69,287,82.73,292,88.33,292Z"/><g id="_Group_" data-name="&lt;Group&gt;"><path class="cls-20" d="M151.46,247.29l.92,2.82c.32,1,.66,1.92,1,2.88.69,1.9,1.42,3.78,2.2,5.6a51,51,0,0,0,2.53,5.13,16.54,16.54,0,0,0,2.73,3.7,9,9,0,0,0,3.76,1.71,41,41,0,0,0,5.7,1c4,.51,8.26.7,12.41.87l.74,5.6A64.85,64.85,0,0,1,170,278.77a41.64,41.64,0,0,1-7.18-.23,25.36,25.36,0,0,1-3.92-.81,15.21,15.21,0,0,1-2.12-.81,12.26,12.26,0,0,1-2.18-1.27,23.28,23.28,0,0,1-5.68-6.06,47.55,47.55,0,0,1-3.61-6.26,68.93,68.93,0,0,1-2.73-6.37c-.39-1.08-.77-2.16-1.13-3.24s-.67-2.14-1-3.37Z"/><path class="cls-9" d="M146.55,242c3.15,1.08,6,5.61,13.93,23.78,0,0,1.29,2.22,7.72,3.61l-.59,10.2s-9.18-.4-11.31-1.87-14.9-22.48-14.9-22.48Z"/><path class="cls-21" d="M157.18,278.16a4,4,0,0,1-.88-.42c-1.23-.86-6-8.25-9.85-14.33A101.11,101.11,0,0,1,150,253.25S157.32,267.92,157.18,278.16Z"/><path class="cls-22" d="M180.54,271.55l7.17-2.58-.88,9.6s-6.58.84-7.39-2.62Z"/><polygon class="cls-22" points="193.65 270.91 192.55 278.82 186.83 278.57 187.71 268.97 193.65 270.91"/><polygon class="cls-9" points="168.25 268.97 171.91 270.07 170.57 279.99 166.91 280.62 168.25 268.97"/><path class="cls-13" d="M151.74,305.09s48.39,19.09,59.64,27.07S251,393.94,251,393.94l-11.73,9s-33.84-49.14-38-52.47-58-19.86-58-19.86Z"/><polygon class="cls-22" points="253.15 413.19 258.8 407.51 249.56 393.22 243.92 398.9 253.15 413.19"/><polygon class="cls-21" points="243.92 398.9 249.56 393.23 254.84 401.4 249 406.78 243.92 398.9"/><path class="cls-11" d="M259.78,406.89s0,0,.07,0,0,0,0,0a9.88,9.88,0,0,0,1.9-.94,2.13,2.13,0,0,0,1-1.16,1,1,0,0,0-.39-1,.7.7,0,0,0-.65-.2c-.55.13-1.09.91-1.5,1.66a3,3,0,0,0-.46-2,.7.7,0,0,0-.87-.1.88.88,0,0,0-.49.63c-.23,1.08,1.22,2.82,1.29,2.92l.1-.1h0l-.09.11s-.07.11-.07.12A.13.13,0,0,0,259.78,406.89Zm.05-.74c0,.06-.05.12-.07.17-.44-.62-1.09-1.71-.95-2.35a.54.54,0,0,1,.24-.37l.07,0c.24-.12.37-.05.45,0A3.76,3.76,0,0,1,259.83,406.15Zm.34.24c.44-1,1.17-2.3,1.72-2.42a.32.32,0,0,1,.32.1.68.68,0,0,1,.26.62C262.36,405.21,261.51,405.83,260.17,406.39Z"/><path class="cls-9" d="M258.69,406.38l-7.46,5a.56.56,0,0,0-.19.78h0l3.6,6.15a1.41,1.41,0,0,0,1.95.4c2.57-1.79,3.71-2.77,7-5a75.85,75.85,0,0,0,8.57-6.13c2.46-2.29.13-4.66-1.11-3.91-3,1.77-8.08,2.53-10.94,2.32A2.17,2.17,0,0,0,258.69,406.38Z"/><polygon class="cls-11" points="239.82 406.91 254.47 397.16 251.09 390.27 235.22 401.28 239.82 406.91"/><polygon class="cls-23" points="239.82 406.91 254.47 397.16 251.09 390.27 235.22 401.28 239.82 406.91"/><path class="cls-21" d="M222.76,379.28c-9.23-13.09-19.3-27-21.44-28.77-3-2.44-32.65-11.94-48.36-16.86l-1.83-19,5.74-1,.65,1.46s35.86,8.13,46,13.21C210.05,331.53,218.82,363.61,222.76,379.28Z"/><path class="cls-11" d="M220.61,408.79l0,0a.09.09,0,0,0,.07,0,10,10,0,0,0,2.11-.25,2.13,2.13,0,0,0,1.35-.76,1,1,0,0,0,0-1.06.71.71,0,0,0-.55-.41c-.56-.07-1.33.5-2,1.07a2.9,2.9,0,0,0,.21-2,.7.7,0,0,0-.78-.39,1,1,0,0,0-.68.43c-.57.95.22,3.07.26,3.19l.12-.07h0l-.12.08s-.11.08-.1.09Zm.3-.69-.13.14a4.07,4.07,0,0,1-.12-2.54.55.55,0,0,1,.35-.26l.09,0c.26,0,.36.08.4.18A3.73,3.73,0,0,1,220.91,408.1Zm.23.34c.75-.8,1.87-1.78,2.43-1.71a.33.33,0,0,1,.27.2.7.7,0,0,1,0,.67C223.6,408.05,222.6,408.36,221.14,408.44Z"/><polygon class="cls-22" points="212.27 412.53 219.48 409.04 215.19 391.86 207.99 395.35 212.27 412.53"/><polygon class="cls-21" points="207.99 395.35 215.19 391.87 217.64 401.69 210.34 404.82 207.99 395.35"/><path class="cls-9" d="M219.75,407.94l-8.7,2.25a.56.56,0,0,0-.44.67h0l1.36,7a1.42,1.42,0,0,0,1.71,1c3-.84,4.42-1.39,8.24-2.41A74.22,74.22,0,0,0,232,413.54c3.08-1.34,1.67-4.35.25-4.05-3.38.69-8.47-.3-11.09-1.45A2.26,2.26,0,0,0,219.75,407.94Z"/><path class="cls-13" d="M218.7,395.12S206.5,333.91,204,330.27c-4.06-6-52.88-15.67-52.88-15.67l5.73-1L150.23,296l-43.47,1.71s.91,28.72,5.33,36.42,69.81,11.24,74.06,13,17.22,49.77,17.22,49.77Z"/><polygon class="cls-11" points="203.63 402.32 220.69 397.98 219.78 390.36 201.16 395.49 203.63 402.32"/><polygon class="cls-23" points="203.63 402.32 220.69 397.98 219.78 390.36 201.16 395.49 203.63 402.32"/><polygon class="cls-9" points="120.52 298.38 107.92 298.17 107.65 301.98 121.06 302.3 120.52 298.38"/><polygon class="cls-9" points="122.46 298.31 123.01 302.27 151.13 301.87 150.22 298.26 122.46 298.31"/><path class="cls-10" d="M136,299l.36,2.61a1.35,1.35,0,0,0,1.35,1.13l4.5-.14a1,1,0,0,0,1-1.19l-.37-2.62a1.34,1.34,0,0,0-1.35-1.12l-4.49.14A1,1,0,0,0,136,299Z"/><path class="cls-14" d="M107.86,297.61h41.3a2,2,0,0,0,2-1.78c5.1-40-4.64-53.81-4.64-53.81a75.23,75.23,0,0,0-11.32-2.31,147.3,147.3,0,0,0-16.81-.36A79.59,79.59,0,0,0,107,240.48c-2,.87-4.07,9.78-2,37.54.54,7.27.62,13.55.57,17.23A2.33,2.33,0,0,0,107.86,297.61Z"/><polygon class="cls-9" points="140.76 256.17 148.72 256.17 149.32 265.67 145.05 268.44 140.76 266.32 140.76 256.17"/><path class="cls-22" d="M118.8,238.94l13.34,4.55.54-3.82c-1.3-2.28-1.63-3.72-.53-6.37l-8.9-10.23C123.48,228.31,122.53,235.47,118.8,238.94Z"/><path class="cls-10" d="M127.24,245.47l2.62,1.09,2.28,1.43s3.05,17.46,2.2,32.2l2.56,2.1,2.7-2.17s-3.36-27.07-4.57-32.34l.53-1.27,1.23-2.62-2.27-1.19-3.61.79h-2.52Z"/><path class="cls-21" d="M126.87,227.24l5.27,6.06a18.21,18.21,0,0,0-.95,2.87c-2.23-.67-5-3.64-4.87-6.06A8.08,8.08,0,0,1,126.87,227.24Z"/><path class="cls-9" d="M119.63,236.52a63.2,63.2,0,0,0,12,6.25,11.82,11.82,0,0,0,0-5.67l5.89,2.94s.49,4.57-.86,7l-4.33-3.17-4.86,4s-9.2-3.55-10.64-8.37Z"/><path class="cls-21" d="M149.64,272,136,283c-19.58,4.36-28.19-7.85-31.65-15.85a145.73,145.73,0,0,1,.1-17.72c4.7-.22,10.55-.22,12.13,1,2.75,2.11,12.33,16.9,13.76,18S149.64,272,149.64,272Z"/><path class="cls-22" d="M157.4,271.48l7.17-2.59-.88,9.6s-6.58.84-7.39-2.62Z"/><polygon class="cls-22" points="170.5 270.83 169.41 278.74 163.69 278.49 164.57 268.89 170.5 270.83"/><path class="cls-20" d="M115.69,252.11l1.62,3.08c.56,1.05,1.14,2.09,1.73,3.11,1.17,2.06,2.39,4.07,3.65,6a39,39,0,0,0,4,5.13,12.94,12.94,0,0,0,1.87,1.7c.17.14.2.13.25.18a2.23,2.23,0,0,0,.34.16c.15.06.35.11.52.17l.64.15a33.91,33.91,0,0,0,6.52.58c2.35,0,4.76,0,7.2-.15,4.86-.24,9.85-.63,14.74-1.07l1.19,5.52A121.18,121.18,0,0,1,145,280.48c-2.54.5-5.13.86-7.78,1.14a42.12,42.12,0,0,1-8.5.05c-.41-.06-.8-.11-1.21-.19s-.85-.17-1.3-.29a15,15,0,0,1-1.43-.48,13,13,0,0,1-1.43-.67,22.3,22.3,0,0,1-4-2.9,43.49,43.49,0,0,1-5.71-6.38,72.68,72.68,0,0,1-4.45-6.7c-.66-1.14-1.3-2.3-1.92-3.46s-1.21-2.3-1.8-3.62Z"/><path class="cls-9" d="M107,240.48c-12.9,4.65,3.83,36.79,10.87,40.39S136.79,283,136.79,283l.84-11.17s-6.16-.75-8-1.19c-2.93-.7-8.85-13.64-12.84-20.67A22.48,22.48,0,0,0,107,240.48Z"/><polygon class="cls-9" points="135.97 270.99 134.93 283.96 138.63 283.27 139.6 271.68 135.97 270.99"/><path class="cls-9" d="M146.18,212.53c.51,3-.78,8.82-4.53,6.36S145.29,207.39,146.18,212.53Z"/><path class="cls-22" d="M125,213.6c-1.44,7.32-2.66,11.53,0,16.15,4,6.94,13.83,5.88,17.44-.87,3.25-6.09,5.06-17-1.27-21.67A10.29,10.29,0,0,0,125,213.6Z"/><path class="cls-9" d="M121.48,205.53l8.29-.38.22,4.76-.49-.27s-.52,7-4.49,9.33C119.64,214.87,118.06,208.16,121.48,205.53Z"/><path class="cls-22" d="M120.62,218.88a7,7,0,0,0,2.35,4.85c1.87,1.63,3.89.22,4.28-2.1.35-2.09-.2-5.46-2.51-6.2A3.23,3.23,0,0,0,120.62,218.88Z"/><path class="cls-9" d="M135.42,218.37c-.16.59,0,1.14.42,1.24s.82-.3,1-.89,0-1.14-.42-1.23S135.57,217.79,135.42,218.37Z"/><path class="cls-9" d="M142.07,220.05c-.15.58,0,1.14.42,1.23s.83-.3,1-.88,0-1.14-.42-1.24S142.23,219.46,142.07,220.05Z"/><path class="cls-24" d="M139.88,219.81a20.68,20.68,0,0,0,1.6,5.55,3.61,3.61,0,0,1-2.93-.23Z"/><path class="cls-9" d="M134.81,226.58a5.07,5.07,0,0,0,.75.25.19.19,0,0,0,.22-.13.18.18,0,0,0-.13-.22,4.72,4.72,0,0,1-3.32-2.77.19.19,0,0,0-.23-.11.17.17,0,0,0-.11.23A4.9,4.9,0,0,0,134.81,226.58Z"/><path class="cls-9" d="M133.93,215.72a.35.35,0,0,0,.35-.06,2.89,2.89,0,0,1,2.52-.59.35.35,0,0,0,.45-.23.34.34,0,0,0-.22-.44,3.54,3.54,0,0,0-3.19.71.35.35,0,0,0-.06.5A.42.42,0,0,0,133.93,215.72Z"/><path class="cls-9" d="M145.54,218.49a.37.37,0,0,0,.49-.41,3.55,3.55,0,0,0-2-2.56.37.37,0,0,0-.47.2.36.36,0,0,0,.2.46,2.74,2.74,0,0,1,1.54,2A.38.38,0,0,0,145.54,218.49Z"/><path class="cls-9" d="M126.94,211.42a3.56,3.56,0,0,0,.51.36,3.35,3.35,0,0,0,3.2.13c2.06-1,2.71-6.88,8.57-3.89a3.43,3.43,0,0,1,3.52,1.24c1.51,1.85.47,8.6,3.69,7.67s2.66-1.93,2.66-1.93-.9.57-1.43.12a3,3,0,0,0,.87-3.37s-.78.93-1.3.75a13.65,13.65,0,0,0-.89-8.11c-1.87-4.66-13.31-3.62-13.31-3.62s-1.44-2.41-6.61-.73-7.53,7.91-6.71,10.62"/></g><polygon class="cls-9" points="195.2 277.74 194.46 274.95 164.13 274.95 150.17 276.34 149.64 277.74 195.2 277.74"/><polygon class="cls-25" points="195.2 277.74 194.46 274.95 164.13 274.95 150.17 276.34 149.64 277.74 195.2 277.74"/><polygon class="cls-21" points="164.13 274.95 164.13 277.74 195.2 277.74 194.46 274.95 164.13 274.95"/><path class="cls-9" d="M174.39,261.59a2.39,2.39,0,0,0,2.41,2.67h46.46a3,3,0,0,0,2.91-2.67l2.76-29.74a2.69,2.69,0,0,0-.06-.86,2.37,2.37,0,0,0-2.35-1.81H180.06a3,3,0,0,0-2.91,2.67Z"/><path class="cls-25" d="M174.39,261.59a2.39,2.39,0,0,0,2.41,2.67h46.46a3,3,0,0,0,2.91-2.67l2.76-29.74a2.69,2.69,0,0,0-.06-.86,2.37,2.37,0,0,0-2.35-1.81H180.06a3,3,0,0,0-2.91,2.67Z"/><path class="cls-26" d="M177,264.26h46.29a3,3,0,0,0,2.91-2.67l2.76-29.74a2.69,2.69,0,0,0-.06-.86h-46.3a3,3,0,0,0-2.9,2.67l-2.76,29.74A2.43,2.43,0,0,0,177,264.26Z"/><polygon class="cls-9" points="208.88 246.02 199.27 246.02 201.83 273.54 186.64 275.82 186.64 277.74 218.65 277.74 218.65 275.82 212.09 273.54 208.88 246.02"/><polygon class="cls-25" points="208.88 246.02 199.27 246.02 201.83 273.54 186.64 275.82 186.64 277.74 218.65 277.74 218.65 275.82 212.09 273.54 208.88 246.02"/><polygon class="cls-18" points="199.27 246.02 206.39 277.3 212.09 277.13 208.88 246.02 199.27 246.02"/><path class="cls-9" d="M119.94,417.12h58.2a1.14,1.14,0,0,0,1.14-1.15v-3.71a1.14,1.14,0,0,0-1.14-1.14h-55.2V292.3H177.2a2.08,2.08,0,0,0,2.08-2.08V286.3H119.94a3,3,0,0,0-3,3V414.12A3,3,0,0,0,119.94,417.12Z"/><g class="cls-27"><path class="cls-10" d="M119.94,417.12h58.2a1.14,1.14,0,0,0,1.14-1.15v-3.71a1.14,1.14,0,0,0-1.14-1.14h-55.2V292.3H177.2a2.08,2.08,0,0,0,2.08-2.08V286.3H119.94a3,3,0,0,0-3,3V414.12A3,3,0,0,0,119.94,417.12Z"/></g><path class="cls-13" d="M112.49,280.62H265.91a1.94,1.94,0,0,1,1.94,1.94v4.72a0,0,0,0,1,0,0H110.55a0,0,0,0,1,0,0v-4.73A1.94,1.94,0,0,1,112.49,280.62Z" transform="translate(378.39 567.92) rotate(180)"/><rect class="cls-21" x="110.55" y="280.62" width="157.3" height="3.33" transform="translate(378.39 564.58) rotate(180)"/><path class="cls-13" d="M107.25,281.49h163.9a1.88,1.88,0,0,0,1.88-1.87h0a1.88,1.88,0,0,0-1.88-1.88H107.25a1.88,1.88,0,0,0-1.88,1.88h0A1.88,1.88,0,0,0,107.25,281.49Z"/></g></svg>