<svg id="Calque_1" data-name="Calque 1" xmlns="http://www.w3.org/2000/svg" viewBox="0 0 94.93 55.72"><defs><style>.cls-1{fill:#7b2cbf;}</style></defs><path class="cls-1" d="M51.71,49.32c-16.16-.4-28.1-5-38.11-14.42-2.11-2-4.1-4.08-6.16-6.11-1-1-1.44-1.94-.32-3.15,8.1-8.85,17.16-16.23,29.19-19,6.06-1.4,12.2-2.46,18.4-1.4A74.08,74.08,0,0,1,69.12,9c8.77,3.37,15.19,9.42,21.59,15.76,1.66,1.65,1.91,2.8.09,4.72C83.33,37.3,75.16,44.06,64.46,46.88,59.51,48.18,54.38,48.83,51.71,49.32Zm36.6-22.25C65.05-.49,28.22,4.25,10.56,27.3c10.22,12,23.12,18.42,39,18.61C65.6,46.1,78,38.74,88.31,27.07Z"/><path class="cls-1" d="M49.52,11c8.4-.14,16.13,7.69,15.94,16.24A16.15,16.15,0,0,1,49.23,43.08,15.91,15.91,0,0,1,33.37,26.76,15.89,15.89,0,0,1,49.52,11Zm-.13,28.81c6.93.28,12.65-5.71,12.79-12.45A12.81,12.81,0,0,0,49.69,14.28a12.77,12.77,0,1,0-.3,25.54Z"/></svg>