<svg width="877" height="654" viewBox="0 0 877 654" fill="none" xmlns="http://www.w3.org/2000/svg">
<path d="M877 574.73H0V575.168H877V574.73Z" fill="#EBEBEB"/>
<path d="M789.125 602.952H731.032V603.39H789.125V602.952Z" fill="#EBEBEB"/>
<path d="M580.96 607.723H565.718V608.161H580.96V607.723Z" fill="#EBEBEB"/>
<path d="M729.278 586.674H695.619V587.113H729.278V586.674Z" fill="#EBEBEB"/>
<path d="M167.77 589.621H92.0149V590.06H167.77V589.621Z" fill="#EBEBEB"/>
<path d="M194.501 589.621H183.398V590.06H194.501V589.621Z" fill="#EBEBEB"/>
<path d="M394.913 597.023H230.598V597.462H394.913V597.023Z" fill="#EBEBEB"/>
<path d="M415.698 496.501H77.0181C74.3649 496.497 71.8219 495.44 69.9475 493.562C68.073 491.684 67.0203 489.139 67.0203 486.486V10.3979C67.0434 7.75988 68.1063 5.23755 69.9783 3.37873C71.8502 1.51991 74.38 0.474734 77.0181 0.470215H415.698C418.354 0.470215 420.902 1.5254 422.78 3.40364C424.658 5.28188 425.713 7.82932 425.713 10.4856V486.486C425.713 489.142 424.658 491.69 422.78 493.568C420.902 495.446 418.354 496.501 415.698 496.501V496.501ZM77.0181 0.821016C74.4812 0.825663 72.0498 1.8367 70.2576 3.6322C68.4653 5.4277 67.4588 7.86096 67.4588 10.3979V486.486C67.4588 489.023 68.4653 491.456 70.2576 493.252C72.0498 495.047 74.4812 496.058 77.0181 496.063H415.698C418.236 496.058 420.67 495.048 422.465 493.253C424.26 491.458 425.27 489.025 425.275 486.486V10.3979C425.27 7.85934 424.26 5.42613 422.465 3.63113C420.67 1.83613 418.236 0.825653 415.698 0.821016H77.0181Z" fill="#EBEBEB"/>
<path d="M795.106 496.501H456.408C453.754 496.497 451.209 495.44 449.332 493.563C447.454 491.686 446.398 489.141 446.393 486.486V10.3979C446.421 7.75828 447.488 5.23597 449.362 3.37763C451.237 1.5193 453.769 0.474685 456.408 0.470215H795.106C797.741 0.479344 800.266 1.52656 802.134 3.38489C804.002 5.24321 805.063 7.76291 805.086 10.3979V486.486C805.086 489.136 804.036 491.678 802.165 493.556C800.294 495.433 797.756 496.492 795.106 496.501V496.501ZM456.408 0.821016C453.87 0.825653 451.437 1.83613 449.642 3.63113C447.847 5.42613 446.836 7.85934 446.832 10.3979V486.486C446.836 489.025 447.847 491.458 449.642 493.253C451.437 495.048 453.87 496.058 456.408 496.063H795.106C797.644 496.058 800.078 495.048 801.873 493.253C803.668 491.458 804.678 489.025 804.683 486.486V10.3979C804.678 7.85934 803.668 5.42613 801.873 3.63113C800.078 1.83613 797.644 0.825653 795.106 0.821016H456.408Z" fill="#EBEBEB"/>
<path d="M436.5 84.0835H139.162V417.203H436.5V84.0835Z" fill="#EBEBEB"/>
<path d="M436.5 89.4683H145.003V411.31H436.5V89.4683Z" fill="#FAFAFA"/>
<path d="M155.773 260.29V237.681H162.227V222.597H170.84V199.988H172.997V222.597H181.609V237.681H188.064V260.29H199.921V266.745H205.306V291.511H206.376V255.975H209.603V278.584H212.83V224.754H214.988V247.363H223.6V239.838H226.827V208.6H233.3V177.378H235.457V181.676H279.605V168.766H287.13V119.233H290.375V168.766H301.144V181.676H305.442V246.293H328.051V226.911H320.526V223.684H328.051V218.299H349.59V168.766H354.975V161.224H380.811V168.766H384.056V237.681H395.895V268.902H402.35V244.136H407.735V237.681H419.592V215.054H426.047V199.988H433.571V177.378H436.5V411.31H145.003V260.29H155.773Z" fill="#F0F0F0"/>
<path d="M263.118 185.061H260.066V188.113H263.118V185.061Z" fill="#FAFAFA"/>
<path d="M263.118 190.166H260.066V193.217H263.118V190.166Z" fill="#FAFAFA"/>
<path d="M263.118 210.634H260.066V213.686H263.118V210.634Z" fill="#FAFAFA"/>
<path d="M263.118 215.739H260.066V218.791H263.118V215.739Z" fill="#FAFAFA"/>
<path d="M263.118 220.86H260.066V223.912H263.118V220.86Z" fill="#FAFAFA"/>
<path d="M263.118 236.208H260.066V239.26H263.118V236.208Z" fill="#FAFAFA"/>
<path d="M263.118 241.312H260.066V244.364H263.118V241.312Z" fill="#FAFAFA"/>
<path d="M267.959 205.513H264.907V208.565H267.959V205.513Z" fill="#FAFAFA"/>
<path d="M267.959 210.634H264.907V213.686H267.959V210.634Z" fill="#FAFAFA"/>
<path d="M267.959 215.739H264.907V218.791H267.959V215.739Z" fill="#FAFAFA"/>
<path d="M267.959 220.86H264.907V223.912H267.959V220.86Z" fill="#FAFAFA"/>
<path d="M267.959 225.982H264.907V229.034H267.959V225.982Z" fill="#FAFAFA"/>
<path d="M267.959 236.208H264.907V239.26H267.959V236.208Z" fill="#FAFAFA"/>
<path d="M267.959 241.312H264.907V244.364H267.959V241.312Z" fill="#FAFAFA"/>
<path d="M272.8 185.061H269.748V188.113H272.8V185.061Z" fill="#FAFAFA"/>
<path d="M272.8 190.166H269.748V193.217H272.8V190.166Z" fill="#FAFAFA"/>
<path d="M272.8 195.287H269.748V198.339H272.8V195.287Z" fill="#FAFAFA"/>
<path d="M272.8 200.409H269.748V203.461H272.8V200.409Z" fill="#FAFAFA"/>
<path d="M272.8 205.513H269.748V208.565H272.8V205.513Z" fill="#FAFAFA"/>
<path d="M272.8 210.634H269.748V213.686H272.8V210.634Z" fill="#FAFAFA"/>
<path d="M272.8 215.739H269.748V218.791H272.8V215.739Z" fill="#FAFAFA"/>
<path d="M272.8 220.86H269.748V223.912H272.8V220.86Z" fill="#FAFAFA"/>
<path d="M272.8 225.982H269.748V229.034H272.8V225.982Z" fill="#FAFAFA"/>
<path d="M272.8 231.086H269.748V234.138H272.8V231.086Z" fill="#FAFAFA"/>
<path d="M272.8 241.312H269.748V244.364H272.8V241.312Z" fill="#FAFAFA"/>
<path d="M277.658 185.061H274.606V188.113H277.658V185.061Z" fill="#FAFAFA"/>
<path d="M277.658 190.166H274.606V193.217H277.658V190.166Z" fill="#FAFAFA"/>
<path d="M277.658 195.287H274.606V198.339H277.658V195.287Z" fill="#FAFAFA"/>
<path d="M277.658 200.409H274.606V203.461H277.658V200.409Z" fill="#FAFAFA"/>
<path d="M277.658 205.513H274.606V208.565H277.658V205.513Z" fill="#FAFAFA"/>
<path d="M277.658 210.634H274.606V213.686H277.658V210.634Z" fill="#FAFAFA"/>
<path d="M277.658 215.739H274.606V218.791H277.658V215.739Z" fill="#FAFAFA"/>
<path d="M277.658 261.781H274.606V264.833H277.658V261.781Z" fill="#FAFAFA"/>
<path d="M282.499 185.061H279.447V188.113H282.499V185.061Z" fill="#FAFAFA"/>
<path d="M282.499 190.166H279.447V193.217H282.499V190.166Z" fill="#FAFAFA"/>
<path d="M282.499 195.287H279.447V198.339H282.499V195.287Z" fill="#FAFAFA"/>
<path d="M282.499 200.409H279.447V203.461H282.499V200.409Z" fill="#FAFAFA"/>
<path d="M282.499 205.513H279.447V208.565H282.499V205.513Z" fill="#FAFAFA"/>
<path d="M282.499 210.634H279.447V213.686H282.499V210.634Z" fill="#FAFAFA"/>
<path d="M282.499 215.739H279.447V218.791H282.499V215.739Z" fill="#FAFAFA"/>
<path d="M282.499 220.86H279.447V223.912H282.499V220.86Z" fill="#FAFAFA"/>
<path d="M282.499 251.555H279.447V254.607H282.499V251.555Z" fill="#FAFAFA"/>
<path d="M282.499 256.659H279.447V259.711H282.499V256.659Z" fill="#FAFAFA"/>
<path d="M282.499 261.781H279.447V264.833H282.499V261.781Z" fill="#FAFAFA"/>
<path d="M282.499 266.903H279.447V269.955H282.499V266.903Z" fill="#FAFAFA"/>
<path d="M282.499 287.354H279.447V290.406H282.499V287.354Z" fill="#FAFAFA"/>
<path d="M287.34 185.061H284.288V188.113H287.34V185.061Z" fill="#FAFAFA"/>
<path d="M287.34 190.166H284.288V193.217H287.34V190.166Z" fill="#FAFAFA"/>
<path d="M287.34 195.287H284.288V198.339H287.34V195.287Z" fill="#FAFAFA"/>
<path d="M287.34 200.409H284.288V203.461H287.34V200.409Z" fill="#FAFAFA"/>
<path d="M287.34 205.513H284.288V208.565H287.34V205.513Z" fill="#FAFAFA"/>
<path d="M287.34 210.634H284.288V213.686H287.34V210.634Z" fill="#FAFAFA"/>
<path d="M287.34 215.739H284.288V218.791H287.34V215.739Z" fill="#FAFAFA"/>
<path d="M287.34 220.86H284.288V223.912H287.34V220.86Z" fill="#FAFAFA"/>
<path d="M287.34 225.982H284.288V229.034H287.34V225.982Z" fill="#FAFAFA"/>
<path d="M287.34 231.086H284.288V234.138H287.34V231.086Z" fill="#FAFAFA"/>
<path d="M287.34 246.434H284.288V249.486H287.34V246.434Z" fill="#FAFAFA"/>
<path d="M287.34 251.555H284.288V254.607H287.34V251.555Z" fill="#FAFAFA"/>
<path d="M287.34 256.659H284.288V259.711H287.34V256.659Z" fill="#FAFAFA"/>
<path d="M287.34 261.781H284.288V264.833H287.34V261.781Z" fill="#FAFAFA"/>
<path d="M287.34 266.903H284.288V269.955H287.34V266.903Z" fill="#FAFAFA"/>
<path d="M287.34 287.354H284.288V290.406H287.34V287.354Z" fill="#FAFAFA"/>
<path d="M292.181 185.061H289.129V188.113H292.181V185.061Z" fill="#FAFAFA"/>
<path d="M292.181 190.166H289.129V193.217H292.181V190.166Z" fill="#FAFAFA"/>
<path d="M292.181 195.287H289.129V198.339H292.181V195.287Z" fill="#FAFAFA"/>
<path d="M292.181 200.409H289.129V203.461H292.181V200.409Z" fill="#FAFAFA"/>
<path d="M292.181 205.513H289.129V208.565H292.181V205.513Z" fill="#FAFAFA"/>
<path d="M292.181 210.634H289.129V213.686H292.181V210.634Z" fill="#FAFAFA"/>
<path d="M292.181 215.739H289.129V218.791H292.181V215.739Z" fill="#FAFAFA"/>
<path d="M292.181 220.86H289.129V223.912H292.181V220.86Z" fill="#FAFAFA"/>
<path d="M292.181 225.982H289.129V229.034H292.181V225.982Z" fill="#FAFAFA"/>
<path d="M292.181 231.086H289.129V234.138H292.181V231.086Z" fill="#FAFAFA"/>
<path d="M292.181 236.208H289.129V239.26H292.181V236.208Z" fill="#FAFAFA"/>
<path d="M292.181 241.312H289.129V244.364H292.181V241.312Z" fill="#FAFAFA"/>
<path d="M292.181 246.434H289.129V249.486H292.181V246.434Z" fill="#FAFAFA"/>
<path d="M292.181 251.555H289.129V254.607H292.181V251.555Z" fill="#FAFAFA"/>
<path d="M292.181 256.659H289.129V259.711H292.181V256.659Z" fill="#FAFAFA"/>
<path d="M292.181 261.781H289.129V264.833H292.181V261.781Z" fill="#FAFAFA"/>
<path d="M292.181 266.903H289.129V269.955H292.181V266.903Z" fill="#FAFAFA"/>
<path d="M292.181 272.007H289.129V275.059H292.181V272.007Z" fill="#FAFAFA"/>
<path d="M297.04 185.061H293.988V188.113H297.04V185.061Z" fill="#FAFAFA"/>
<path d="M297.04 190.166H293.988V193.217H297.04V190.166Z" fill="#FAFAFA"/>
<path d="M297.04 195.287H293.988V198.339H297.04V195.287Z" fill="#FAFAFA"/>
<path d="M297.04 200.409H293.988V203.461H297.04V200.409Z" fill="#FAFAFA"/>
<path d="M297.04 205.513H293.988V208.565H297.04V205.513Z" fill="#FAFAFA"/>
<path d="M297.04 210.634H293.988V213.686H297.04V210.634Z" fill="#FAFAFA"/>
<path d="M297.04 215.739H293.988V218.791H297.04V215.739Z" fill="#FAFAFA"/>
<path d="M297.04 220.86H293.988V223.912H297.04V220.86Z" fill="#FAFAFA"/>
<path d="M297.04 225.982H293.988V229.034H297.04V225.982Z" fill="#FAFAFA"/>
<path d="M297.04 231.086H293.988V234.138H297.04V231.086Z" fill="#FAFAFA"/>
<path d="M297.04 246.434H293.988V249.486H297.04V246.434Z" fill="#FAFAFA"/>
<path d="M297.04 251.555H293.988V254.607H297.04V251.555Z" fill="#FAFAFA"/>
<path d="M297.04 256.659H293.988V259.711H297.04V256.659Z" fill="#FAFAFA"/>
<path d="M297.04 261.781H293.988V264.833H297.04V261.781Z" fill="#FAFAFA"/>
<path d="M301.881 185.061H298.829V188.113H301.881V185.061Z" fill="#FAFAFA"/>
<path d="M301.881 190.166H298.829V193.217H301.881V190.166Z" fill="#FAFAFA"/>
<path d="M301.881 195.287H298.829V198.339H301.881V195.287Z" fill="#FAFAFA"/>
<path d="M301.881 200.409H298.829V203.461H301.881V200.409Z" fill="#FAFAFA"/>
<path d="M301.881 205.513H298.829V208.565H301.881V205.513Z" fill="#FAFAFA"/>
<path d="M301.881 210.634H298.829V213.686H301.881V210.634Z" fill="#FAFAFA"/>
<path d="M301.881 215.739H298.829V218.791H301.881V215.739Z" fill="#FAFAFA"/>
<path d="M301.881 220.86H298.829V223.912H301.881V220.86Z" fill="#FAFAFA"/>
<path d="M301.881 225.982H298.829V229.034H301.881V225.982Z" fill="#FAFAFA"/>
<path d="M301.881 231.086H298.829V234.138H301.881V231.086Z" fill="#FAFAFA"/>
<path d="M301.881 246.434H298.829V249.486H301.881V246.434Z" fill="#FAFAFA"/>
<path d="M301.881 251.555H298.829V254.607H301.881V251.555Z" fill="#FAFAFA"/>
<path d="M301.881 256.659H298.829V259.711H301.881V256.659Z" fill="#FAFAFA"/>
<path d="M356.43 171.783H353.378V174.835H356.43V171.783Z" fill="#FAFAFA"/>
<path d="M356.43 176.888H353.378V179.94H356.43V176.888Z" fill="#FAFAFA"/>
<path d="M356.43 182.009H353.378V185.061H356.43V182.009Z" fill="#FAFAFA"/>
<path d="M356.43 187.113H353.378V190.165H356.43V187.113Z" fill="#FAFAFA"/>
<path d="M356.43 192.235H353.378V195.287H356.43V192.235Z" fill="#FAFAFA"/>
<path d="M356.43 197.357H353.378V200.409H356.43V197.357Z" fill="#FAFAFA"/>
<path d="M356.43 202.461H353.378V205.513H356.43V202.461Z" fill="#FAFAFA"/>
<path d="M356.43 207.583H353.378V210.634H356.43V207.583Z" fill="#FAFAFA"/>
<path d="M356.43 222.93H353.378V225.982H356.43V222.93Z" fill="#FAFAFA"/>
<path d="M356.43 228.034H353.378V231.086H356.43V228.034Z" fill="#FAFAFA"/>
<path d="M361.289 171.783H358.237V174.835H361.289V171.783Z" fill="#FAFAFA"/>
<path d="M361.289 176.888H358.237V179.94H361.289V176.888Z" fill="#FAFAFA"/>
<path d="M361.289 182.009H358.237V185.061H361.289V182.009Z" fill="#FAFAFA"/>
<path d="M361.289 187.113H358.237V190.165H361.289V187.113Z" fill="#FAFAFA"/>
<path d="M361.289 192.235H358.237V195.287H361.289V192.235Z" fill="#FAFAFA"/>
<path d="M361.289 197.357H358.237V200.409H361.289V197.357Z" fill="#FAFAFA"/>
<path d="M361.289 202.461H358.237V205.513H361.289V202.461Z" fill="#FAFAFA"/>
<path d="M361.289 207.583H358.237V210.634H361.289V207.583Z" fill="#FAFAFA"/>
<path d="M361.289 228.034H358.237V231.086H361.289V228.034Z" fill="#FAFAFA"/>
<path d="M366.13 171.783H363.078V174.835H366.13V171.783Z" fill="#FAFAFA"/>
<path d="M366.13 176.888H363.078V179.94H366.13V176.888Z" fill="#FAFAFA"/>
<path d="M366.13 182.009H363.078V185.061H366.13V182.009Z" fill="#FAFAFA"/>
<path d="M366.13 187.113H363.078V190.165H366.13V187.113Z" fill="#FAFAFA"/>
<path d="M366.13 192.235H363.078V195.287H366.13V192.235Z" fill="#FAFAFA"/>
<path d="M366.13 197.357H363.078V200.409H366.13V197.357Z" fill="#FAFAFA"/>
<path d="M366.13 202.461H363.078V205.513H366.13V202.461Z" fill="#FAFAFA"/>
<path d="M366.13 207.583H363.078V210.634H366.13V207.583Z" fill="#FAFAFA"/>
<path d="M370.971 171.783H367.919V174.835H370.971V171.783Z" fill="#FAFAFA"/>
<path d="M370.971 176.888H367.919V179.94H370.971V176.888Z" fill="#FAFAFA"/>
<path d="M370.971 182.009H367.919V185.061H370.971V182.009Z" fill="#FAFAFA"/>
<path d="M370.971 187.113H367.919V190.165H370.971V187.113Z" fill="#FAFAFA"/>
<path d="M370.971 192.235H367.919V195.287H370.971V192.235Z" fill="#FAFAFA"/>
<path d="M370.971 197.357H367.919V200.409H370.971V197.357Z" fill="#FAFAFA"/>
<path d="M370.971 207.583H367.919V210.634H370.971V207.583Z" fill="#FAFAFA"/>
<path d="M370.971 212.704H367.919V215.756H370.971V212.704Z" fill="#FAFAFA"/>
<path d="M370.971 228.034H367.919V231.086H370.971V228.034Z" fill="#FAFAFA"/>
<path d="M370.971 233.156H367.919V236.208H370.971V233.156Z" fill="#FAFAFA"/>
<path d="M370.971 238.277H367.919V241.329H370.971V238.277Z" fill="#FAFAFA"/>
<path d="M370.971 243.382H367.919V246.434H370.971V243.382Z" fill="#FAFAFA"/>
<path d="M370.971 248.503H367.919V251.555H370.971V248.503Z" fill="#FAFAFA"/>
<path d="M370.971 253.607H367.919V256.659H370.971V253.607Z" fill="#FAFAFA"/>
<path d="M370.971 258.729H367.919V261.781H370.971V258.729Z" fill="#FAFAFA"/>
<path d="M375.812 171.783H372.76V174.835H375.812V171.783Z" fill="#FAFAFA"/>
<path d="M375.812 176.888H372.76V179.94H375.812V176.888Z" fill="#FAFAFA"/>
<path d="M375.812 182.009H372.76V185.061H375.812V182.009Z" fill="#FAFAFA"/>
<path d="M375.812 187.113H372.76V190.165H375.812V187.113Z" fill="#FAFAFA"/>
<path d="M375.812 192.235H372.76V195.287H375.812V192.235Z" fill="#FAFAFA"/>
<path d="M375.812 197.357H372.76V200.409H375.812V197.357Z" fill="#FAFAFA"/>
<path d="M375.812 212.704H372.76V215.756H375.812V212.704Z" fill="#FAFAFA"/>
<path d="M375.812 217.809H372.76V220.861H375.812V217.809Z" fill="#FAFAFA"/>
<path d="M375.812 222.93H372.76V225.982H375.812V222.93Z" fill="#FAFAFA"/>
<path d="M375.812 228.034H372.76V231.086H375.812V228.034Z" fill="#FAFAFA"/>
<path d="M375.812 233.156H372.76V236.208H375.812V233.156Z" fill="#FAFAFA"/>
<path d="M375.812 238.277H372.76V241.329H375.812V238.277Z" fill="#FAFAFA"/>
<path d="M375.812 243.382H372.76V246.434H375.812V243.382Z" fill="#FAFAFA"/>
<path d="M375.812 248.503H372.76V251.555H375.812V248.503Z" fill="#FAFAFA"/>
<path d="M375.812 253.607H372.76V256.659H375.812V253.607Z" fill="#FAFAFA"/>
<path d="M375.812 258.729H372.76V261.781H375.812V258.729Z" fill="#FAFAFA"/>
<path d="M375.812 263.851H372.76V266.903H375.812V263.851Z" fill="#FAFAFA"/>
<path d="M375.812 274.077H372.76V277.129H375.812V274.077Z" fill="#FAFAFA"/>
<path d="M380.671 171.783H377.619V174.835H380.671V171.783Z" fill="#FAFAFA"/>
<path d="M380.671 176.888H377.619V179.94H380.671V176.888Z" fill="#FAFAFA"/>
<path d="M380.671 182.009H377.619V185.061H380.671V182.009Z" fill="#FAFAFA"/>
<path d="M380.671 187.113H377.619V190.165H380.671V187.113Z" fill="#FAFAFA"/>
<path d="M380.671 192.235H377.619V195.287H380.671V192.235Z" fill="#FAFAFA"/>
<path d="M380.671 197.357H377.619V200.409H380.671V197.357Z" fill="#FAFAFA"/>
<path d="M380.671 212.704H377.619V215.756H380.671V212.704Z" fill="#FAFAFA"/>
<path d="M380.671 217.809H377.619V220.861H380.671V217.809Z" fill="#FAFAFA"/>
<path d="M380.671 222.93H377.619V225.982H380.671V222.93Z" fill="#FAFAFA"/>
<path d="M380.671 228.034H377.619V231.086H380.671V228.034Z" fill="#FAFAFA"/>
<path d="M380.671 243.382H377.619V246.434H380.671V243.382Z" fill="#FAFAFA"/>
<path d="M380.671 248.503H377.619V251.555H380.671V248.503Z" fill="#FAFAFA"/>
<path d="M380.671 253.607H377.619V256.659H380.671V253.607Z" fill="#FAFAFA"/>
<path d="M380.671 258.729H377.619V261.781H380.671V258.729Z" fill="#FAFAFA"/>
<path d="M380.671 263.851H377.619V266.903H380.671V263.851Z" fill="#FAFAFA"/>
<path d="M380.671 274.077H377.619V277.129H380.671V274.077Z" fill="#FAFAFA"/>
<path d="M380.671 279.181H377.619V282.233H380.671V279.181Z" fill="#FAFAFA"/>
<path d="M424.626 219.334H421.574V222.386H424.626V219.334Z" fill="#FAFAFA"/>
<path d="M424.626 224.456H421.574V227.508H424.626V224.456Z" fill="#FAFAFA"/>
<path d="M424.626 229.56H421.574V232.612H424.626V229.56Z" fill="#FAFAFA"/>
<path d="M424.626 234.682H421.574V237.734H424.626V234.682Z" fill="#FAFAFA"/>
<path d="M424.626 239.804H421.574V242.856H424.626V239.804Z" fill="#FAFAFA"/>
<path d="M424.626 244.908H421.574V247.96H424.626V244.908Z" fill="#FAFAFA"/>
<path d="M424.626 250.029H421.574V253.081H424.626V250.029Z" fill="#FAFAFA"/>
<path d="M424.626 265.377H421.574V268.429H424.626V265.377Z" fill="#FAFAFA"/>
<path d="M424.626 270.481H421.574V273.533H424.626V270.481Z" fill="#FAFAFA"/>
<path d="M424.626 275.603H421.574V278.655H424.626V275.603Z" fill="#FAFAFA"/>
<path d="M429.484 219.334H426.432V222.386H429.484V219.334Z" fill="#FAFAFA"/>
<path d="M429.484 224.456H426.432V227.508H429.484V224.456Z" fill="#FAFAFA"/>
<path d="M429.484 229.56H426.432V232.612H429.484V229.56Z" fill="#FAFAFA"/>
<path d="M429.484 234.682H426.432V237.734H429.484V234.682Z" fill="#FAFAFA"/>
<path d="M429.484 239.804H426.432V242.856H429.484V239.804Z" fill="#FAFAFA"/>
<path d="M429.484 244.908H426.432V247.96H429.484V244.908Z" fill="#FAFAFA"/>
<path d="M429.484 250.029H426.432V253.081H429.484V250.029Z" fill="#FAFAFA"/>
<path d="M435.658 219.334H431.273V222.386H435.658V219.334Z" fill="#FAFAFA"/>
<path d="M435.658 224.456H431.273V227.508H435.658V224.456Z" fill="#FAFAFA"/>
<path d="M435.658 229.56H431.273V232.612H435.658V229.56Z" fill="#FAFAFA"/>
<path d="M435.658 234.682H431.273V237.734H435.658V234.682Z" fill="#FAFAFA"/>
<path d="M435.658 239.804H431.273V242.856H435.658V239.804Z" fill="#FAFAFA"/>
<path d="M435.658 244.908H431.273V247.96H435.658V244.908Z" fill="#FAFAFA"/>
<path d="M435.658 250.029H431.273V253.081H435.658V250.029Z" fill="#FAFAFA"/>
<path d="M167.823 225.982H164.771V229.034H167.823V225.982Z" fill="#FAFAFA"/>
<path d="M167.823 231.086H164.771V234.138H167.823V231.086Z" fill="#FAFAFA"/>
<path d="M167.823 236.208H164.771V239.26H167.823V236.208Z" fill="#FAFAFA"/>
<path d="M167.823 241.312H164.771V244.364H167.823V241.312Z" fill="#FAFAFA"/>
<path d="M167.823 246.434H164.771V249.486H167.823V246.434Z" fill="#FAFAFA"/>
<path d="M167.823 251.555H164.771V254.607H167.823V251.555Z" fill="#FAFAFA"/>
<path d="M167.823 256.659H164.771V259.711H167.823V256.659Z" fill="#FAFAFA"/>
<path d="M167.823 261.781H164.771V264.833H167.823V261.781Z" fill="#FAFAFA"/>
<path d="M167.823 266.903H164.771V269.955H167.823V266.903Z" fill="#FAFAFA"/>
<path d="M167.823 272.007H164.771V275.059H167.823V272.007Z" fill="#FAFAFA"/>
<path d="M167.823 277.128H164.771V280.18H167.823V277.128Z" fill="#FAFAFA"/>
<path d="M167.823 282.233H164.771V285.285H167.823V282.233Z" fill="#FAFAFA"/>
<path d="M167.823 287.354H164.771V290.406H167.823V287.354Z" fill="#FAFAFA"/>
<path d="M167.823 292.476H164.771V295.528H167.823V292.476Z" fill="#FAFAFA"/>
<path d="M167.823 297.58H164.771V300.632H167.823V297.58Z" fill="#FAFAFA"/>
<path d="M167.823 302.702H164.771V305.754H167.823V302.702Z" fill="#FAFAFA"/>
<path d="M167.823 307.806H164.771V310.858H167.823V307.806Z" fill="#FAFAFA"/>
<path d="M167.823 312.928H164.771V315.98H167.823V312.928Z" fill="#FAFAFA"/>
<path d="M167.823 318.049H164.771V321.101H167.823V318.049Z" fill="#FAFAFA"/>
<path d="M167.823 323.154H164.771V326.206H167.823V323.154Z" fill="#FAFAFA"/>
<path d="M172.664 225.982H169.612V229.034H172.664V225.982Z" fill="#FAFAFA"/>
<path d="M172.664 231.086H169.612V234.138H172.664V231.086Z" fill="#FAFAFA"/>
<path d="M172.664 236.208H169.612V239.26H172.664V236.208Z" fill="#FAFAFA"/>
<path d="M172.664 241.312H169.612V244.364H172.664V241.312Z" fill="#FAFAFA"/>
<path d="M172.664 246.434H169.612V249.486H172.664V246.434Z" fill="#FAFAFA"/>
<path d="M172.664 251.555H169.612V254.607H172.664V251.555Z" fill="#FAFAFA"/>
<path d="M172.664 256.659H169.612V259.711H172.664V256.659Z" fill="#FAFAFA"/>
<path d="M172.664 261.781H169.612V264.833H172.664V261.781Z" fill="#FAFAFA"/>
<path d="M172.664 266.903H169.612V269.955H172.664V266.903Z" fill="#FAFAFA"/>
<path d="M172.664 272.007H169.612V275.059H172.664V272.007Z" fill="#FAFAFA"/>
<path d="M172.664 277.128H169.612V280.18H172.664V277.128Z" fill="#FAFAFA"/>
<path d="M172.664 282.233H169.612V285.285H172.664V282.233Z" fill="#FAFAFA"/>
<path d="M172.664 287.354H169.612V290.406H172.664V287.354Z" fill="#FAFAFA"/>
<path d="M172.664 292.476H169.612V295.528H172.664V292.476Z" fill="#FAFAFA"/>
<path d="M172.664 297.58H169.612V300.632H172.664V297.58Z" fill="#FAFAFA"/>
<path d="M172.664 302.702H169.612V305.754H172.664V302.702Z" fill="#FAFAFA"/>
<path d="M172.664 307.806H169.612V310.858H172.664V307.806Z" fill="#FAFAFA"/>
<path d="M172.664 312.928H169.612V315.98H172.664V312.928Z" fill="#FAFAFA"/>
<path d="M177.505 225.982H174.453V229.034H177.505V225.982Z" fill="#FAFAFA"/>
<path d="M177.505 231.086H174.453V234.138H177.505V231.086Z" fill="#FAFAFA"/>
<path d="M177.505 236.208H174.453V239.26H177.505V236.208Z" fill="#FAFAFA"/>
<path d="M177.505 241.312H174.453V244.364H177.505V241.312Z" fill="#FAFAFA"/>
<path d="M177.505 246.434H174.453V249.486H177.505V246.434Z" fill="#FAFAFA"/>
<path d="M177.505 251.555H174.453V254.607H177.505V251.555Z" fill="#FAFAFA"/>
<path d="M177.505 256.659H174.453V259.711H177.505V256.659Z" fill="#FAFAFA"/>
<path d="M177.505 261.781H174.453V264.833H177.505V261.781Z" fill="#FAFAFA"/>
<path d="M177.505 266.903H174.453V269.955H177.505V266.903Z" fill="#FAFAFA"/>
<path d="M177.505 272.007H174.453V275.059H177.505V272.007Z" fill="#FAFAFA"/>
<path d="M177.505 277.128H174.453V280.18H177.505V277.128Z" fill="#FAFAFA"/>
<path d="M177.505 282.233H174.453V285.285H177.505V282.233Z" fill="#FAFAFA"/>
<path d="M177.505 287.354H174.453V290.406H177.505V287.354Z" fill="#FAFAFA"/>
<path d="M177.505 292.476H174.453V295.528H177.505V292.476Z" fill="#FAFAFA"/>
<path d="M177.505 297.58H174.453V300.632H177.505V297.58Z" fill="#FAFAFA"/>
<path d="M177.505 302.702H174.453V305.754H177.505V302.702Z" fill="#FAFAFA"/>
<path d="M177.505 307.806H174.453V310.858H177.505V307.806Z" fill="#FAFAFA"/>
<path d="M177.505 312.928H174.453V315.98H177.505V312.928Z" fill="#FAFAFA"/>
<path d="M149.686 263.307H146.634V266.359H149.686V263.307Z" fill="#FAFAFA"/>
<path d="M149.686 268.429H146.634V271.481H149.686V268.429Z" fill="#FAFAFA"/>
<path d="M149.686 273.533H146.634V276.585H149.686V273.533Z" fill="#FAFAFA"/>
<path d="M149.686 278.655H146.634V281.707H149.686V278.655Z" fill="#FAFAFA"/>
<path d="M149.686 283.759H146.634V286.811H149.686V283.759Z" fill="#FAFAFA"/>
<path d="M149.686 288.88H146.634V291.932H149.686V288.88Z" fill="#FAFAFA"/>
<path d="M149.686 294.002H146.634V297.054H149.686V294.002Z" fill="#FAFAFA"/>
<path d="M149.686 299.106H146.634V302.158H149.686V299.106Z" fill="#FAFAFA"/>
<path d="M149.686 304.228H146.634V307.28H149.686V304.228Z" fill="#FAFAFA"/>
<path d="M149.686 309.332H146.634V312.384H149.686V309.332Z" fill="#FAFAFA"/>
<path d="M149.686 314.454H146.634V317.506H149.686V314.454Z" fill="#FAFAFA"/>
<path d="M149.686 319.575H146.634V322.627H149.686V319.575Z" fill="#FAFAFA"/>
<path d="M149.686 324.68H146.634V327.732H149.686V324.68Z" fill="#FAFAFA"/>
<path d="M154.527 263.307H151.475V266.359H154.527V263.307Z" fill="#FAFAFA"/>
<path d="M154.527 268.429H151.475V271.481H154.527V268.429Z" fill="#FAFAFA"/>
<path d="M154.527 273.533H151.475V276.585H154.527V273.533Z" fill="#FAFAFA"/>
<path d="M154.527 278.655H151.475V281.707H154.527V278.655Z" fill="#FAFAFA"/>
<path d="M154.527 283.759H151.475V286.811H154.527V283.759Z" fill="#FAFAFA"/>
<path d="M154.527 288.88H151.475V291.932H154.527V288.88Z" fill="#FAFAFA"/>
<path d="M154.527 294.002H151.475V297.054H154.527V294.002Z" fill="#FAFAFA"/>
<path d="M154.527 299.106H151.475V302.158H154.527V299.106Z" fill="#FAFAFA"/>
<path d="M154.527 304.228H151.475V307.28H154.527V304.228Z" fill="#FAFAFA"/>
<path d="M154.527 309.332H151.475V312.384H154.527V309.332Z" fill="#FAFAFA"/>
<path d="M154.527 314.454H151.475V317.506H154.527V314.454Z" fill="#FAFAFA"/>
<path d="M154.527 319.575H151.475V322.627H154.527V319.575Z" fill="#FAFAFA"/>
<path d="M154.527 324.68H151.475V327.732H154.527V324.68Z" fill="#FAFAFA"/>
<path d="M159.386 263.307H156.334V266.359H159.386V263.307Z" fill="#FAFAFA"/>
<path d="M159.386 268.429H156.334V271.481H159.386V268.429Z" fill="#FAFAFA"/>
<path d="M159.386 273.533H156.334V276.585H159.386V273.533Z" fill="#FAFAFA"/>
<path d="M159.386 278.655H156.334V281.707H159.386V278.655Z" fill="#FAFAFA"/>
<path d="M159.386 283.759H156.334V286.811H159.386V283.759Z" fill="#FAFAFA"/>
<path d="M159.386 288.88H156.334V291.932H159.386V288.88Z" fill="#FAFAFA"/>
<path d="M159.386 294.002H156.334V297.054H159.386V294.002Z" fill="#FAFAFA"/>
<path d="M159.386 299.106H156.334V302.158H159.386V299.106Z" fill="#FAFAFA"/>
<path d="M159.386 304.228H156.334V307.28H159.386V304.228Z" fill="#FAFAFA"/>
<path d="M159.386 309.332H156.334V312.384H159.386V309.332Z" fill="#FAFAFA"/>
<path d="M159.386 314.454H156.334V317.506H159.386V314.454Z" fill="#FAFAFA"/>
<path d="M159.386 319.575H156.334V322.627H159.386V319.575Z" fill="#FAFAFA"/>
<path d="M159.386 324.68H156.334V327.732H159.386V324.68Z" fill="#FAFAFA"/>
<path d="M159.386 329.801H156.334V332.853H159.386V329.801Z" fill="#FAFAFA"/>
<path d="M186.31 264.833H183.258V267.885H186.31V264.833Z" fill="#FAFAFA"/>
<path d="M186.31 269.938H183.258V272.989H186.31V269.938Z" fill="#FAFAFA"/>
<path d="M186.31 275.059H183.258V278.111H186.31V275.059Z" fill="#FAFAFA"/>
<path d="M186.31 280.181H183.258V283.233H186.31V280.181Z" fill="#FAFAFA"/>
<path d="M186.31 285.285H183.258V288.337H186.31V285.285Z" fill="#FAFAFA"/>
<path d="M186.31 290.406H183.258V293.458H186.31V290.406Z" fill="#FAFAFA"/>
<path d="M186.31 295.528H183.258V298.58H186.31V295.528Z" fill="#FAFAFA"/>
<path d="M186.31 300.632H183.258V303.684H186.31V300.632Z" fill="#FAFAFA"/>
<path d="M186.31 305.754H183.258V308.806H186.31V305.754Z" fill="#FAFAFA"/>
<path d="M186.31 310.858H183.258V313.91H186.31V310.858Z" fill="#FAFAFA"/>
<path d="M186.31 326.206H183.258V329.258H186.31V326.206Z" fill="#FAFAFA"/>
<path d="M191.151 264.833H188.099V267.885H191.151V264.833Z" fill="#FAFAFA"/>
<path d="M191.151 269.938H188.099V272.989H191.151V269.938Z" fill="#FAFAFA"/>
<path d="M191.151 275.059H188.099V278.111H191.151V275.059Z" fill="#FAFAFA"/>
<path d="M191.151 280.181H188.099V283.233H191.151V280.181Z" fill="#FAFAFA"/>
<path d="M191.151 285.285H188.099V288.337H191.151V285.285Z" fill="#FAFAFA"/>
<path d="M191.151 290.406H188.099V293.458H191.151V290.406Z" fill="#FAFAFA"/>
<path d="M191.151 295.528H188.099V298.58H191.151V295.528Z" fill="#FAFAFA"/>
<path d="M191.151 300.632H188.099V303.684H191.151V300.632Z" fill="#FAFAFA"/>
<path d="M191.151 305.754H188.099V308.806H191.151V305.754Z" fill="#FAFAFA"/>
<path d="M191.151 321.102H188.099V324.154H191.151V321.102Z" fill="#FAFAFA"/>
<path d="M191.151 326.206H188.099V329.258H191.151V326.206Z" fill="#FAFAFA"/>
<path d="M195.992 264.833H192.94V267.885H195.992V264.833Z" fill="#FAFAFA"/>
<path d="M195.992 269.938H192.94V272.989H195.992V269.938Z" fill="#FAFAFA"/>
<path d="M195.992 275.059H192.94V278.111H195.992V275.059Z" fill="#FAFAFA"/>
<path d="M195.992 280.181H192.94V283.233H195.992V280.181Z" fill="#FAFAFA"/>
<path d="M195.992 285.285H192.94V288.337H195.992V285.285Z" fill="#FAFAFA"/>
<path d="M195.992 290.406H192.94V293.458H195.992V290.406Z" fill="#FAFAFA"/>
<path d="M195.992 295.528H192.94V298.58H195.992V295.528Z" fill="#FAFAFA"/>
<path d="M195.992 300.632H192.94V303.684H195.992V300.632Z" fill="#FAFAFA"/>
<path d="M195.992 315.979H192.94V319.031H195.992V315.979Z" fill="#FAFAFA"/>
<path d="M195.992 321.102H192.94V324.154H195.992V321.102Z" fill="#FAFAFA"/>
<path d="M195.992 326.206H192.94V329.258H195.992V326.206Z" fill="#FAFAFA"/>
<path d="M241.035 187.113H237.983V190.165H241.035V187.113Z" fill="#FAFAFA"/>
<path d="M241.035 192.235H237.983V195.287H241.035V192.235Z" fill="#FAFAFA"/>
<path d="M241.035 197.357H237.983V200.409H241.035V197.357Z" fill="#FAFAFA"/>
<path d="M241.035 202.461H237.983V205.513H241.035V202.461Z" fill="#FAFAFA"/>
<path d="M241.035 207.583H237.983V210.634H241.035V207.583Z" fill="#FAFAFA"/>
<path d="M241.035 212.704H237.983V215.756H241.035V212.704Z" fill="#FAFAFA"/>
<path d="M241.035 217.809H237.983V220.861H241.035V217.809Z" fill="#FAFAFA"/>
<path d="M241.035 222.93H237.983V225.982H241.035V222.93Z" fill="#FAFAFA"/>
<path d="M241.035 228.034H237.983V231.086H241.035V228.034Z" fill="#FAFAFA"/>
<path d="M241.035 233.156H237.983V236.208H241.035V233.156Z" fill="#FAFAFA"/>
<path d="M241.035 238.277H237.983V241.329H241.035V238.277Z" fill="#FAFAFA"/>
<path d="M241.035 243.382H237.983V246.434H241.035V243.382Z" fill="#FAFAFA"/>
<path d="M241.035 248.503H237.983V251.555H241.035V248.503Z" fill="#FAFAFA"/>
<path d="M241.035 253.607H237.983V256.659H241.035V253.607Z" fill="#FAFAFA"/>
<path d="M241.035 258.729H237.983V261.781H241.035V258.729Z" fill="#FAFAFA"/>
<path d="M241.035 263.851H237.983V266.903H241.035V263.851Z" fill="#FAFAFA"/>
<path d="M241.035 268.955H237.983V272.007H241.035V268.955Z" fill="#FAFAFA"/>
<path d="M241.035 279.181H237.983V282.233H241.035V279.181Z" fill="#FAFAFA"/>
<path d="M241.035 284.303H237.983V287.355H241.035V284.303Z" fill="#FAFAFA"/>
<path d="M241.035 289.424H237.983V292.476H241.035V289.424Z" fill="#FAFAFA"/>
<path d="M241.035 294.528H237.983V297.58H241.035V294.528Z" fill="#FAFAFA"/>
<path d="M241.035 299.65H237.983V302.702H241.035V299.65Z" fill="#FAFAFA"/>
<path d="M245.876 187.113H242.824V190.165H245.876V187.113Z" fill="#FAFAFA"/>
<path d="M245.876 192.235H242.824V195.287H245.876V192.235Z" fill="#FAFAFA"/>
<path d="M245.876 197.357H242.824V200.409H245.876V197.357Z" fill="#FAFAFA"/>
<path d="M245.876 202.461H242.824V205.513H245.876V202.461Z" fill="#FAFAFA"/>
<path d="M245.876 207.583H242.824V210.634H245.876V207.583Z" fill="#FAFAFA"/>
<path d="M245.876 212.704H242.824V215.756H245.876V212.704Z" fill="#FAFAFA"/>
<path d="M245.876 217.809H242.824V220.861H245.876V217.809Z" fill="#FAFAFA"/>
<path d="M245.876 222.93H242.824V225.982H245.876V222.93Z" fill="#FAFAFA"/>
<path d="M245.876 228.034H242.824V231.086H245.876V228.034Z" fill="#FAFAFA"/>
<path d="M245.876 233.156H242.824V236.208H245.876V233.156Z" fill="#FAFAFA"/>
<path d="M245.876 238.277H242.824V241.329H245.876V238.277Z" fill="#FAFAFA"/>
<path d="M245.876 243.382H242.824V246.434H245.876V243.382Z" fill="#FAFAFA"/>
<path d="M245.876 248.503H242.824V251.555H245.876V248.503Z" fill="#FAFAFA"/>
<path d="M245.876 253.607H242.824V256.659H245.876V253.607Z" fill="#FAFAFA"/>
<path d="M245.876 258.729H242.824V261.781H245.876V258.729Z" fill="#FAFAFA"/>
<path d="M245.876 263.851H242.824V266.903H245.876V263.851Z" fill="#FAFAFA"/>
<path d="M245.876 294.528H242.824V297.58H245.876V294.528Z" fill="#FAFAFA"/>
<path d="M245.876 299.65H242.824V302.702H245.876V299.65Z" fill="#FAFAFA"/>
<path d="M250.734 187.113H247.682V190.165H250.734V187.113Z" fill="#FAFAFA"/>
<path d="M250.734 192.235H247.682V195.287H250.734V192.235Z" fill="#FAFAFA"/>
<path d="M250.734 197.357H247.682V200.409H250.734V197.357Z" fill="#FAFAFA"/>
<path d="M250.734 202.461H247.682V205.513H250.734V202.461Z" fill="#FAFAFA"/>
<path d="M250.734 207.583H247.682V210.634H250.734V207.583Z" fill="#FAFAFA"/>
<path d="M250.734 212.704H247.682V215.756H250.734V212.704Z" fill="#FAFAFA"/>
<path d="M250.734 217.809H247.682V220.861H250.734V217.809Z" fill="#FAFAFA"/>
<path d="M250.734 222.93H247.682V225.982H250.734V222.93Z" fill="#FAFAFA"/>
<path d="M250.734 228.034H247.682V231.086H250.734V228.034Z" fill="#FAFAFA"/>
<path d="M250.734 233.156H247.682V236.208H250.734V233.156Z" fill="#FAFAFA"/>
<path d="M250.734 238.277H247.682V241.329H250.734V238.277Z" fill="#FAFAFA"/>
<path d="M250.734 243.382H247.682V246.434H250.734V243.382Z" fill="#FAFAFA"/>
<path d="M250.734 248.503H247.682V251.555H250.734V248.503Z" fill="#FAFAFA"/>
<path d="M250.734 253.607H247.682V256.659H250.734V253.607Z" fill="#FAFAFA"/>
<path d="M250.734 258.729H247.682V261.781H250.734V258.729Z" fill="#FAFAFA"/>
<path d="M250.734 263.851H247.682V266.903H250.734V263.851Z" fill="#FAFAFA"/>
<path d="M250.734 274.077H247.682V277.129H250.734V274.077Z" fill="#FAFAFA"/>
<path d="M250.734 279.181H247.682V282.233H250.734V279.181Z" fill="#FAFAFA"/>
<path d="M250.734 284.303H247.682V287.355H250.734V284.303Z" fill="#FAFAFA"/>
<path d="M250.734 289.424H247.682V292.476H250.734V289.424Z" fill="#FAFAFA"/>
<path d="M250.734 299.65H247.682V302.702H250.734V299.65Z" fill="#FAFAFA"/>
<path d="M223.442 251.555H220.39V254.607H223.442V251.555Z" fill="#FAFAFA"/>
<path d="M223.442 256.659H220.39V259.711H223.442V256.659Z" fill="#FAFAFA"/>
<path d="M223.442 261.781H220.39V264.833H223.442V261.781Z" fill="#FAFAFA"/>
<path d="M223.442 266.903H220.39V269.955H223.442V266.903Z" fill="#FAFAFA"/>
<path d="M223.442 272.007H220.39V275.059H223.442V272.007Z" fill="#FAFAFA"/>
<path d="M223.442 277.128H220.39V280.18H223.442V277.128Z" fill="#FAFAFA"/>
<path d="M223.442 282.233H220.39V285.285H223.442V282.233Z" fill="#FAFAFA"/>
<path d="M223.442 292.476H220.39V295.528H223.442V292.476Z" fill="#FAFAFA"/>
<path d="M223.442 297.58H220.39V300.632H223.442V297.58Z" fill="#FAFAFA"/>
<path d="M223.442 302.702H220.39V305.754H223.442V302.702Z" fill="#FAFAFA"/>
<path d="M223.442 307.806H220.39V310.858H223.442V307.806Z" fill="#FAFAFA"/>
<path d="M223.442 312.928H220.39V315.98H223.442V312.928Z" fill="#FAFAFA"/>
<path d="M223.442 318.049H220.39V321.101H223.442V318.049Z" fill="#FAFAFA"/>
<path d="M223.442 323.154H220.39V326.206H223.442V323.154Z" fill="#FAFAFA"/>
<path d="M223.442 328.275H220.39V331.327H223.442V328.275Z" fill="#FAFAFA"/>
<path d="M228.301 251.555H225.249V254.607H228.301V251.555Z" fill="#FAFAFA"/>
<path d="M228.301 256.659H225.249V259.711H228.301V256.659Z" fill="#FAFAFA"/>
<path d="M228.301 261.781H225.249V264.833H228.301V261.781Z" fill="#FAFAFA"/>
<path d="M228.301 266.903H225.249V269.955H228.301V266.903Z" fill="#FAFAFA"/>
<path d="M228.301 272.007H225.249V275.059H228.301V272.007Z" fill="#FAFAFA"/>
<path d="M228.301 277.128H225.249V280.18H228.301V277.128Z" fill="#FAFAFA"/>
<path d="M228.301 292.476H225.249V295.528H228.301V292.476Z" fill="#FAFAFA"/>
<path d="M228.301 297.58H225.249V300.632H228.301V297.58Z" fill="#FAFAFA"/>
<path d="M228.301 302.702H225.249V305.754H228.301V302.702Z" fill="#FAFAFA"/>
<path d="M228.301 307.806H225.249V310.858H228.301V307.806Z" fill="#FAFAFA"/>
<path d="M228.301 312.928H225.249V315.98H228.301V312.928Z" fill="#FAFAFA"/>
<path d="M228.301 318.049H225.249V321.101H228.301V318.049Z" fill="#FAFAFA"/>
<path d="M228.301 323.154H225.249V326.206H228.301V323.154Z" fill="#FAFAFA"/>
<path d="M228.301 328.275H225.249V331.327H228.301V328.275Z" fill="#FAFAFA"/>
<path d="M233.142 251.555H230.09V254.607H233.142V251.555Z" fill="#FAFAFA"/>
<path d="M233.142 256.659H230.09V259.711H233.142V256.659Z" fill="#FAFAFA"/>
<path d="M233.142 261.781H230.09V264.833H233.142V261.781Z" fill="#FAFAFA"/>
<path d="M233.142 266.903H230.09V269.955H233.142V266.903Z" fill="#FAFAFA"/>
<path d="M233.142 272.007H230.09V275.059H233.142V272.007Z" fill="#FAFAFA"/>
<path d="M233.142 277.128H230.09V280.18H233.142V277.128Z" fill="#FAFAFA"/>
<path d="M233.142 287.354H230.09V290.406H233.142V287.354Z" fill="#FAFAFA"/>
<path d="M233.142 292.476H230.09V295.528H233.142V292.476Z" fill="#FAFAFA"/>
<path d="M233.142 297.58H230.09V300.632H233.142V297.58Z" fill="#FAFAFA"/>
<path d="M233.142 302.702H230.09V305.754H233.142V302.702Z" fill="#FAFAFA"/>
<path d="M233.142 307.806H230.09V310.858H233.142V307.806Z" fill="#FAFAFA"/>
<path d="M233.142 312.928H230.09V315.98H233.142V312.928Z" fill="#FAFAFA"/>
<path d="M233.142 318.049H230.09V321.101H233.142V318.049Z" fill="#FAFAFA"/>
<path d="M233.142 323.154H230.09V326.206H233.142V323.154Z" fill="#FAFAFA"/>
<path d="M233.142 328.275H230.09V331.327H233.142V328.275Z" fill="#FAFAFA"/>
<path d="M335.259 222.93H332.208V225.982H335.259V222.93Z" fill="#FAFAFA"/>
<path d="M335.259 228.034H332.208V231.086H335.259V228.034Z" fill="#FAFAFA"/>
<path d="M335.259 233.156H332.208V236.208H335.259V233.156Z" fill="#FAFAFA"/>
<path d="M335.259 238.277H332.208V241.329H335.259V238.277Z" fill="#FAFAFA"/>
<path d="M335.259 243.382H332.208V246.434H335.259V243.382Z" fill="#FAFAFA"/>
<path d="M335.259 248.503H332.208V251.555H335.259V248.503Z" fill="#FAFAFA"/>
<path d="M335.259 253.607H332.208V256.659H335.259V253.607Z" fill="#FAFAFA"/>
<path d="M335.259 258.729H332.208V261.781H335.259V258.729Z" fill="#FAFAFA"/>
<path d="M335.259 263.851H332.208V266.903H335.259V263.851Z" fill="#FAFAFA"/>
<path d="M335.259 268.955H332.208V272.007H335.259V268.955Z" fill="#FAFAFA"/>
<path d="M335.259 274.077H332.208V277.129H335.259V274.077Z" fill="#FAFAFA"/>
<path d="M335.259 279.181H332.208V282.233H335.259V279.181Z" fill="#FAFAFA"/>
<path d="M335.259 284.303H332.208V287.355H335.259V284.303Z" fill="#FAFAFA"/>
<path d="M335.259 294.528H332.208V297.58H335.259V294.528Z" fill="#FAFAFA"/>
<path d="M335.259 299.65H332.208V302.702H335.259V299.65Z" fill="#FAFAFA"/>
<path d="M335.259 304.754H332.208V307.806H335.259V304.754Z" fill="#FAFAFA"/>
<path d="M335.259 309.876H332.208V312.928H335.259V309.876Z" fill="#FAFAFA"/>
<path d="M335.259 320.102H332.208V323.154H335.259V320.102Z" fill="#FAFAFA"/>
<path d="M335.259 325.223H332.208V328.275H335.259V325.223Z" fill="#FAFAFA"/>
<path d="M335.259 330.328H332.208V333.38H335.259V330.328Z" fill="#FAFAFA"/>
<path d="M340.101 222.93H337.049V225.982H340.101V222.93Z" fill="#FAFAFA"/>
<path d="M340.101 228.034H337.049V231.086H340.101V228.034Z" fill="#FAFAFA"/>
<path d="M340.101 233.156H337.049V236.208H340.101V233.156Z" fill="#FAFAFA"/>
<path d="M340.101 238.277H337.049V241.329H340.101V238.277Z" fill="#FAFAFA"/>
<path d="M340.101 243.382H337.049V246.434H340.101V243.382Z" fill="#FAFAFA"/>
<path d="M340.101 248.503H337.049V251.555H340.101V248.503Z" fill="#FAFAFA"/>
<path d="M340.101 253.607H337.049V256.659H340.101V253.607Z" fill="#FAFAFA"/>
<path d="M340.101 258.729H337.049V261.781H340.101V258.729Z" fill="#FAFAFA"/>
<path d="M340.101 263.851H337.049V266.903H340.101V263.851Z" fill="#FAFAFA"/>
<path d="M340.101 268.955H337.049V272.007H340.101V268.955Z" fill="#FAFAFA"/>
<path d="M340.101 274.077H337.049V277.129H340.101V274.077Z" fill="#FAFAFA"/>
<path d="M340.101 279.181H337.049V282.233H340.101V279.181Z" fill="#FAFAFA"/>
<path d="M340.101 284.303H337.049V287.355H340.101V284.303Z" fill="#FAFAFA"/>
<path d="M340.101 299.65H337.049V302.702H340.101V299.65Z" fill="#FAFAFA"/>
<path d="M340.101 304.754H337.049V307.806H340.101V304.754Z" fill="#FAFAFA"/>
<path d="M340.101 314.998H337.049V318.049H340.101V314.998Z" fill="#FAFAFA"/>
<path d="M340.101 320.102H337.049V323.154H340.101V320.102Z" fill="#FAFAFA"/>
<path d="M340.101 325.223H337.049V328.275H340.101V325.223Z" fill="#FAFAFA"/>
<path d="M340.101 330.328H337.049V333.38H340.101V330.328Z" fill="#FAFAFA"/>
<path d="M344.942 222.93H341.89V225.982H344.942V222.93Z" fill="#FAFAFA"/>
<path d="M344.942 228.034H341.89V231.086H344.942V228.034Z" fill="#FAFAFA"/>
<path d="M344.942 233.156H341.89V236.208H344.942V233.156Z" fill="#FAFAFA"/>
<path d="M344.942 238.277H341.89V241.329H344.942V238.277Z" fill="#FAFAFA"/>
<path d="M344.942 243.382H341.89V246.434H344.942V243.382Z" fill="#FAFAFA"/>
<path d="M344.942 248.503H341.89V251.555H344.942V248.503Z" fill="#FAFAFA"/>
<path d="M344.942 253.607H341.89V256.659H344.942V253.607Z" fill="#FAFAFA"/>
<path d="M344.942 258.729H341.89V261.781H344.942V258.729Z" fill="#FAFAFA"/>
<path d="M344.942 263.851H341.89V266.903H344.942V263.851Z" fill="#FAFAFA"/>
<path d="M344.942 268.955H341.89V272.007H344.942V268.955Z" fill="#FAFAFA"/>
<path d="M344.942 274.077H341.89V277.129H344.942V274.077Z" fill="#FAFAFA"/>
<path d="M344.942 279.181H341.89V282.233H344.942V279.181Z" fill="#FAFAFA"/>
<path d="M344.942 284.303H341.89V287.355H344.942V284.303Z" fill="#FAFAFA"/>
<path d="M344.942 289.424H341.89V292.476H344.942V289.424Z" fill="#FAFAFA"/>
<path d="M344.942 299.65H341.89V302.702H344.942V299.65Z" fill="#FAFAFA"/>
<path d="M344.942 309.876H341.89V312.928H344.942V309.876Z" fill="#FAFAFA"/>
<path d="M344.942 314.998H341.89V318.049H344.942V314.998Z" fill="#FAFAFA"/>
<path d="M344.942 320.102H341.89V323.154H344.942V320.102Z" fill="#FAFAFA"/>
<path d="M344.942 325.223H341.89V328.275H344.942V325.223Z" fill="#FAFAFA"/>
<path d="M344.942 330.328H341.89V333.38H344.942V330.328Z" fill="#FAFAFA"/>
<path d="M315.509 252.082H312.458V255.133H315.509V252.082Z" fill="#FAFAFA"/>
<path d="M315.509 257.203H312.458V260.255H315.509V257.203Z" fill="#FAFAFA"/>
<path d="M315.509 262.325H312.458V265.377H315.509V262.325Z" fill="#FAFAFA"/>
<path d="M315.509 267.429H312.458V270.481H315.509V267.429Z" fill="#FAFAFA"/>
<path d="M315.509 272.551H312.458V275.603H315.509V272.551Z" fill="#FAFAFA"/>
<path d="M315.509 277.655H312.458V280.707H315.509V277.655Z" fill="#FAFAFA"/>
<path d="M315.509 293.002H312.458V296.054H315.509V293.002Z" fill="#FAFAFA"/>
<path d="M315.509 298.124H312.458V301.176H315.509V298.124Z" fill="#FAFAFA"/>
<path d="M315.509 303.228H312.458V306.28H315.509V303.228Z" fill="#FAFAFA"/>
<path d="M315.509 308.35H312.458V311.402H315.509V308.35Z" fill="#FAFAFA"/>
<path d="M315.509 313.472H312.458V316.524H315.509V313.472Z" fill="#FAFAFA"/>
<path d="M315.509 318.576H312.458V321.628H315.509V318.576Z" fill="#FAFAFA"/>
<path d="M315.509 323.697H312.458V326.749H315.509V323.697Z" fill="#FAFAFA"/>
<path d="M320.368 252.082H317.316V255.133H320.368V252.082Z" fill="#FAFAFA"/>
<path d="M320.368 257.203H317.316V260.255H320.368V257.203Z" fill="#FAFAFA"/>
<path d="M320.368 262.325H317.316V265.377H320.368V262.325Z" fill="#FAFAFA"/>
<path d="M320.368 267.429H317.316V270.481H320.368V267.429Z" fill="#FAFAFA"/>
<path d="M320.368 272.551H317.316V275.603H320.368V272.551Z" fill="#FAFAFA"/>
<path d="M320.368 277.655H317.316V280.707H320.368V277.655Z" fill="#FAFAFA"/>
<path d="M320.368 293.002H317.316V296.054H320.368V293.002Z" fill="#FAFAFA"/>
<path d="M320.368 298.124H317.316V301.176H320.368V298.124Z" fill="#FAFAFA"/>
<path d="M320.368 303.228H317.316V306.28H320.368V303.228Z" fill="#FAFAFA"/>
<path d="M320.368 308.35H317.316V311.402H320.368V308.35Z" fill="#FAFAFA"/>
<path d="M320.368 313.472H317.316V316.524H320.368V313.472Z" fill="#FAFAFA"/>
<path d="M320.368 318.576H317.316V321.628H320.368V318.576Z" fill="#FAFAFA"/>
<path d="M320.368 328.819H317.316V331.871H320.368V328.819Z" fill="#FAFAFA"/>
<path d="M436.483 84.8374H430.432V417.203H436.483V84.8374Z" fill="#EBEBEB"/>
<path d="M339.224 84.8374H334.102V417.203H339.224V84.8374Z" fill="#EBEBEB"/>
<path d="M242.894 84.8374H237.772V417.203H242.894V84.8374Z" fill="#EBEBEB"/>
<path d="M604.955 97.9925C618.681 97.9925 629.809 86.8649 629.809 73.1384C629.809 59.4118 618.681 48.2842 604.955 48.2842C591.228 48.2842 580.101 59.4118 580.101 73.1384C580.101 86.8649 591.228 97.9925 604.955 97.9925Z" fill="#E0E0E0"/>
<path d="M626.073 73.1383C626.073 77.3012 624.838 81.3706 622.526 84.832C620.213 88.2933 616.926 90.9911 613.08 92.5841C609.234 94.1772 605.001 94.594 600.919 93.7819C596.836 92.9698 593.085 90.9651 590.142 88.0215C587.198 85.0779 585.193 81.3275 584.381 77.2446C583.569 73.1617 583.986 68.9296 585.579 65.0836C587.172 61.2376 589.87 57.9503 593.331 55.6376C596.793 53.3248 600.862 52.0903 605.025 52.0903C610.607 52.0903 615.961 54.3079 619.908 58.2551C623.855 62.2024 626.073 67.5561 626.073 73.1383V73.1383Z" fill="#F0F0F0"/>
<path d="M603.955 58.6504V73.4191L594.167 67.8764" fill="#F0F0F0"/>
<path d="M603.955 58.6504V73.4191L594.167 67.8764" stroke="#E0E0E0" stroke-width="2" stroke-linecap="round" stroke-linejoin="round"/>
<path d="M728.997 113.252H619.127V258.273H728.997V113.252Z" fill="#F5F5F5"/>
<path d="M656.505 128.688V192.445L681.903 191.007L684.814 128.688H656.505Z" fill="#EBEBEB"/>
<path d="M677.062 141.018H716.141L715.807 196.83L695.566 197.146L677.062 141.018Z" fill="#E0E0E0"/>
<path d="M639.017 132.792H649.296L645.7 182.588L632.843 185.78L639.017 132.792Z" fill="#E6E6E6"/>
<path d="M493.505 275.971H603.025V142.702H493.505V275.971Z" fill="#E6E6E6"/>
<path d="M518.57 242.961L576.119 186.394L513.852 176.116L518.57 242.961Z" fill="#E0E0E0"/>
<path d="M574.733 229.542L577.575 186.166L534.251 196.813L531.094 229.998L574.733 229.542Z" fill="#F0F0F0"/>
<path d="M530.402 180.865C537.231 174.036 537.231 162.963 530.402 156.134C523.572 149.305 512.5 149.305 505.671 156.134C498.842 162.963 498.842 174.036 505.671 180.865C512.5 187.694 523.572 187.694 530.402 180.865Z" fill="#FAFAFA"/>
<path d="M569.068 245.013C569.068 243.334 569.566 241.692 570.499 240.296C571.431 238.9 572.757 237.812 574.309 237.17C575.86 236.527 577.567 236.359 579.213 236.687C580.86 237.014 582.373 237.823 583.56 239.01C584.747 240.197 585.556 241.71 585.883 243.357C586.211 245.003 586.043 246.71 585.4 248.262C584.758 249.813 583.67 251.139 582.274 252.071C580.878 253.004 579.236 253.502 577.557 253.502C575.306 253.502 573.146 252.608 571.554 251.016C569.962 249.424 569.068 247.264 569.068 245.013Z" fill="#E0E0E0"/>
<path d="M575.54 259.922L551.037 245.013L571.629 228.052L575.54 259.922Z" fill="#F5F5F5"/>
<path d="M546.616 159.646H541.793V266.061H546.616V159.646Z" fill="#E0E0E0"/>
<path d="M592.747 159.646H586.52V261.36H592.747V159.646Z" fill="#EBEBEB"/>
<path d="M536.338 229.999H504.503V261.834H536.338V229.999Z" fill="#EBEBEB"/>
<path d="M721.578 453.669H606.48V558.26H721.578V453.669Z" fill="#E6E6E6"/>
<path d="M739.171 444.46H724.7V574.344H739.171V444.46Z" fill="#E6E6E6"/>
<path d="M634.246 463.421H624.81V500.939H634.246V463.421Z" fill="#FAFAFA"/>
<path d="M673.343 463.421H663.906V500.939H673.343V463.421Z" fill="#F5F5F5"/>
<path d="M643.666 466.684H634.229V500.957H643.666V466.684Z" fill="#F5F5F5"/>
<path d="M663.906 466.684H654.47V500.957H663.906V466.684Z" fill="#FAFAFA"/>
<path d="M654.47 463.421H648.384V500.939H654.47V463.421Z" fill="#EBEBEB"/>
<path d="M648.384 466.684H643.666V500.957H648.384V466.684Z" fill="#FAFAFA"/>
<path d="M682.779 463.421H673.343V500.939H682.779V463.421Z" fill="#EBEBEB"/>
<path d="M692.216 466.684H682.78V500.957H692.216V466.684Z" fill="#E6E6E6"/>
<path d="M712.457 466.684H703.021V500.957H712.457V466.684Z" fill="#E6E6E6"/>
<path d="M703.003 463.421H696.917V500.939H703.003V463.421Z" fill="#FAFAFA"/>
<path d="M696.917 466.684H692.198V500.957H696.917V466.684Z" fill="#EBEBEB"/>
<path d="M717.158 464.526H712.44V500.956H717.158V464.526Z" fill="#FAFAFA"/>
<path d="M707.739 552.454H717.176V516.69H707.739V552.454Z" fill="#FAFAFA"/>
<path d="M668.625 552.454H678.061V516.69H668.625V552.454Z" fill="#FAFAFA"/>
<path d="M698.285 552.472H707.721V519.953H698.285V552.472Z" fill="#F0F0F0"/>
<path d="M678.044 552.472H687.48V519.953H678.044V552.472Z" fill="#EBEBEB"/>
<path d="M687.498 552.454H693.584V516.69H687.498V552.454Z" fill="#FAFAFA"/>
<path d="M693.584 552.472H698.302V519.953H693.584V552.472Z" fill="#F5F5F5"/>
<path d="M659.188 552.454H668.625V516.69H659.188V552.454Z" fill="#EBEBEB"/>
<path d="M649.752 552.472H659.188V519.953H649.752V552.472Z" fill="#F5F5F5"/>
<path d="M629.51 552.472H638.947V519.953H629.51V552.472Z" fill="#E6E6E6"/>
<path d="M638.965 552.454H645.051V516.69H638.965V552.454Z" fill="#FAFAFA"/>
<path d="M618.723 552.454H624.81V516.69H618.723V552.454Z" fill="#FAFAFA"/>
<path d="M645.033 552.472H649.752V519.953H645.033V552.472Z" fill="#EBEBEB"/>
<path d="M624.792 552.472H629.51V517.795H624.792V552.472Z" fill="#F0F0F0"/>
<path d="M720.999 444.46H602.832V565.978H717.14V574.327H724.858V444.531L720.999 444.46ZM717.14 552.472H610.146V508.709H717.14V552.472ZM717.14 500.992H610.146V457.949H717.14V500.992Z" fill="#F0F0F0"/>
<path d="M491.208 558.26H606.305V453.669H491.208V558.26Z" fill="#E6E6E6"/>
<path d="M495.628 574.326H510.098V564.451H495.628V574.326Z" fill="#E6E6E6"/>
<path d="M592.975 500.939H602.411V463.421H592.975V500.939Z" fill="#FAFAFA"/>
<path d="M553.878 500.939H563.315V463.421H553.878V500.939Z" fill="#F5F5F5"/>
<path d="M583.556 500.939H592.992V466.666H583.556V500.939Z" fill="#F5F5F5"/>
<path d="M563.315 500.939H572.751V466.666H563.315V500.939Z" fill="#FAFAFA"/>
<path d="M572.751 500.939H578.837V463.421H572.751V500.939Z" fill="#EBEBEB"/>
<path d="M578.837 500.939H583.556V466.666H578.837V500.939Z" fill="#FAFAFA"/>
<path d="M550.668 500.939H560.105V463.421H550.668V500.939Z" fill="#EBEBEB"/>
<path d="M541.232 500.939H550.668V466.666H541.232V500.939Z" fill="#E6E6E6"/>
<path d="M520.991 500.939H530.427V466.666H520.991V500.939Z" fill="#E6E6E6"/>
<path d="M530.445 500.939H536.531V463.421H530.445V500.939Z" fill="#FAFAFA"/>
<path d="M536.513 500.939H541.232V466.666H536.513V500.939Z" fill="#EBEBEB"/>
<path d="M516.29 500.939H521.008V464.508H516.29V500.939Z" fill="#F5F5F5"/>
<path d="M521.289 516.708H511.852V552.471H521.289V516.708Z" fill="#FAFAFA"/>
<path d="M560.385 516.708H550.949V552.471H560.385V516.708Z" fill="#FAFAFA"/>
<path d="M530.725 519.952H521.289V552.471H530.725V519.952Z" fill="#F5F5F5"/>
<path d="M550.967 519.952H541.53V552.471H550.967V519.952Z" fill="#EBEBEB"/>
<path d="M541.512 516.708H535.426V552.471H541.512V516.708Z" fill="#FAFAFA"/>
<path d="M535.426 519.952H530.708V552.471H535.426V519.952Z" fill="#F5F5F5"/>
<path d="M563.613 516.708H554.176V552.471H563.613V516.708Z" fill="#EBEBEB"/>
<path d="M573.032 519.952H563.595V552.471H573.032V519.952Z" fill="#F5F5F5"/>
<path d="M593.273 519.952H583.836V552.471H593.273V519.952Z" fill="#E6E6E6"/>
<path d="M583.836 516.708H577.75V552.471H583.836V516.708Z" fill="#FAFAFA"/>
<path d="M602.832 516.708H596.746V552.471H602.832V516.708Z" fill="#FAFAFA"/>
<path d="M577.75 519.952H573.032V552.471H577.75V519.952Z" fill="#EBEBEB"/>
<path d="M597.991 517.795H593.273V552.471H597.991V517.795Z" fill="#EBEBEB"/>
<path d="M487.91 444.46V574.256H495.628V565.907H609.936V444.46H487.91ZM495.628 508.709H602.622V552.472H495.628V508.709ZM495.628 457.949H602.622V500.992H495.628V457.949Z" fill="#F0F0F0"/>
<path d="M438.5 653.94C626.323 653.94 778.583 645.05 778.583 634.085C778.583 623.119 626.323 614.229 438.5 614.229C250.677 614.229 98.417 623.119 98.417 634.085C98.417 645.05 250.677 653.94 438.5 653.94Z" fill="#F5F5F5"/>
<path d="M670.116 557.576C670.116 557.576 656.505 541.404 647.805 548.946C639.105 556.488 643.508 572.502 653.54 573.028C659.491 573.35 665.363 571.554 670.116 567.959V557.576Z" fill="#4CC9F0"/>
<path d="M725.595 516.532C725.595 516.532 737.013 504.569 744.082 506.604C751.151 508.639 750.431 537.211 728.489 525.635L725.595 516.532Z" fill="#4CC9F0"/>
<path d="M684.797 605.793C684.797 605.793 647.261 554.453 677.781 544.052C708.3 533.651 713.685 585.359 704.985 599.759C696.285 614.16 684.797 605.793 684.797 605.793Z" fill="#4CC9F0"/>
<path d="M702.196 500.676C702.196 500.676 725.49 446.617 691.006 444.986C656.522 443.355 652.751 498.588 692.444 506.604L702.196 500.676Z" fill="#4CC9F0"/>
<path d="M693.935 544.929C693.935 544.929 682.622 497.203 704.459 493.396C726.296 489.59 747.695 532.721 702.705 554.401C702.6 554.401 694.882 549.612 693.935 544.929Z" fill="#4CC9F0"/>
<path d="M657.785 598.514H720.789L715.527 638.838H663.047L657.785 598.514Z" fill="#263238"/>
<path d="M690.55 496.852C687.248 494.414 684.297 491.534 681.78 488.292C679.225 485.049 677.146 481.458 675.606 477.628C674.078 473.76 673.315 469.631 673.361 465.473C673.441 461.347 674.404 457.286 676.185 453.563C675.957 454.563 675.746 455.563 675.5 456.527L675.132 458.001C675.132 458.492 675.044 459 674.992 459.492C674.887 460.491 674.729 461.474 674.641 462.473V465.455C674.864 469.406 675.717 473.297 677.167 476.979C678.657 480.68 680.545 484.209 682.797 487.503C683.909 489.178 685.116 490.788 686.41 492.326C687.778 493.87 689.147 495.343 690.55 496.852Z" fill="white"/>
<path d="M682.306 450.423C684.268 450.806 686.168 451.456 687.954 452.353C689.742 453.288 691.414 454.43 692.935 455.756C696.001 458.437 698.403 461.793 699.951 465.56C701.431 469.321 702.25 473.308 702.372 477.347C702.372 479.347 702.249 481.329 702.161 483.311C702.074 485.293 701.548 487.24 701.144 489.187C701.144 487.187 701.267 485.223 701.32 483.276C701.372 481.329 701.214 479.364 701.021 477.435C700.811 475.511 700.483 473.601 700.039 471.717C699.794 470.787 699.636 469.84 699.338 468.928L698.338 466.227C696.882 462.64 694.709 459.388 691.953 456.671C689.196 453.953 685.913 451.827 682.306 450.423V450.423Z" fill="white"/>
<path d="M708.616 496.852C711.153 497.832 713.469 499.306 715.432 501.187C717.395 503.069 718.966 505.322 720.052 507.815C721.182 510.315 721.904 512.979 722.192 515.708C722.288 516.393 722.323 517.086 722.297 517.777C722.341 518.472 722.341 519.169 722.297 519.865C722.148 521.243 721.872 522.606 721.473 523.934C720.675 526.547 719.568 529.055 718.175 531.406C716.767 533.716 715.184 535.915 713.439 537.983C710.013 542.11 706.096 545.803 701.775 548.981C703.705 547.122 705.582 545.245 707.318 543.245C709.113 541.3 710.805 539.263 712.387 537.141C715.657 533.057 718.165 528.417 719.789 523.443C720.172 522.219 720.442 520.962 720.596 519.689C720.631 519.058 720.631 518.426 720.596 517.795C720.648 517.159 720.648 516.519 720.596 515.883C720.382 513.297 719.791 510.756 718.842 508.341C717.903 505.913 716.537 503.673 714.808 501.728C713.081 499.715 710.978 498.059 708.616 496.852V496.852Z" fill="white"/>
<path d="M702.196 500.676C703.477 504.197 704.291 507.871 704.617 511.603C704.819 513.498 704.819 515.409 704.617 517.304C704.441 519.273 703.843 521.181 702.863 522.899C700.961 525.941 699.868 529.419 699.688 533.002C699.495 534.825 699.407 536.658 699.425 538.492C699.425 540.351 699.425 542.193 699.548 544.052C698.652 540.41 698.245 536.664 698.338 532.914C698.372 531.012 698.608 529.119 699.039 527.266C699.278 526.318 699.595 525.391 699.986 524.495C700.387 523.621 700.851 522.777 701.372 521.969C702.262 520.475 702.819 518.805 703.003 517.076C703.27 515.288 703.388 513.481 703.354 511.673C703.333 509.839 703.216 508.006 703.003 506.183C702.775 504.342 702.495 502.517 702.196 500.676Z" fill="white"/>
<path d="M686.901 548.946C687.829 549.299 688.638 549.907 689.234 550.7C689.881 551.472 690.467 552.293 690.988 553.155C691.89 554.908 692.675 556.719 693.339 558.575C694.636 562.283 695.679 566.074 696.461 569.924C697.25 573.765 697.881 577.624 698.302 581.518C698.805 585.402 699.011 589.319 698.916 593.234C698.653 591.287 698.355 589.375 697.987 587.464C697.618 585.552 697.338 583.622 696.969 581.711C696.25 577.887 695.549 574.081 694.742 570.292C693.935 566.503 693.075 562.715 692.058 558.996C691.589 557.137 691.003 555.309 690.304 553.524C689.941 552.64 689.513 551.784 689.024 550.963C688.506 550.116 687.774 549.42 686.901 548.946V548.946Z" fill="white"/>
<path d="M676.237 550.612C675.265 554.08 674.676 557.644 674.483 561.241C674.273 564.797 674.532 568.365 675.255 571.853C675.914 575.343 677.096 578.714 678.763 581.851C680.45 585.034 682.467 588.033 684.779 590.796L682.762 588.937C682.071 588.331 681.426 587.674 680.833 586.972C679.606 585.594 678.514 584.102 677.57 582.517C676.576 580.944 675.731 579.283 675.044 577.553C674.694 576.694 674.483 575.799 674.185 574.905C673.903 574.045 673.686 573.166 673.536 572.274C672.792 568.626 672.65 564.882 673.115 561.188C673.546 557.511 674.602 553.934 676.237 550.612V550.612Z" fill="white"/>
<path d="M734.453 522.355C736.35 521.899 738.214 521.313 740.03 520.601C740.887 520.25 741.705 519.809 742.468 519.285C743.281 518.72 744.05 518.092 744.766 517.409C744.608 518.488 744.131 519.495 743.398 520.303C742.66 521.128 741.75 521.781 740.732 522.215C739.73 522.636 738.661 522.874 737.575 522.916C736.505 522.966 735.438 522.774 734.453 522.355V522.355Z" fill="white"/>
<path d="M732.12 514.48C732.621 513.519 733.328 512.681 734.189 512.024C735.049 511.324 736.039 510.799 737.101 510.481C738.216 510.182 739.389 510.182 740.504 510.481C741.587 510.811 742.519 511.513 743.135 512.463C742.214 512.126 741.253 511.913 740.276 511.831C739.368 511.822 738.464 511.946 737.592 512.2C736.674 512.472 735.777 512.812 734.908 513.217L732.12 514.48Z" fill="white"/>
<path d="M663.907 559.996C661.715 558.177 659.4 556.513 656.978 555.015C655.856 554.296 654.595 553.824 653.277 553.629C651.909 553.499 650.533 553.767 649.313 554.401C649.78 553.766 650.383 553.244 651.078 552.874C651.773 552.504 652.543 552.294 653.33 552.261C654.92 552.221 656.487 552.648 657.838 553.489C659.143 554.255 660.325 555.213 661.346 556.33C662.385 557.411 663.25 558.648 663.907 559.996V559.996Z" fill="white"/>
<path d="M663.907 567.959C662.26 568.569 660.536 568.946 658.785 569.082C657.031 569.255 655.263 569.202 653.523 568.924C651.703 568.671 649.973 567.972 648.489 566.889C647.742 566.355 647.131 565.653 646.705 564.839C646.278 564.026 646.048 563.124 646.033 562.206C646.677 563.704 647.808 564.94 649.243 565.714C650.676 566.454 652.224 566.947 653.821 567.17C657.165 567.624 660.533 567.888 663.907 567.959V567.959Z" fill="white"/>
<path d="M553.65 603.846C553.951 603.235 554.1 602.561 554.083 601.88C554.066 601.199 553.884 600.533 553.553 599.937C553.222 599.342 552.751 598.837 552.182 598.463C551.612 598.09 550.96 597.861 550.283 597.795C550.864 596.059 550.901 594.186 550.391 592.428C549.88 590.67 548.845 589.109 547.424 587.955C547.086 587.63 546.646 587.432 546.178 587.394C545.682 587.447 545.216 587.656 544.845 587.99L536.97 593.655C536.33 594.039 535.789 594.568 535.391 595.199C533.777 598.321 539.601 602.32 537.145 604.898C536.461 605.653 535.391 605.793 534.497 606.337C532.62 607.512 532.392 610.09 531.515 612.125C530.638 614.16 527.586 615.721 526.411 613.879C527.288 611.932 524.657 610.248 522.552 610.003C520.447 609.757 518.219 609.634 517.062 607.652C514.045 610.283 507.327 602.952 507.467 600.005C506.283 600.218 505.195 600.795 504.355 601.657C503.516 602.519 502.966 603.621 502.784 604.811C502.442 607.251 502.354 609.719 502.521 612.178C502.521 616.966 500.907 621.649 500.995 626.438C500.995 630.156 502.504 634.278 505.906 635.786C507.592 636.387 509.385 636.626 511.168 636.488L549.984 636.242C550.92 636.314 551.859 636.158 552.721 635.786C554.475 634.874 554.843 632.577 555.001 630.612C555.679 622.181 556.375 613.75 557.088 605.319L553.65 603.846Z" fill="#407BFF"/>
<path opacity="0.3" d="M553.65 603.846C553.951 603.235 554.1 602.561 554.083 601.88C554.066 601.199 553.884 600.533 553.553 599.937C553.222 599.342 552.751 598.837 552.182 598.463C551.612 598.09 550.96 597.861 550.283 597.795C550.864 596.059 550.901 594.186 550.391 592.428C549.88 590.67 548.845 589.109 547.424 587.955C547.086 587.63 546.646 587.432 546.178 587.394C545.682 587.447 545.216 587.656 544.845 587.99L536.97 593.655C536.33 594.039 535.789 594.568 535.391 595.199C533.777 598.321 539.601 602.32 537.145 604.898C536.461 605.653 535.391 605.793 534.497 606.337C532.62 607.512 532.392 610.09 531.515 612.125C530.638 614.16 527.586 615.721 526.411 613.879C527.288 611.932 524.657 610.248 522.552 610.003C520.447 609.757 518.219 609.634 517.062 607.652C514.045 610.283 507.327 602.952 507.467 600.005C506.283 600.218 505.195 600.795 504.355 601.657C503.516 602.519 502.966 603.621 502.784 604.811C502.442 607.251 502.354 609.719 502.521 612.178C502.521 616.966 500.907 621.649 500.995 626.438C500.995 630.156 502.504 634.278 505.906 635.786C507.592 636.387 509.385 636.626 511.168 636.488L549.984 636.242C550.92 636.314 551.859 636.158 552.721 635.786C554.475 634.874 554.843 632.577 555.001 630.612C555.679 622.181 556.375 613.75 557.088 605.319L553.65 603.846Z" fill="white"/>
<path d="M556.018 562.732H495.698L496.189 568.819L496.557 573.169L497.47 584.465L497.996 590.972L498.68 599.601L498.978 603.32L499.083 604.425L499.434 608.775L499.925 614.756L500.223 618.457L500.521 622.228L500.872 626.578L501.153 629.876L501.451 633.577L501.574 635.19H556.842L556.965 633.577L557.263 629.893L557.544 626.561L557.895 622.211L558.193 618.457L558.491 614.756L558.982 608.757L559.333 604.425L559.421 603.32L559.719 599.601L560.421 590.972L560.947 584.482L561.859 573.169L562.21 568.819L562.701 562.732H556.018ZM559.631 566.732L558.474 565.556H559.736L559.631 566.732ZM559.333 570.415L559.228 571.888L553.826 577.273L547.651 571.099L553.177 565.556H554.474L559.333 570.415ZM557.772 589.709L553.826 593.655L547.651 587.464L553.826 581.307L558.105 585.569L557.772 589.709ZM500.469 585.569L504.749 581.307L510.923 587.464L504.749 593.655L500.82 589.709L500.469 585.569ZM551.756 579.29L545.494 585.464L539.39 579.29L545.564 573.116L551.756 579.29ZM541.986 565.556H549.002L545.494 569.064L541.986 565.556ZM543.53 587.446L537.355 593.638L531.164 587.446L537.355 581.29L543.53 587.446ZM522.99 595.637L529.182 589.463L535.338 595.637L529.182 601.812L522.99 595.637ZM527.165 603.811L520.938 610.003L514.852 603.846L521.026 597.655L527.165 603.811ZM537.355 597.637L543.565 603.846L537.391 610.02L531.199 603.846L537.355 597.637ZM529.182 585.464L523.025 579.29L529.217 573.116L535.373 579.29L529.182 585.464ZM527.165 587.446L520.991 593.638L514.817 587.446L520.991 581.29L527.165 587.446ZM512.799 585.464L506.66 579.29L512.835 573.116L519.026 579.29L512.799 585.464ZM512.799 589.463L518.991 595.637L512.799 601.812L506.625 595.637L512.799 589.463ZM518.991 612.002L512.799 618.176L506.625 612.002L512.799 605.828L518.991 612.002ZM520.973 614.002L527.165 620.176L520.991 626.368L514.817 620.176L520.973 614.002ZM522.99 612.002L529.182 605.828L535.338 612.002L529.182 618.176L522.99 612.002ZM537.355 614.002L543.53 620.176L537.355 626.368L531.164 620.176L537.355 614.002ZM545.529 622.176L551.721 628.367L547.704 632.366H543.389L539.39 628.402L545.529 622.176ZM539.355 612.002L545.529 605.828L551.721 612.002L545.494 618.176L539.355 612.002ZM539.355 595.637L545.494 589.463L551.686 595.637L545.494 601.812L539.355 595.637ZM543.53 571.081L537.355 577.256L531.164 571.081L536.706 565.539H538.004L543.53 571.081ZM529.182 569.082L525.674 565.574H532.69L529.182 569.082ZM527.165 571.081L520.991 577.256L514.817 571.081L520.342 565.539H521.64L527.165 571.081ZM516.343 565.539L512.835 569.047L509.327 565.539H516.343ZM505.275 565.539L510.8 571.081L504.626 577.256L499.241 571.871L499.136 570.397L503.977 565.539H505.275ZM500.013 565.539L498.873 566.696L498.767 565.539H500.013ZM499.627 576.238L502.661 579.255L500.083 581.834L499.627 576.238ZM501.381 596.953L501.153 594.024L502.732 595.62L501.381 596.953ZM501.679 600.689L504.731 597.62L510.905 603.811L504.731 609.985L502.24 607.494L501.679 600.689ZM502.609 612.108V611.844L502.749 611.985L502.626 612.108H502.609ZM503.679 625.28L502.907 615.808L504.661 614.054L510.835 620.229L504.661 626.403L503.609 625.35L503.679 625.28ZM504.24 632.296L504.135 630.875L504.731 630.279L506.731 632.296H504.24ZM506.731 628.297L512.905 622.105L519.096 628.297L515.08 632.296H510.73L506.731 628.297ZM519.096 632.296L521.096 630.279L523.113 632.296H519.096ZM527.095 632.296L523.025 628.402L529.217 622.211L535.373 628.402L531.462 632.366L527.095 632.296ZM535.444 632.296L537.461 630.279L539.46 632.296H535.444ZM554.299 632.296H551.808L553.808 630.279L554.404 630.875L554.299 632.296ZM554.878 625.28L553.808 626.333L547.634 620.158L553.808 613.984L555.562 615.738L554.878 625.28ZM555.965 611.827V612.108L555.843 611.985L556 611.827H555.965ZM556.316 607.494L553.808 609.985L547.564 603.846L553.738 597.655L556.807 600.724L556.316 607.494ZM557.176 596.97L555.808 595.62L557.404 594.024L557.176 596.97ZM558.93 576.221L558.474 581.851L555.737 579.29L558.789 576.256L558.93 576.221Z" fill="#240046"/>
<path d="M494.716 568.1H563.683C565.272 568.1 566.56 566.812 566.56 565.223V563.101C566.56 561.512 565.272 560.224 563.683 560.224H494.716C493.127 560.224 491.839 561.512 491.839 563.101V565.223C491.839 566.812 493.127 568.1 494.716 568.1Z" fill="#407BFF"/>
<path d="M558.298 630.963H500.118C498.529 630.963 497.241 632.251 497.241 633.839V635.962C497.241 637.55 498.529 638.838 500.118 638.838H558.298C559.887 638.838 561.175 637.55 561.175 635.962V633.839C561.175 632.251 559.887 630.963 558.298 630.963Z" fill="#407BFF"/>
<path d="M317.965 164.048H267.573C263.456 164.048 259.507 165.683 256.596 168.595C253.685 171.506 252.05 175.454 252.05 179.571V223.421C252.05 227.538 253.685 231.486 256.596 234.397C259.507 237.308 263.456 238.944 267.573 238.944H282.271L269.993 263.307L292.795 238.944H318.035C320.073 238.944 322.091 238.542 323.973 237.762C325.855 236.982 327.565 235.838 329.005 234.396C330.445 232.955 331.587 231.243 332.365 229.36C333.144 227.477 333.543 225.459 333.541 223.421V179.571C333.543 177.527 333.141 175.503 332.359 173.616C331.576 171.728 330.428 170.013 328.981 168.571C327.533 167.128 325.815 165.986 323.924 165.21C322.034 164.434 320.009 164.039 317.965 164.048Z" fill="#4CC9F0"/>
<path d="M310.442 218.992C320.21 209.224 320.21 193.387 310.442 183.619C300.675 173.852 284.838 173.852 275.07 183.619C265.302 193.387 265.302 209.224 275.07 218.992C284.838 228.76 300.675 228.76 310.442 218.992Z" fill="#7B2CBF"/>
<path d="M290.147 212.476C289.813 212.477 289.484 212.405 289.181 212.265C288.878 212.126 288.609 211.923 288.393 211.669L278.57 200.11C278.374 199.88 278.226 199.613 278.133 199.325C278.04 199.038 278.005 198.734 278.03 198.433C278.054 198.132 278.138 197.838 278.276 197.569C278.413 197.3 278.603 197.061 278.833 196.865C279.299 196.47 279.902 196.275 280.51 196.325C280.812 196.349 281.105 196.433 281.374 196.57C281.643 196.708 281.882 196.898 282.078 197.128L290.147 206.635L303.442 190.937C303.638 190.706 303.877 190.517 304.146 190.379C304.415 190.241 304.709 190.157 305.01 190.133C305.311 190.109 305.614 190.144 305.902 190.236C306.19 190.329 306.457 190.478 306.687 190.674C306.917 190.869 307.107 191.109 307.245 191.378C307.382 191.647 307.466 191.94 307.49 192.241C307.515 192.543 307.48 192.846 307.387 193.134C307.294 193.421 307.146 193.688 306.95 193.918L291.883 211.669C291.67 211.922 291.404 212.126 291.104 212.265C290.804 212.404 290.477 212.476 290.147 212.476V212.476Z" fill="white"/>
<path d="M359.57 635.629H461.653C462.188 635.629 462.701 635.416 463.079 635.038C463.457 634.66 463.67 634.147 463.67 633.612V627.104C463.665 626.572 463.451 626.064 463.073 625.689C462.695 625.315 462.185 625.105 461.653 625.105H364.832V416.694H460.004C460.973 416.694 461.903 416.311 462.59 415.627C463.277 414.943 463.665 414.015 463.67 413.046V406.17H359.57C358.175 406.17 356.836 406.725 355.849 407.712C354.862 408.698 354.308 410.037 354.308 411.432V630.367C354.308 631.762 354.862 633.101 355.849 634.087C356.836 635.074 358.175 635.629 359.57 635.629Z" fill="#263238"/>
<g opacity="0.3">
<path opacity="0.3" d="M354.308 411.432V630.349C354.308 631.745 354.862 633.083 355.849 634.07C356.836 635.057 358.175 635.611 359.57 635.611H461.653C462.183 635.611 462.692 635.401 463.067 635.026C463.442 634.651 463.652 634.142 463.652 633.612V627.104C463.652 626.572 463.442 626.062 463.068 625.684C462.693 625.306 462.185 625.092 461.653 625.087H364.832V416.694H460.004C460.973 416.69 461.901 416.302 462.585 415.615C463.269 414.928 463.652 413.998 463.652 413.029V406.17H359.57C358.175 406.17 356.836 406.725 355.849 407.712C354.862 408.698 354.308 410.037 354.308 411.432Z" fill="white"/>
</g>
<path opacity="0.2" d="M354.308 411.432V467.262C357.816 468.151 361.324 469.01 364.832 469.841V416.694H460.004C460.973 416.69 461.901 416.302 462.585 415.615C463.269 414.928 463.652 413.998 463.652 413.029V406.17H359.57C358.175 406.17 356.836 406.725 355.849 407.712C354.862 408.698 354.308 410.037 354.308 411.432Z" fill="black"/>
<path d="M169.7 606.249L211.55 602.601V547.718H226.266V602.671L268.362 606.249C270.148 606.423 271.806 607.256 273.012 608.586C274.218 609.915 274.887 611.646 274.887 613.441V619.018H163.122V613.441C163.124 611.637 163.799 609.9 165.016 608.569C166.233 607.239 167.904 606.411 169.7 606.249Z" fill="#263238"/>
<path opacity="0.1" d="M169.7 606.249L211.55 602.601V547.718H226.266V602.671L268.362 606.249C270.148 606.423 271.806 607.256 273.012 608.586C274.218 609.915 274.887 611.646 274.887 613.441V619.018H163.122V613.441C163.124 611.637 163.799 609.9 165.016 608.569C166.233 607.239 167.904 606.411 169.7 606.249Z" fill="white"/>
<path d="M261.241 625.946C261.241 627.851 261.805 629.713 262.864 631.296C263.922 632.88 265.426 634.114 267.185 634.843C268.945 635.572 270.881 635.762 272.749 635.391C274.617 635.019 276.333 634.102 277.679 632.755C279.026 631.409 279.943 629.693 280.315 627.825C280.686 625.957 280.496 624.021 279.767 622.261C279.038 620.502 277.804 618.998 276.22 617.94C274.637 616.882 272.775 616.317 270.87 616.317C269.605 616.315 268.352 616.562 267.182 617.045C266.013 617.528 264.951 618.238 264.056 619.132C263.161 620.027 262.452 621.089 261.969 622.259C261.486 623.428 261.238 624.681 261.241 625.946V625.946Z" fill="#263238"/>
<path d="M176.716 625.946C176.716 627.852 176.151 629.714 175.092 631.298C174.033 632.882 172.528 634.116 170.767 634.845C169.007 635.573 167.07 635.763 165.201 635.39C163.333 635.017 161.617 634.098 160.271 632.749C158.925 631.401 158.009 629.683 157.64 627.814C157.27 625.945 157.463 624.008 158.195 622.249C158.926 620.49 160.163 618.987 161.749 617.931C163.335 616.875 165.199 616.313 167.104 616.317C168.368 616.317 169.619 616.566 170.786 617.05C171.953 617.534 173.014 618.244 173.907 619.138C174.799 620.033 175.507 621.094 175.989 622.263C176.471 623.431 176.718 624.683 176.716 625.946V625.946Z" fill="#263238"/>
<path d="M222.285 558.856H215.532C213.806 558.856 212.151 558.17 210.93 556.95C209.71 555.73 209.024 554.074 209.024 552.349V504.991H228.792V552.349C228.792 554.074 228.106 555.73 226.886 556.95C225.666 558.17 224.011 558.856 222.285 558.856V558.856Z" fill="#263238"/>
<path opacity="0.2" d="M222.285 558.856H215.532C213.806 558.856 212.151 558.17 210.93 556.95C209.71 555.73 209.024 554.074 209.024 552.349V504.991H228.792V552.349C228.792 554.074 228.106 555.73 226.886 556.95C225.666 558.17 224.011 558.856 222.285 558.856V558.856Z" fill="white"/>
<path d="M175.505 396.278C175.505 396.278 180.031 487.188 199.605 502.833H178.662C178.662 502.833 160 471.858 158.614 396.278H175.505Z" fill="#263238"/>
<path opacity="0.1" d="M175.505 396.278C175.505 396.278 180.031 487.188 199.605 502.833H178.662C178.662 502.833 160 471.858 158.614 396.278H175.505Z" fill="white"/>
<path d="M173.804 495.291H266.608C268.697 495.291 270.7 496.121 272.177 497.598C273.654 499.075 274.484 501.078 274.484 503.167V510.358H165.911V503.167C165.911 502.131 166.115 501.105 166.512 500.149C166.909 499.192 167.491 498.323 168.224 497.591C168.957 496.86 169.827 496.28 170.785 495.886C171.742 495.491 172.768 495.289 173.804 495.291V495.291Z" fill="#407BFF"/>
<path d="M275.466 502.833H164.964C163.21 502.833 161.789 504.254 161.789 506.008V507.183C161.789 508.936 163.21 510.358 164.964 510.358H275.466C277.219 510.358 278.641 508.936 278.641 507.183V506.008C278.641 504.254 277.219 502.833 275.466 502.833Z" fill="#263238"/>
<path opacity="0.6" d="M275.466 502.833H164.964C163.21 502.833 161.789 504.254 161.789 506.008V507.183C161.789 508.936 163.21 510.358 164.964 510.358H275.466C277.219 510.358 278.641 508.936 278.641 507.183V506.008C278.641 504.254 277.219 502.833 275.466 502.833Z" fill="white"/>
<path d="M154.931 416.168H188.485C198.307 416.168 205.394 407.398 204.271 396.435L202.85 381.912C201.763 371.02 192.94 362.18 183.118 362.18H149.616C139.794 362.18 132.708 370.95 133.83 381.912L135.251 396.435C136.268 407.398 145.109 416.168 154.931 416.168Z" fill="#407BFF"/>
<path d="M265.661 337.747L267.275 342.693C267.836 344.447 268.432 346.061 269.029 347.744C270.239 351.077 271.52 354.375 272.888 357.567C274.197 360.647 275.679 363.651 277.325 366.565C278.611 368.94 280.223 371.125 282.114 373.055C284.05 374.552 286.308 375.579 288.709 376.054C291.996 376.873 295.337 377.46 298.707 377.808C305.723 378.702 313.195 379.036 320.474 379.334L321.772 389.156C314.063 391.25 306.156 392.526 298.18 392.962C293.979 393.191 289.765 393.056 285.587 392.559C283.261 392.267 280.962 391.792 278.711 391.138C277.438 390.758 276.195 390.283 274.992 389.718C273.645 389.109 272.363 388.362 271.169 387.49C267.238 384.573 263.863 380.972 261.206 376.861C258.82 373.367 256.703 369.696 254.874 365.881C253.092 362.239 251.493 358.51 250.086 354.708C249.402 352.813 248.735 350.919 248.104 349.025C247.472 347.13 246.928 345.271 246.35 343.114L265.661 337.747Z" fill="#B65B52"/>
<path d="M257.049 328.468C262.574 330.362 267.573 338.308 281.482 370.178C281.482 370.178 283.745 374.072 295.023 376.51L293.988 394.401C293.988 394.401 277.887 393.699 274.15 391.121C270.414 388.542 248.016 351.691 248.016 351.691L257.049 328.468Z" fill="#263238"/>
<path opacity="0.2" d="M275.694 391.893C275.151 391.711 274.633 391.464 274.15 391.156C271.993 389.648 263.626 376.686 256.874 366.021C258.631 359.975 260.71 354.026 263.1 348.201C263.1 348.201 275.94 373.932 275.694 391.893Z" fill="black"/>
<path d="M316.667 380.299L329.244 375.773L327.7 392.612C327.7 392.612 316.159 394.085 314.738 388.016L316.667 380.299Z" fill="#B55B52"/>
<path d="M339.662 379.176L337.733 393.05L327.7 392.612L329.243 375.773L339.662 379.176Z" fill="#B55B52"/>
<path d="M295.111 375.773L301.53 377.703L299.18 395.102L292.76 396.208L295.111 375.773Z" fill="#263238"/>
<path d="M266.152 439.128C266.152 439.128 351.028 472.612 370.761 486.609C390.493 500.606 440.254 594.971 440.254 594.971L419.68 610.757C419.68 610.757 360.325 524.565 353.028 518.724C345.731 512.884 251.296 483.89 251.296 483.89L266.152 439.128Z" fill="#240046"/>
<path d="M444.025 628.735L453.935 618.773L437.729 593.708L427.836 603.671L444.025 628.735Z" fill="#B55B52"/>
<path opacity="0.2" d="M427.836 603.671L437.729 593.726L446.99 608.056L436.746 617.492L427.836 603.671Z" fill="black"/>
<path d="M455.654 617.685C455.654 617.685 455.654 617.685 455.777 617.685C455.9 617.685 455.777 617.685 455.777 617.685C456.944 617.257 458.061 616.704 459.11 616.037C459.927 615.599 460.552 614.874 460.864 614.002C460.928 613.675 460.898 613.336 460.777 613.025C460.656 612.715 460.449 612.445 460.18 612.248C460.035 612.097 459.855 611.986 459.655 611.925C459.456 611.863 459.244 611.854 459.04 611.897C458.075 612.125 457.128 613.493 456.409 614.809C456.56 613.581 456.275 612.339 455.602 611.301C455.405 611.102 455.147 610.977 454.87 610.945C454.592 610.913 454.312 610.977 454.076 611.125C453.856 611.229 453.663 611.383 453.514 611.575C453.364 611.767 453.262 611.992 453.216 612.23C452.813 614.125 455.356 617.177 455.479 617.352L455.654 617.177L455.497 617.37C455.497 617.37 455.374 617.562 455.374 617.58C455.4 617.628 455.443 617.666 455.494 617.685C455.546 617.705 455.603 617.705 455.654 617.685V617.685ZM455.742 616.387C455.742 616.493 455.654 616.598 455.619 616.686C454.848 615.598 453.708 613.686 453.953 612.564C453.974 612.432 454.022 612.306 454.094 612.194C454.167 612.082 454.262 611.987 454.374 611.915H454.497C454.918 611.704 455.146 611.827 455.286 611.915C455.957 613.306 456.119 614.889 455.742 616.387ZM456.339 616.808C457.11 615.054 458.391 612.774 459.355 612.564C459.456 612.538 459.562 612.541 459.661 612.572C459.76 612.603 459.848 612.661 459.917 612.739C460.08 612.865 460.209 613.032 460.289 613.223C460.368 613.413 460.397 613.621 460.373 613.827C460.18 614.739 458.689 615.826 456.339 616.808V616.808Z" fill="#407BFF"/>
<path d="M453.742 616.791L440.657 625.561C440.544 625.627 440.446 625.716 440.368 625.822C440.289 625.927 440.233 626.047 440.202 626.175C440.171 626.302 440.166 626.435 440.187 626.564C440.208 626.694 440.254 626.818 440.324 626.929L446.639 637.716C447 638.262 447.563 638.642 448.204 638.773C448.845 638.905 449.512 638.777 450.059 638.418C454.567 635.278 456.566 633.559 462.337 629.648C467.591 626.416 472.613 622.824 477.369 618.896C481.684 614.879 477.597 610.722 475.422 612.037C470.16 615.142 461.249 616.475 456.233 616.107C455.348 616.037 454.467 616.279 453.742 616.791Z" fill="#263238"/>
<path d="M420.645 617.72L446.341 600.619L440.412 588.534L412.576 607.845L420.645 617.72Z" fill="#407BFF"/>
<path d="M420.645 617.72L446.341 600.619L440.412 588.534L412.576 607.845L420.645 617.72Z" fill="#3A0CA3"/>
<path opacity="0.2" d="M390.721 569.257C374.532 546.297 356.869 521.899 353.116 518.795C347.854 514.515 295.847 497.852 268.292 489.222L265.082 455.896L275.15 454.142L276.29 456.703C276.29 456.703 339.189 470.963 356.974 479.873C368.428 485.504 383.811 541.772 390.721 569.257Z" fill="black"/>
<path d="M386.95 621.018C386.97 621.026 386.991 621.03 387.012 621.03C387.033 621.03 387.054 621.026 387.073 621.018C388.319 621.003 389.559 620.856 390.774 620.579C391.703 620.448 392.548 619.972 393.142 619.246C393.316 618.967 393.408 618.645 393.408 618.316C393.408 617.988 393.316 617.666 393.142 617.387C393.055 617.195 392.921 617.029 392.752 616.903C392.583 616.777 392.386 616.696 392.177 616.668C391.195 616.545 389.844 617.545 388.669 618.544C389.206 617.456 389.337 616.212 389.037 615.036C388.92 614.784 388.721 614.58 388.473 614.455C388.224 614.331 387.941 614.295 387.669 614.352C387.429 614.389 387.199 614.474 386.994 614.604C386.788 614.734 386.612 614.905 386.477 615.107C385.477 616.773 386.863 620.491 386.933 620.702L387.143 620.579L386.933 620.719C386.933 620.719 386.74 620.86 386.757 620.877L386.95 621.018ZM387.476 619.807L387.248 620.053C386.704 618.628 386.63 617.067 387.038 615.598C387.104 615.484 387.192 615.385 387.298 615.306C387.403 615.228 387.524 615.172 387.652 615.142H387.81C388.266 615.142 388.441 615.282 388.511 615.457C388.688 616.984 388.322 618.524 387.476 619.807V619.807ZM387.88 620.404C389.195 619 391.16 617.282 392.142 617.404C392.245 617.415 392.344 617.453 392.427 617.515C392.51 617.577 392.575 617.66 392.616 617.755C392.714 617.935 392.765 618.137 392.765 618.343C392.765 618.548 392.714 618.75 392.616 618.93C392.195 619.72 390.441 620.263 387.88 620.404V620.404Z" fill="#407BFF"/>
<path d="M372.322 627.578L384.968 621.456L377.443 591.322L364.815 597.444L372.322 627.578Z" fill="#B55B52"/>
<path opacity="0.2" d="M364.815 597.444L377.443 591.34L381.741 608.564L368.937 614.054L364.815 597.444Z" fill="black"/>
<path d="M385.442 619.527L370.182 623.473C370.053 623.498 369.931 623.549 369.822 623.622C369.713 623.695 369.62 623.789 369.548 623.898C369.477 624.008 369.427 624.131 369.403 624.259C369.38 624.388 369.382 624.521 369.41 624.648V624.648L371.796 636.926C371.968 637.552 372.379 638.085 372.939 638.413C373.499 638.741 374.165 638.836 374.795 638.68C380.057 637.207 382.548 636.242 389.248 634.453C395.254 633.171 401.163 631.466 406.928 629.349C412.331 626.999 409.857 621.719 407.367 622.245C401.438 623.456 392.51 621.719 387.915 619.702C387.13 619.381 386.264 619.319 385.442 619.527Z" fill="#263238"/>
<path d="M383.6 597.041C383.6 597.041 362.201 489.678 357.816 483.294C350.695 472.77 265.065 455.808 265.065 455.808L275.115 454.054L263.504 423.184L187.257 426.183C187.257 426.183 188.853 476.558 196.606 490.064C204.359 503.57 319.053 509.779 326.507 512.866C333.962 515.953 356.711 600.163 356.711 600.163L383.6 597.041Z" fill="#240046"/>
<path d="M357.167 609.669L387.091 602.057L385.494 588.691L352.835 597.689L357.167 609.669Z" fill="#407BFF"/>
<path d="M357.167 609.669L387.091 602.057L385.494 588.691L352.835 597.689L357.167 609.669Z" fill="#3A0CA3"/>
<path d="M211.392 427.359L189.292 426.99L188.818 433.673L212.339 434.234L211.392 427.359Z" fill="#263238"/>
<path d="M214.795 427.236L215.76 434.181L265.082 433.48L263.486 427.148L214.795 427.236Z" fill="#263238"/>
<path d="M238.544 428.446L239.176 433.024C239.268 433.583 239.558 434.09 239.992 434.454C240.427 434.818 240.977 435.014 241.544 435.006L249.437 434.76C249.698 434.765 249.957 434.712 250.195 434.603C250.433 434.495 250.643 434.335 250.811 434.135C250.979 433.935 251.101 433.7 251.166 433.447C251.232 433.194 251.24 432.93 251.191 432.673L250.542 428.078C250.449 427.52 250.159 427.015 249.724 426.654C249.289 426.293 248.739 426.101 248.174 426.113L240.298 426.359C240.037 426.354 239.778 426.408 239.54 426.516C239.302 426.624 239.091 426.784 238.923 426.984C238.755 427.184 238.634 427.419 238.568 427.672C238.503 427.925 238.495 428.19 238.544 428.446V428.446Z" fill="white"/>
<path d="M189.187 426.008H261.627C262.494 426.013 263.332 425.697 263.98 425.12C264.628 424.544 265.039 423.748 265.135 422.886C274.08 352.726 256.996 328.503 256.996 328.503C250.491 326.645 243.853 325.291 237.141 324.451C227.333 323.68 217.488 323.469 207.656 323.82C200.958 324 194.281 324.663 187.678 325.802C184.17 327.328 180.539 342.956 184.17 391.647C185.117 404.399 185.258 415.414 185.17 421.868C185.156 422.949 185.571 423.992 186.323 424.768C187.076 425.543 188.106 425.989 189.187 426.008V426.008Z" fill="#7B2CBF"/>
<path d="M246.893 353.322H260.855L261.908 369.985L254.418 374.844L246.893 371.125V353.322Z" fill="#263238"/>
<path d="M208.375 323.101L231.774 331.081L232.721 324.381C230.441 320.382 229.862 317.856 231.791 313.208L216.181 295.265C216.584 304.456 214.918 317.014 208.375 323.101Z" fill="#B55B52"/>
<path d="M223.179 334.554L227.775 336.466L231.774 338.974C231.774 338.974 237.124 369.599 235.633 395.453L240.123 399.137L244.859 395.33C244.859 395.33 238.965 347.85 236.843 338.606L237.772 336.379L239.93 331.783L235.948 329.696L229.616 331.081H225.196L223.179 334.554Z" fill="white"/>
<path opacity="0.2" d="M222.53 302.579L231.774 313.208C231.08 314.837 230.522 316.521 230.107 318.242C226.196 317.067 221.337 311.858 221.565 307.613C221.578 305.89 221.905 304.185 222.53 302.579Z" fill="black"/>
<path d="M209.831 318.856C216.435 323.253 223.491 326.928 230.879 329.818C231.686 326.553 231.686 323.139 230.879 319.873L241.21 325.03C241.21 325.03 242.07 333.046 239.702 337.308L232.107 331.748L223.582 338.764C223.582 338.764 207.446 332.537 204.92 324.083L209.831 318.856Z" fill="#263238"/>
<path opacity="0.2" d="M262.469 381.088L238.544 400.382C204.201 408.03 189.099 386.613 183.03 372.581C182.458 362.227 182.517 351.848 183.205 341.5C191.449 341.115 201.71 341.115 204.482 343.254C209.305 346.955 226.108 372.897 228.617 374.826C231.125 376.756 262.469 381.088 262.469 381.088Z" fill="black"/>
<path d="M276.08 380.176L288.656 375.633L287.112 392.472C287.112 392.472 275.571 393.945 274.15 387.876L276.08 380.176Z" fill="#B55B52"/>
<path d="M299.057 379.036L297.145 392.91L287.113 392.472L288.656 375.633L299.057 379.036Z" fill="#B55B52"/>
<path d="M202.921 346.201L205.762 351.603C206.744 353.445 207.762 355.269 208.796 357.058C210.849 360.672 212.988 364.197 215.199 367.582C217.283 370.772 219.629 373.782 222.215 376.58C223.208 377.679 224.306 378.678 225.494 379.562C225.793 379.808 225.845 379.79 225.933 379.878C226.124 379.988 226.323 380.082 226.529 380.159C226.792 380.264 227.143 380.352 227.441 380.457L228.564 380.72C232.334 381.427 236.164 381.768 240 381.737C244.122 381.737 248.349 381.737 252.629 381.474C261.153 381.053 269.906 380.369 278.483 379.597L280.57 389.279C271.974 392.062 263.21 394.295 254.33 395.962C249.875 396.839 245.332 397.471 240.684 397.962C235.73 398.494 230.735 398.523 225.775 398.049C225.056 397.944 224.372 397.856 223.653 397.716C222.934 397.576 222.162 397.418 221.373 397.207C220.523 396.969 219.686 396.688 218.864 396.366C218.005 396.025 217.168 395.633 216.356 395.19C213.836 393.76 211.483 392.054 209.34 390.104C205.642 386.712 202.287 382.964 199.325 378.913C196.508 375.143 193.902 371.22 191.52 367.161C190.362 365.162 189.239 363.127 188.152 361.093C187.064 359.058 186.029 357.058 184.995 354.743L202.921 346.201Z" fill="#B65B52"/>
<path d="M187.678 325.802C165.052 333.958 194.396 390.331 206.744 396.646C219.092 402.96 239.93 400.382 239.93 400.382L241.403 380.79C241.403 380.79 230.599 379.474 227.371 378.702C222.232 377.475 211.848 354.778 204.85 342.447C200.987 335.255 194.987 329.439 187.678 325.802V325.802Z" fill="#263238"/>
<path d="M238.492 379.316L236.667 402.066L243.157 400.856L244.859 380.527L238.492 379.316Z" fill="#263238"/>
<path d="M256.4 276.778C257.294 282.04 255.032 292.248 248.454 287.933C241.877 283.618 254.839 267.762 256.4 276.778Z" fill="#263238"/>
<path d="M219.25 278.655C216.724 291.494 214.585 298.878 219.25 306.982C226.266 319.154 243.508 317.295 249.84 305.456C255.54 294.774 258.715 275.638 247.612 267.446C245.153 265.654 242.281 264.512 239.262 264.127C236.244 263.743 233.177 264.127 230.347 265.246C227.517 266.364 225.015 268.18 223.075 270.524C221.135 272.868 219.819 275.665 219.25 278.655V278.655Z" fill="#B55B52"/>
<path d="M213.076 264.5L227.617 263.833L228.003 272.182L227.143 271.708C227.143 271.708 226.231 283.986 219.268 288.073C209.849 280.882 207.077 269.113 213.076 264.5Z" fill="#263238"/>
<path d="M211.568 287.916C211.659 289.536 212.07 291.121 212.777 292.582C213.485 294.042 214.474 295.347 215.69 296.422C218.97 299.281 222.513 296.808 223.197 292.739C223.811 289.073 222.846 283.162 218.794 281.864C217.899 281.602 216.954 281.564 216.041 281.755C215.129 281.946 214.277 282.358 213.562 282.957C212.848 283.556 212.291 284.321 211.944 285.186C211.596 286.051 211.466 286.989 211.568 287.916V287.916Z" fill="#B55B52"/>
<path d="M237.527 287.021C237.246 288.056 237.527 289.021 238.264 289.196C239 289.372 239.702 288.67 240.018 287.635C240.333 286.6 240.018 285.636 239.281 285.478C238.544 285.32 237.79 286.004 237.527 287.021Z" fill="#263238"/>
<path d="M249.191 289.968C248.928 290.985 249.191 291.967 249.928 292.125C250.664 292.283 251.384 291.599 251.682 290.582C251.98 289.564 251.682 288.582 250.945 288.407C250.208 288.231 249.472 288.933 249.191 289.968Z" fill="#263238"/>
<path d="M245.35 289.547C245.825 292.907 246.77 296.184 248.156 299.282C247.319 299.579 246.429 299.696 245.544 299.627C244.658 299.557 243.797 299.302 243.017 298.878L245.35 289.547Z" fill="#A02724"/>
<path d="M236.457 301.421C236.883 301.602 237.323 301.748 237.772 301.86C237.853 301.877 237.938 301.863 238.009 301.82C238.081 301.778 238.134 301.711 238.158 301.632C238.169 301.592 238.171 301.55 238.165 301.508C238.16 301.467 238.146 301.427 238.125 301.391C238.103 301.356 238.075 301.324 238.042 301.299C238.009 301.274 237.971 301.256 237.93 301.246C236.643 300.959 235.442 300.368 234.43 299.523C233.417 298.678 232.62 297.603 232.107 296.387C232.076 296.311 232.017 296.249 231.942 296.213C231.868 296.178 231.783 296.171 231.704 296.195C231.663 296.206 231.625 296.226 231.593 296.253C231.56 296.281 231.534 296.315 231.516 296.353C231.498 296.391 231.488 296.432 231.487 296.475C231.486 296.517 231.494 296.559 231.511 296.598C231.956 297.7 232.626 298.698 233.478 299.529C234.329 300.359 235.344 301.003 236.457 301.421V301.421Z" fill="#263238"/>
<path d="M234.913 282.373C235.016 282.412 235.127 282.422 235.235 282.404C235.343 282.385 235.444 282.338 235.527 282.268C236.133 281.763 236.848 281.407 237.615 281.228C238.382 281.048 239.181 281.05 239.947 281.233C240.026 281.26 240.109 281.271 240.191 281.265C240.274 281.26 240.354 281.237 240.428 281.199C240.502 281.162 240.567 281.11 240.62 281.046C240.673 280.982 240.713 280.909 240.737 280.829C240.764 280.753 240.776 280.673 240.771 280.592C240.766 280.512 240.745 280.433 240.709 280.361C240.673 280.289 240.623 280.225 240.561 280.173C240.499 280.12 240.428 280.081 240.351 280.058C239.387 279.8 238.375 279.779 237.401 279.996C236.427 280.213 235.52 280.661 234.756 281.303C234.69 281.353 234.635 281.415 234.594 281.487C234.553 281.558 234.527 281.637 234.517 281.719C234.507 281.801 234.514 281.884 234.537 281.963C234.56 282.042 234.598 282.116 234.65 282.18C234.723 282.263 234.812 282.329 234.913 282.373V282.373Z" fill="#263238"/>
<path d="M255.277 287.231C255.384 287.27 255.499 287.279 255.611 287.26C255.722 287.24 255.827 287.191 255.914 287.118C256 287.046 256.067 286.951 256.106 286.845C256.145 286.739 256.156 286.624 256.137 286.512C255.952 285.539 255.537 284.623 254.927 283.842C254.317 283.061 253.529 282.437 252.629 282.022C252.473 281.963 252.3 281.967 252.146 282.032C251.993 282.098 251.871 282.22 251.805 282.373C251.747 282.526 251.751 282.697 251.816 282.847C251.882 282.998 252.003 283.117 252.155 283.18C252.854 283.505 253.464 283.993 253.934 284.604C254.404 285.215 254.72 285.929 254.856 286.688C254.871 286.808 254.917 286.922 254.991 287.018C255.066 287.114 255.164 287.188 255.277 287.231V287.231Z" fill="#263238"/>
<path d="M222.653 274.831C222.932 275.067 223.231 275.278 223.547 275.462C224.39 275.966 225.344 276.25 226.325 276.29C227.305 276.33 228.28 276.124 229.16 275.69C232.773 273.936 233.914 263.623 244.192 268.867C245.321 268.595 246.505 268.655 247.601 269.041C248.696 269.427 249.657 270.122 250.366 271.042C253.015 274.287 251.19 286.126 256.838 284.495C262.486 282.864 261.504 281.11 261.504 281.11C261.504 281.11 259.925 282.11 258.996 281.32C259.833 280.616 260.43 279.668 260.704 278.609C260.977 277.55 260.914 276.431 260.522 275.41C260.522 275.41 259.154 277.041 258.242 276.725C259.184 271.935 258.639 266.972 256.68 262.5C253.401 254.326 233.335 256.151 233.335 256.151C233.335 256.151 230.809 251.923 221.741 254.87C212.673 257.817 208.533 268.744 209.971 273.498" fill="#263238"/>
<path d="M342.381 391.156L341.083 386.262H287.884L263.398 388.7L262.469 391.156H342.381Z" fill="#263238"/>
<path opacity="0.5" d="M342.381 391.156L341.083 386.262H287.884L263.398 388.7L262.469 391.156H342.381Z" fill="white"/>
<path opacity="0.2" d="M287.884 386.262V391.156H342.381L341.083 386.262H287.884Z" fill="black"/>
<path d="M305.88 362.829C305.81 363.422 305.868 364.024 306.049 364.593C306.23 365.162 306.531 365.686 306.932 366.129C307.332 366.573 307.822 366.926 308.37 367.164C308.918 367.403 309.51 367.521 310.107 367.512H391.598C392.872 367.482 394.091 366.99 395.03 366.129C395.968 365.268 396.563 364.095 396.702 362.829L401.543 310.665C401.59 310.16 401.554 309.65 401.438 309.157C401.215 308.237 400.685 307.422 399.935 306.845C399.186 306.267 398.262 305.963 397.316 305.982H315.825C314.552 306.012 313.333 306.504 312.394 307.365C311.455 308.226 310.861 309.399 310.721 310.665L305.88 362.829Z" fill="#263238"/>
<path opacity="0.5" d="M305.88 362.829C305.81 363.422 305.868 364.024 306.049 364.593C306.23 365.162 306.531 365.686 306.932 366.129C307.332 366.573 307.822 366.926 308.37 367.164C308.918 367.403 309.51 367.521 310.107 367.512H391.598C392.872 367.482 394.091 366.99 395.03 366.129C395.968 365.268 396.563 364.095 396.702 362.829L401.543 310.665C401.59 310.16 401.554 309.65 401.438 309.157C401.215 308.237 400.685 307.422 399.935 306.845C399.186 306.267 398.262 305.963 397.316 305.982H315.825C314.552 306.012 313.333 306.504 312.394 307.365C311.455 308.226 310.861 309.399 310.721 310.665L305.88 362.829Z" fill="white"/>
<path opacity="0.1" d="M310.458 367.512H391.651C392.924 367.481 394.143 366.99 395.082 366.129C396.021 365.267 396.615 364.095 396.755 362.829L401.596 310.665C401.642 310.159 401.607 309.65 401.491 309.156H320.28C319.01 309.191 317.795 309.684 316.86 310.545C315.925 311.406 315.333 312.576 315.194 313.839L310.353 366.003C310.298 366.508 310.333 367.019 310.458 367.512V367.512Z" fill="black"/>
<path d="M366.376 335.519H349.52L354.01 383.789L327.367 387.788V391.156H383.512V387.788L372.006 383.789L366.376 335.519Z" fill="#263238"/>
<path opacity="0.5" d="M366.376 335.519H349.52L354.01 383.789L327.367 387.788V391.156H383.512V387.788L372.006 383.789L366.376 335.519Z" fill="white"/>
<path opacity="0.2" d="M349.52 335.519L362.008 390.384L372.006 390.086L366.376 335.519H349.52Z" fill="white"/>
<path d="M210.375 635.629H312.458C312.722 635.629 312.983 635.576 313.227 635.475C313.471 635.373 313.692 635.224 313.878 635.037C314.064 634.849 314.211 634.627 314.31 634.382C314.409 634.138 314.459 633.876 314.457 633.612V627.104C314.457 626.574 314.247 626.065 313.872 625.69C313.497 625.315 312.988 625.105 312.458 625.105H215.637V416.694H310.809C311.776 416.694 312.704 416.31 313.389 415.626C314.073 414.942 314.457 414.014 314.457 413.046V406.17H210.375C208.979 406.17 207.641 406.725 206.654 407.712C205.667 408.698 205.113 410.037 205.113 411.432V630.367C205.113 631.762 205.667 633.101 206.654 634.087C207.641 635.074 208.979 635.629 210.375 635.629Z" fill="#263238"/>
<g opacity="0.4">
<path opacity="0.4" d="M210.375 635.629H312.458C312.722 635.629 312.983 635.576 313.227 635.475C313.471 635.373 313.692 635.224 313.878 635.037C314.064 634.849 314.211 634.627 314.31 634.382C314.409 634.138 314.459 633.876 314.457 633.612V627.104C314.457 626.574 314.247 626.065 313.872 625.69C313.497 625.315 312.988 625.105 312.458 625.105H215.637V416.694H310.809C311.776 416.694 312.704 416.31 313.389 415.626C314.073 414.942 314.457 414.014 314.457 413.046V406.17H210.375C208.979 406.17 207.641 406.725 206.654 407.712C205.667 408.698 205.113 410.037 205.113 411.432V630.367C205.113 631.762 205.667 633.101 206.654 634.087C207.641 635.074 208.979 635.629 210.375 635.629Z" fill="white"/>
</g>
<path d="M466.389 407.924L197.29 407.924C196.388 407.924 195.522 407.566 194.884 406.928C194.246 406.29 193.887 405.424 193.887 404.522V396.243L469.792 396.243V404.539C469.787 405.439 469.426 406.3 468.789 406.934C468.151 407.568 467.288 407.924 466.389 407.924V407.924Z" fill="#240046"/>
<path opacity="0.2" d="M193.887 402.066L469.792 402.066V396.225L193.887 396.225V402.066Z" fill="black"/>
<path d="M188.117 397.734H475.597C476.469 397.734 477.305 397.389 477.923 396.774C478.541 396.16 478.89 395.325 478.895 394.454V394.454C478.895 393.579 478.547 392.741 477.929 392.122C477.311 391.504 476.472 391.156 475.597 391.156H188.117C187.242 391.156 186.403 391.504 185.785 392.122C185.167 392.741 184.819 393.579 184.819 394.454V394.454C184.824 395.325 185.173 396.16 185.791 396.774C186.409 397.389 187.245 397.734 188.117 397.734V397.734Z" fill="#240046"/>
</svg>
