<svg width="197" height="81" viewBox="0 0 197 81" fill="none" xmlns="http://www.w3.org/2000/svg">
<path d="M79.5938 50.3838H76.4253V56.4028H79.5938V50.3838Z" fill="#240046"/>
<path d="M78.0084 48.9437V22.3438L85.4606 19.1663C85.4606 19.1663 91.4506 18.2169 79.5871 13.4652C70.9974 10.028 56.1692 4.60905 48.6498 1.88838C45.051 0.587232 41.0898 0.719515 37.5858 2.25785C36.5311 2.71914 35.3779 3.28119 34.153 3.96192C29.1842 6.72289 9.31096 14.2826 4.27493 16.1949C3.65866 16.4226 3.02712 16.6066 2.38501 16.7457C0.86681 17.0838 -1.64561 18.3132 9.13183 22.3304C22.7486 27.4022 41.1238 35.3314 41.1238 35.3314C41.1238 35.3314 43.0226 36.9145 56.0102 31.5247C68.9978 26.1348 67.7304 26.773 67.7304 26.773C67.7304 26.773 67.7304 28.636 66.81 37.2705C66.7966 37.4026 66.7899 37.5348 66.7832 37.6669C66.7585 38.1729 66.3488 40.1569 61.7135 42.6111L56.8969 44.9063C55.6332 45.5084 54.2749 45.8872 52.882 46.0259C49.091 46.3977 41.0812 46.9463 34.7867 45.7819C26.2351 44.1987 19.5823 43.565 19.9003 34.6954C20.1242 28.6719 20.0123 36.4375 20.0123 36.4375L19.9003 30.2595C22.1395 30.8171 23.707 30.5327 23.6869 32.8301L23.4338 60.7355C23.4338 60.7355 23.0643 69.5312 24.016 70.7986C24.9677 72.066 46.5069 71.7503 49.3574 72.066" stroke="#240046" stroke-width="1.34354" stroke-miterlimit="10"/>
<path d="M49.0977 64.9204H48.061V80.1584H49.0977V64.9204Z" fill="#240046"/>
<path d="M57.1724 64.2285H46.8182C42.5627 64.2285 39.113 67.6783 39.113 71.9337C39.113 76.1892 42.5627 79.6389 46.8182 79.6389H57.1724C61.4279 79.6389 64.8776 76.1892 64.8776 71.9337C64.8776 67.6783 61.4279 64.2285 57.1724 64.2285Z" stroke="#240046" stroke-width="1.11962" stroke-miterlimit="10"/>
<path d="M103.885 30.2415C103.885 30.7782 103.87 31.1881 103.84 31.4714H93.7107C93.7554 32.3956 93.979 33.1857 94.3815 33.8416C94.784 34.4976 95.3132 34.9969 95.9692 35.3398C96.6251 35.6678 97.3406 35.8318 98.1158 35.8318C99.1295 35.8318 99.9792 35.5858 100.665 35.0938C101.366 34.6019 101.828 33.9385 102.051 33.1037H103.706C103.408 34.2963 102.767 35.2727 101.783 36.033C100.814 36.7784 99.5916 37.1511 98.1158 37.1511C96.968 37.1511 95.9393 36.8976 95.03 36.3908C94.1207 35.869 93.4051 35.1386 92.8833 34.1994C92.3765 33.2453 92.1231 32.1347 92.1231 30.8676C92.1231 29.6005 92.3765 28.4899 92.8833 27.5358C93.3902 26.5818 94.0983 25.8513 95.0076 25.3444C95.917 24.8376 96.953 24.5842 98.1158 24.5842C99.2786 24.5842 100.292 24.8376 101.157 25.3444C102.036 25.8513 102.707 26.537 103.169 27.4017C103.646 28.2514 103.885 29.198 103.885 30.2415ZM102.297 30.1968C102.312 29.2874 102.126 28.5123 101.738 27.8712C101.366 27.2302 100.851 26.7457 100.195 26.4178C99.5395 26.0898 98.8239 25.9258 98.0487 25.9258C96.886 25.9258 95.8946 26.2985 95.0747 27.0439C94.2548 27.7893 93.8001 28.8402 93.7107 30.1968H102.297ZM112.473 24.5395C113.934 24.5395 115.127 24.9941 116.051 25.9035C116.975 26.7979 117.437 28.1023 117.437 29.8166V36.9722H115.894V29.9955C115.894 28.6688 115.559 27.6551 114.888 26.9544C114.232 26.2538 113.33 25.9035 112.182 25.9035C111.005 25.9035 110.066 26.2762 109.365 27.0215C108.664 27.7669 108.314 28.8626 108.314 30.3086V36.9722H106.749V24.7631H108.314V26.8426C108.702 26.0973 109.261 25.5308 109.991 25.1432C110.722 24.7407 111.549 24.5395 112.473 24.5395ZM120.184 30.8676C120.184 29.6005 120.437 28.4973 120.944 27.5582C121.451 26.6041 122.151 25.8737 123.046 25.3668C123.94 24.8451 124.961 24.5842 126.109 24.5842C127.615 24.5842 128.852 24.9569 129.821 25.7022C130.805 26.4476 131.439 27.4613 131.722 28.7433H130.045C129.836 27.8638 129.381 27.1781 128.681 26.6861C127.995 26.1793 127.138 25.9258 126.109 25.9258C125.289 25.9258 124.551 26.1122 123.895 26.4849C123.24 26.8575 122.718 27.4166 122.33 28.1619C121.957 28.8924 121.771 29.7943 121.771 30.8676C121.771 31.9409 121.957 32.8503 122.33 33.5957C122.718 34.341 123.24 34.9 123.895 35.2727C124.551 35.6454 125.289 35.8318 126.109 35.8318C127.138 35.8318 127.995 35.5858 128.681 35.0938C129.381 34.587 129.836 33.8864 130.045 32.9919H131.722C131.439 34.2441 130.805 35.2504 129.821 36.0106C128.837 36.7709 127.6 37.1511 126.109 37.1511C124.961 37.1511 123.94 36.8976 123.046 36.3908C122.151 35.869 121.451 35.1386 120.944 34.1994C120.437 33.2453 120.184 32.1347 120.184 30.8676ZM133.897 30.8453C133.897 29.593 134.143 28.4973 134.635 27.5582C135.142 26.6041 135.835 25.8737 136.715 25.3668C137.609 24.8451 138.615 24.5842 139.733 24.5842C140.896 24.5842 141.895 24.8525 142.73 25.3892C143.579 25.9258 144.191 26.6116 144.563 27.4464V24.7631H146.129V36.9722H144.563V34.2665C144.176 35.1013 143.557 35.7945 142.707 36.3461C141.873 36.8827 140.874 37.1511 139.711 37.1511C138.608 37.1511 137.609 36.8902 136.715 36.3684C135.835 35.8467 135.142 35.1088 134.635 34.1547C134.143 33.2006 133.897 32.0975 133.897 30.8453ZM144.563 30.8676C144.563 29.8837 144.362 29.0191 143.96 28.2737C143.557 27.5284 143.005 26.9544 142.305 26.5519C141.619 26.1494 140.859 25.9482 140.024 25.9482C139.159 25.9482 138.384 26.142 137.698 26.5296C137.013 26.9172 136.469 27.4837 136.066 28.229C135.679 28.9595 135.485 29.8316 135.485 30.8453C135.485 31.844 135.679 32.7236 136.066 33.4839C136.469 34.2292 137.013 34.8032 137.698 35.2056C138.384 35.5932 139.159 35.787 140.024 35.787C140.859 35.787 141.619 35.5858 142.305 35.1833C143.005 34.7808 143.557 34.2069 143.96 33.4615C144.362 32.7161 144.563 31.8515 144.563 30.8676ZM148.986 30.8453C148.986 29.593 149.24 28.4973 149.747 27.5582C150.254 26.6041 150.947 25.8737 151.826 25.3668C152.721 24.8451 153.727 24.5842 154.845 24.5842C155.918 24.5842 156.887 24.8451 157.752 25.3668C158.617 25.8886 159.25 26.5668 159.653 27.4017V20.425H161.218V36.9722H159.653V34.2441C159.28 35.0938 158.669 35.7945 157.819 36.3461C156.969 36.8827 155.97 37.1511 154.823 37.1511C153.705 37.1511 152.698 36.8902 151.804 36.3684C150.924 35.8467 150.231 35.1088 149.724 34.1547C149.232 33.2006 148.986 32.0975 148.986 30.8453ZM159.653 30.8676C159.653 29.8837 159.451 29.0191 159.049 28.2737C158.646 27.5284 158.095 26.9544 157.394 26.5519C156.708 26.1494 155.948 25.9482 155.113 25.9482C154.249 25.9482 153.473 26.142 152.788 26.5296C152.102 26.9172 151.558 27.4837 151.155 28.229C150.768 28.9595 150.574 29.8316 150.574 30.8453C150.574 31.844 150.768 32.7236 151.155 33.4839C151.558 34.2292 152.102 34.8032 152.788 35.2056C153.473 35.5932 154.249 35.787 155.113 35.787C155.948 35.787 156.708 35.5858 157.394 35.1833C158.095 34.7808 158.646 34.2069 159.049 33.4615C159.451 32.7161 159.653 31.8515 159.653 30.8676ZM166.357 26.9321C166.699 26.1718 167.221 25.583 167.922 25.1656C168.637 24.7482 169.509 24.5395 170.538 24.5395V26.1718H170.113C168.98 26.1718 168.071 26.4774 167.385 27.0886C166.699 27.6998 166.357 28.721 166.357 30.1521V36.9722H164.791V24.7631H166.357V26.9321ZM173.675 22.4599C173.362 22.4599 173.094 22.3481 172.87 22.1245C172.647 21.9009 172.535 21.6251 172.535 21.2971C172.535 20.9691 172.647 20.7008 172.87 20.4921C173.094 20.2685 173.362 20.1567 173.675 20.1567C173.988 20.1567 174.257 20.2685 174.48 20.4921C174.704 20.7008 174.816 20.9691 174.816 21.2971C174.816 21.6251 174.704 21.9009 174.48 22.1245C174.257 22.3481 173.988 22.4599 173.675 22.4599ZM174.458 24.7631V36.9722H172.893V24.7631H174.458ZM183.727 24.5395C185.188 24.5395 186.381 24.9941 187.305 25.9035C188.229 26.7979 188.691 28.1023 188.691 29.8166V36.9722H187.148V29.9955C187.148 28.6688 186.813 27.6551 186.142 26.9544C185.486 26.2538 184.584 25.9035 183.436 25.9035C182.259 25.9035 181.319 26.2762 180.619 27.0215C179.918 27.7669 179.568 28.8626 179.568 30.3086V36.9722H178.003V24.7631H179.568V26.8426C179.955 26.0973 180.514 25.5308 181.245 25.1432C181.975 24.7407 182.803 24.5395 183.727 24.5395ZM192.936 22.4599C192.622 22.4599 192.354 22.3481 192.131 22.1245C191.907 21.9009 191.795 21.6251 191.795 21.2971C191.795 20.9691 191.907 20.7008 192.131 20.4921C192.354 20.2685 192.622 20.1567 192.936 20.1567C193.249 20.1567 193.517 20.2685 193.741 20.4921C193.964 20.7008 194.076 20.9691 194.076 21.2971C194.076 21.6251 193.964 21.9009 193.741 22.1245C193.517 22.3481 193.249 22.4599 192.936 22.4599ZM193.718 24.7631V36.9722H192.153V24.7631H193.718Z" fill="#240046"/>
<path d="M111.61 46.8855V52.9918H117.446V53.7837H111.61V59.9317H118.071V60.7236H110.673V46.0936H118.071V46.8855H111.61ZM125.14 60.8695C124.196 60.8695 123.369 60.7028 122.66 60.3693C121.952 60.0359 121.396 59.5843 120.993 59.0147C120.604 58.4451 120.382 57.8129 120.326 57.1182H121.306C121.417 57.8824 121.771 58.5632 122.368 59.1606C122.98 59.758 123.904 60.0567 125.14 60.0567C125.863 60.0567 126.488 59.9247 127.016 59.6608C127.558 59.3968 127.975 59.0355 128.266 58.5771C128.558 58.1186 128.704 57.6114 128.704 57.0557C128.704 56.3471 128.53 55.7844 128.183 55.3676C127.85 54.9508 127.426 54.6382 126.912 54.4298C126.412 54.2214 125.731 53.9991 124.869 53.7629C123.925 53.5128 123.16 53.2627 122.577 53.0126C122.007 52.7625 121.521 52.3805 121.118 51.8664C120.729 51.3384 120.535 50.6229 120.535 49.7198C120.535 49.0251 120.715 48.393 121.076 47.8233C121.451 47.2398 121.979 46.7813 122.66 46.4478C123.341 46.1144 124.126 45.9477 125.015 45.9477C126.307 45.9477 127.349 46.2672 128.141 46.9063C128.933 47.5455 129.406 48.3304 129.558 49.2613H128.558C128.475 48.8862 128.287 48.5041 127.995 48.1151C127.718 47.7261 127.315 47.4065 126.787 47.1564C126.273 46.8924 125.654 46.7605 124.932 46.7605C123.959 46.7605 123.14 47.0314 122.473 47.5732C121.806 48.1012 121.472 48.8098 121.472 49.699C121.472 50.4076 121.646 50.9772 121.993 51.4079C122.341 51.8247 122.764 52.1443 123.265 52.3666C123.779 52.575 124.466 52.7903 125.328 53.0126C126.287 53.2766 127.044 53.5336 127.599 53.7837C128.169 54.0199 128.648 54.402 129.037 54.93C129.44 55.444 129.642 56.1457 129.642 57.0349C129.642 57.6879 129.468 58.3061 129.121 58.8897C128.773 59.4732 128.259 59.9525 127.579 60.3277C126.912 60.6889 126.099 60.8695 125.14 60.8695ZM133.387 46.0936V60.7236H132.449V46.0936H133.387ZM146.937 60.8695C145.993 60.8695 145.166 60.7028 144.457 60.3693C143.749 60.0359 143.193 59.5843 142.79 59.0147C142.401 58.4451 142.179 57.8129 142.123 57.1182H143.103C143.214 57.8824 143.568 58.5632 144.166 59.1606C144.777 59.758 145.701 60.0567 146.937 60.0567C147.66 60.0567 148.285 59.9247 148.813 59.6608C149.355 59.3968 149.772 59.0355 150.063 58.5771C150.355 58.1186 150.501 57.6114 150.501 57.0557C150.501 56.3471 150.327 55.7844 149.98 55.3676C149.647 54.9508 149.223 54.6382 148.709 54.4298C148.209 54.2214 147.528 53.9991 146.666 53.7629C145.722 53.5128 144.958 53.2627 144.374 53.0126C143.804 52.7625 143.318 52.3805 142.915 51.8664C142.526 51.3384 142.332 50.6229 142.332 49.7198C142.332 49.0251 142.512 48.393 142.873 47.8233C143.249 47.2398 143.777 46.7813 144.457 46.4478C145.138 46.1144 145.923 45.9477 146.812 45.9477C148.104 45.9477 149.146 46.2672 149.938 46.9063C150.73 47.5455 151.203 48.3304 151.356 49.2613H150.355C150.272 48.8862 150.084 48.5041 149.793 48.1151C149.515 47.7261 149.112 47.4065 148.584 47.1564C148.07 46.8924 147.451 46.7605 146.729 46.7605C145.756 46.7605 144.937 47.0314 144.27 47.5732C143.603 48.1012 143.269 48.8098 143.269 49.699C143.269 50.4076 143.443 50.9772 143.79 51.4079C144.138 51.8247 144.562 52.1443 145.062 52.3666C145.576 52.575 146.264 52.7903 147.125 53.0126C148.084 53.2766 148.841 53.5336 149.397 53.7837C149.966 54.0199 150.446 54.402 150.835 54.93C151.237 55.444 151.439 56.1457 151.439 57.0349C151.439 57.6879 151.265 58.3061 150.918 58.8897C150.571 59.4732 150.057 59.9525 149.376 60.3277C148.709 60.6889 147.896 60.8695 146.937 60.8695ZM160.561 53.1585C161.409 53.3113 162.117 53.7282 162.687 54.4089C163.27 55.0897 163.562 55.8886 163.562 56.8056C163.562 57.5559 163.382 58.2297 163.02 58.8271C162.673 59.4107 162.145 59.8761 161.436 60.2235C160.742 60.5569 159.894 60.7236 158.894 60.7236H154.246V46.0936H158.81C160.269 46.0936 161.367 46.434 162.103 47.1147C162.854 47.7816 163.229 48.65 163.229 49.7198C163.229 50.6507 162.979 51.4079 162.478 51.9914C161.978 52.5611 161.339 52.9501 160.561 53.1585ZM155.184 52.7417H158.852C159.95 52.7417 160.79 52.4847 161.374 51.9706C161.971 51.4426 162.27 50.7202 162.27 49.8032C162.27 48.914 161.978 48.2124 161.395 47.6983C160.811 47.1842 159.929 46.9272 158.748 46.9272H155.184V52.7417ZM158.831 59.9109C160.012 59.9109 160.936 59.633 161.603 59.0772C162.284 58.5076 162.624 57.7295 162.624 56.7431C162.624 55.7705 162.277 54.9994 161.582 54.4298C160.901 53.8462 159.964 53.5545 158.769 53.5545H155.184V59.9109H158.831ZM174.61 56.9723H167.67L166.274 60.7236H165.252L170.629 46.427H171.671L177.027 60.7236H176.006L174.61 56.9723ZM174.318 56.1804L171.15 47.6566L167.962 56.1804H174.318Z" fill="#240046"/>
</svg>
