<svg id="Calque_1" data-name="Calque 1" xmlns="http://www.w3.org/2000/svg" viewBox="0 0 518.68 432"><defs><style>.cls-1{fill:#fff;}.cls-2,.cls-3{fill:none;stroke:#fff;stroke-miterlimit:10;}.cls-2{stroke-width:6px;}.cls-3{stroke-width:5px;}</style></defs><rect class="cls-1" x="391.83" y="257.88" width="14.15" height="26.88"/><path class="cls-2" d="M398.9,251.45V132.62l33.31-14.15S459,114.23,406,93c-38.39-15.37-104.62-39.55-138.2-51.7A66.57,66.57,0,0,0,218.38,43c-4.71,2.06-9.86,4.57-15.34,7.61C180.86,62.9,92.1,96.7,69.61,105.2a62,62,0,0,1-8.45,2.48c-6.78,1.52-18,7,30.13,24.94,60.83,22.63,142.88,58,142.88,58s8.48,7.07,66.48-17S353,152.42,353,152.42s0,8.32-4.11,46.88c-.06.59-.09,1.18-.12,1.77-.11,2.26-1.94,11.12-22.65,22.08L304.6,233.4a54.06,54.06,0,0,1-17.92,5c-16.94,1.66-52.7,4.11-80.81-1.09-38.19-7.07-67.9-9.9-66.48-49.51,1-26.9.5,7.78.5,7.78l-.5-27.59c10,2.49,17,1.22,16.91,11.48l-1.13,124.66s-1.64,39.27,2.61,44.93,100.43,4.25,113.16,5.66"/><rect class="cls-1" x="265.16" y="322.8" width="4.63" height="68.05"/><rect class="cls-3" x="225.2" y="319.71" width="115.06" height="68.82" rx="34.41"/></svg>